<svg width="150" height="277" viewBox="0 0 150 277" fill="none" xmlns="http://www.w3.org/2000/svg">
<path d="M139.139 32.3726C117.395 28.9069 96.1643 19.1516 75.3417 10.0382C69.2987 7.47099 63.2557 4.41606 57.1772 1.33545" stroke="#D1DDE8" stroke-width="2" stroke-miterlimit="10"/>
<path d="M142.487 39.8442C119.449 36.7379 97.1909 25.8015 75.3404 15.6353C67.2063 11.8615 59.0725 7.47157 50.8853 3.03027" stroke="#D1DDE8" stroke-width="2" stroke-miterlimit="10"/>
<path d="M144.772 46.9551H144.311C120.618 44.1825 97.7037 32.2964 75.3393 21.2832C65.4508 16.4568 55.5448 10.7063 45.5322 5.10986" stroke="#D1DDE8" stroke-width="2" stroke-miterlimit="10"/>
<path d="M146.316 53.5786C145.643 53.5786 144.97 53.5273 144.296 53.4246C120.55 50.729 97.6533 38.3037 75.3421 27.0337C63.8941 21.2318 52.3046 14.1977 40.7148 7.52295" stroke="#D1DDE8" stroke-width="2" stroke-miterlimit="10"/>
<path d="M147.378 59.8174C146.35 59.8174 145.323 59.8174 144.277 59.612C120.477 57.0448 97.6164 44.2088 75.3406 32.7077C62.4571 26.033 49.4673 17.6639 36.3535 10.2446" stroke="#D1DDE8" stroke-width="2" stroke-miterlimit="10"/>
<path d="M81.2597 41.5132L75.3406 38.3811C61.0572 30.9104 46.5965 21.4116 31.8877 13.4531" stroke="#D1DDE8" stroke-width="2" stroke-miterlimit="10"/>
<path d="M105.574 53.6562C118.121 59.6996 131.109 63.6192 144.278 65.3366C145.554 65.3366 146.794 65.5163 148.052 65.542" stroke="#D1DDE8" stroke-width="2" stroke-miterlimit="10"/>
<path d="M109.793 60.7925C121.046 65.6998 132.611 68.951 144.314 70.4967C145.697 70.6507 147.061 70.7277 148.425 70.7534" stroke="#D1DDE8" stroke-width="2" stroke-miterlimit="10"/>
<path d="M27.3169 17.5352C42.0256 24.8261 56.4508 33.8884 70.7166 41.6157" stroke="#D1DDE8" stroke-width="2" stroke-miterlimit="10"/>
<path d="M111.83 66.647C122.457 70.9228 133.329 73.801 144.314 75.2467C145.731 75.4007 147.131 75.4777 148.531 75.5034" stroke="#D1DDE8" stroke-width="2" stroke-miterlimit="10"/>
<path d="M22.8501 22.4634C36.4956 28.4967 49.9284 36.1988 63.2195 43.3618" stroke="#D1DDE8" stroke-width="2" stroke-miterlimit="10"/>
<path d="M113.123 71.8828C123.407 75.6687 133.884 78.2444 144.454 79.5848C145.872 79.7388 147.272 79.8158 148.672 79.8672" stroke="#D1DDE8" stroke-width="2" stroke-miterlimit="10"/>
<path d="M18.6504 28.3945C31.6047 33.2978 44.3821 39.7928 57.0352 46.3647" stroke="#D1DDE8" stroke-width="2" stroke-miterlimit="10"/>
<path d="M113.798 76.7104C123.915 80.1277 134.191 82.4699 144.544 83.7184C145.909 83.8724 147.256 83.9494 148.603 83.9751" stroke="#D1DDE8" stroke-width="2" stroke-miterlimit="10"/>
<path d="M14.8574 35.3516C27.2624 39.2279 39.5611 44.5419 51.718 50.1382" stroke="#D1DDE8" stroke-width="2" stroke-miterlimit="10"/>
<path d="M11.561 43.2827C23.4875 46.2096 35.3254 50.3945 47.0038 55.0415" stroke="#D1DDE8" stroke-width="2" stroke-miterlimit="10"/>
<path d="M114.168 81.1504C124.226 84.2382 134.414 86.3482 144.666 87.4663C145.925 87.4663 147.183 87.6203 148.441 87.646" stroke="#D1DDE8" stroke-width="2" stroke-miterlimit="10"/>
<path d="M8.86816 52.1157C20.3516 54.1696 31.7821 57.2503 43.1238 60.9473" stroke="#D1DDE8" stroke-width="2" stroke-miterlimit="10"/>
<path d="M114.293 85.5142C124.371 88.2923 134.556 90.1787 144.792 91.1626C145.926 91.1626 147.06 91.1626 148.194 91.291" stroke="#D1DDE8" stroke-width="2" stroke-miterlimit="10"/>
<path d="M114.151 89.6743C124.335 92.1368 134.605 93.7819 144.915 94.6021C145.907 94.6021 146.9 94.6021 147.875 94.6021" stroke="#D1DDE8" stroke-width="2" stroke-miterlimit="10"/>
<path d="M6.75879 61.7427C17.941 63.0777 29.1057 65.1829 40.1993 67.9043" stroke="#D1DDE8" stroke-width="2" stroke-miterlimit="10"/>
<path d="M5.27148 71.8828C16.2351 72.5675 27.1866 73.7912 38.1266 75.5542" stroke="#D1DDE8" stroke-width="2" stroke-miterlimit="10"/>
<path d="M113.602 93.6787C124.048 95.8769 134.564 97.3075 145.11 97.9648C145.908 97.9648 146.705 97.9648 147.52 97.9648" stroke="#D1DDE8" stroke-width="2" stroke-miterlimit="10"/>
<path d="M4.33252 82.4346C15.1957 82.4346 26.0765 82.871 36.9397 83.6924" stroke="#D1DDE8" stroke-width="2" stroke-miterlimit="10"/>
<path d="M146.934 101.252H145.162C134.192 100.816 123.294 99.4807 112.431 97.6318" stroke="#D1DDE8" stroke-width="2" stroke-miterlimit="10"/>
<path d="M146.297 104.487C145.978 104.487 145.659 104.487 145.358 104.487C133.768 104.23 122.32 103.126 110.783 101.508" stroke="#D1DDE8" stroke-width="2" stroke-miterlimit="10"/>
<path d="M145.499 107.773C133.094 107.773 120.689 106.823 108.373 105.462" stroke="#D1DDE8" stroke-width="2" stroke-miterlimit="10"/>
<path d="M144.543 111.137C131.358 111.137 118.262 110.623 105.166 109.57" stroke="#D1DDE8" stroke-width="2" stroke-miterlimit="10"/>
<path d="M143.285 114.662C129.107 114.964 115.107 114.662 101.037 113.934" stroke="#D1DDE8" stroke-width="2" stroke-miterlimit="10"/>
<path d="M141.956 118.196C126.645 118.423 111.316 118.6 96.0044 118.474" stroke="#D1DDE8" stroke-width="2" stroke-miterlimit="10"/>
<path d="M89.3057 123.678C106.07 123.678 122.817 123.325 139.563 123.124" stroke="#D1DDE8" stroke-width="2" stroke-miterlimit="10"/>
<path d="M81.4741 129.235C100.188 128.67 118.884 127.771 137.598 126.667" stroke="#D1DDE8" stroke-width="2" stroke-miterlimit="10"/>
<path d="M72.3633 135.422C73.3734 135.422 74.3657 135.166 75.3936 135.114C95.1529 134.216 114.877 132.726 134.619 131.52" stroke="#D1DDE8" stroke-width="2" stroke-miterlimit="10"/>
<path d="M60.0488 144.33C65.054 142.343 70.1941 141.155 75.3777 140.787C93.8611 139.786 112.327 137.938 130.792 136.628" stroke="#D1DDE8" stroke-width="2" stroke-miterlimit="10"/>
<path d="M125.793 142.25C108.994 143.611 92.1229 145.537 75.3762 146.461C63.6801 147.103 53.0121 152.956 42.4502 159.297" stroke="#D1DDE8" stroke-width="2" stroke-miterlimit="10"/>
<path d="M118.917 148.874C104.439 150.132 89.9602 151.57 75.4641 152.211C59.5149 152.905 45.5327 163.225 31.1606 171.594" stroke="#D1DDE8" stroke-width="2" stroke-miterlimit="10"/>
<path d="M109.953 156.088C98.4339 156.986 86.915 157.808 75.3961 158.116C57.2671 158.604 41.4773 171.491 24.8369 180.015" stroke="#D1DDE8" stroke-width="2" stroke-miterlimit="10"/>
<path d="M100.33 163.302C92.0187 163.738 83.7073 164.046 75.3782 164.098C55.7606 164.098 38.7304 178.731 20.4419 186.818" stroke="#D1DDE8" stroke-width="2" stroke-miterlimit="10"/>
<path d="M91.4138 170.336C86.0973 170.336 80.7808 170.336 75.3758 170.336C54.6595 169.849 36.6194 185.406 17.1436 192.851" stroke="#D1DDE8" stroke-width="2" stroke-miterlimit="10"/>
<path d="M83.4751 176.935C80.746 176.935 78.0344 176.729 75.3053 176.575C53.8093 175.343 34.9364 191.311 14.5391 198.011" stroke="#D1DDE8" stroke-width="2" stroke-miterlimit="10"/>
<path d="M77.2034 183.019L75.4313 182.89C53.3682 180.837 33.7507 196.779 12.6445 202.71" stroke="#D1DDE8" stroke-width="2" stroke-miterlimit="10"/>
<path d="M71.6017 188.974C50.6018 188.075 31.3564 202.17 10.8882 206.945" stroke="#D1DDE8" stroke-width="2" stroke-miterlimit="10"/>
<path d="M66.338 195.084C46.9508 195.598 28.6621 207.356 9.45215 211.232" stroke="#D1DDE8" stroke-width="2" stroke-miterlimit="10"/>
<path d="M8.16016 215.211C26.2891 212.207 43.7271 202.375 61.8383 201.271" stroke="#D1DDE8" stroke-width="2" stroke-miterlimit="10"/>
<path d="M7.02588 219.062C24.2511 216.752 40.9975 208.793 58.1163 207.355" stroke="#D1DDE8" stroke-width="2" stroke-miterlimit="10"/>
<path d="M6.0166 222.861C22.4798 221.115 38.6415 214.492 54.9983 213.234" stroke="#D1DDE8" stroke-width="2" stroke-miterlimit="10"/>
<path d="M5.09326 226.687C20.9539 225.403 36.6195 219.883 52.3561 218.985" stroke="#D1DDE8" stroke-width="2" stroke-miterlimit="10"/>
<path d="M149.753 234.491C148.991 234.491 148.229 234.491 147.467 234.491C136.994 234.106 126.609 233.182 116.295 231.616" stroke="#D1DDE8" stroke-width="2" stroke-miterlimit="10"/>
<path d="M149.755 242.886C149.046 242.886 148.337 242.886 147.61 242.886C126.603 242.066 105.7 238.291 85.1958 231.616" stroke="#D1DDE8" stroke-width="2" stroke-miterlimit="10"/>
<path d="M4.26074 230.563C19.4125 229.665 34.3872 225.249 49.5212 224.453" stroke="#D1DDE8" stroke-width="2" stroke-miterlimit="10"/>
<path d="M3.53516 234.542C17.7123 233.951 31.7477 230.588 45.7831 229.895" stroke="#D1DDE8" stroke-width="2" stroke-miterlimit="10"/>
<path d="M149.753 251.151C149.08 251.151 148.407 251.151 147.733 251.151C123.225 250.006 98.9115 244.426 75.3589 234.542C72.5303 233.335 69.6545 232.375 66.7466 231.667" stroke="#D1DDE8" stroke-width="2" stroke-miterlimit="10"/>
<path d="M2.87891 238.65C15.5851 238.291 31.6405 235.775 44.2935 235.108" stroke="#D1DDE8" stroke-width="2" stroke-miterlimit="10"/>
<path d="M149.753 259.136C149.115 259.136 148.477 259.136 147.839 259.136C123.223 257.793 98.8436 251.653 75.3586 240.883C65.293 236.503 54.7946 234.577 44.293 235.184" stroke="#D1DDE8" stroke-width="2" stroke-miterlimit="10"/>
<path d="M149.753 266.812H147.981C123.265 265.308 98.8271 258.677 75.4116 247.121C51.6472 235.209 26.9082 242.577 2.38184 243.039" stroke="#D1DDE8" stroke-width="2" stroke-miterlimit="10"/>
<path d="M149.754 274.103H147.982C123.17 272.536 98.668 265.489 75.3243 253.206C51.5422 240.601 26.5197 247.199 1.85156 247.558" stroke="#D1DDE8" stroke-width="2" stroke-miterlimit="10"/>
<path d="M115.516 275.489C101.813 271.857 88.3703 266.4 75.3595 259.187C51.5774 245.941 26.3246 251.948 1.51465 252.359" stroke="#D1DDE8" stroke-width="2" stroke-miterlimit="10"/>
<path d="M96.8013 275.489C89.5401 272.543 82.3887 269.056 75.376 265.04C51.5939 251.357 26.1463 256.954 1.22998 257.519" stroke="#D1DDE8" stroke-width="2" stroke-miterlimit="10"/>
<path d="M84.0597 275.489C81.1534 274 78.2468 272.434 75.376 270.766C51.5584 257.007 26.022 262.346 1.07031 263.065" stroke="#D1DDE8" stroke-width="2" stroke-miterlimit="10"/>
<path d="M73.7464 275.49C50.3364 263.372 25.3846 268.147 1 268.738" stroke="#D1DDE8" stroke-width="2" stroke-miterlimit="10"/>
<path d="M58.3998 275.489C39.5797 271.125 20.1037 273.974 1 274.334" stroke="#D1DDE8" stroke-width="2" stroke-miterlimit="10"/>
</svg>
