<svg width="149" height="281" viewBox="0 0 149 281" fill="none" xmlns="http://www.w3.org/2000/svg">
<path d="M92.7126 2.81348C98.985 5.09546 105.292 7.25206 111.634 9.13281" stroke="#D1DDE8" stroke-width="2" stroke-miterlimit="10"/>
<path d="M74.4667 1.60986H74.7095C91.2569 8.3303 108.03 15.4519 125.062 19.5645" stroke="#D1DDE8" stroke-width="2" stroke-miterlimit="10"/>
<path d="M131.368 27.8906C112.101 23.8534 93.2488 15.3526 74.7261 7.15268C71.2607 5.62304 67.7953 4.01816 64.3298 2.31299" stroke="#D1DDE8" stroke-width="2" stroke-miterlimit="10"/>
<path d="M135.285 35.6392C114.596 31.8275 94.4449 21.9723 74.64 12.8193C68.7141 10.0609 62.7708 6.95135 56.793 3.7666" stroke="#D1DDE8" stroke-width="2" stroke-miterlimit="10"/>
<path d="M137.953 42.7607C116.277 39.2249 95.2587 28.3667 74.7087 18.361C66.7382 14.4741 58.7328 9.96029 50.6757 5.42139" stroke="#D1DDE8" stroke-width="2" stroke-miterlimit="10"/>
<path d="M139.739 49.3818C117.387 46.2221 95.7796 34.5612 74.7098 23.9284C64.9546 18.913 55.1474 13.0951 45.2536 7.37744" stroke="#D1DDE8" stroke-width="2" stroke-miterlimit="10"/>
<path d="M140.899 55.6006C118.079 52.8421 96.1087 40.5545 74.727 29.4956C63.3777 23.6025 51.9243 16.3804 40.3151 9.70996" stroke="#D1DDE8" stroke-width="2" stroke-miterlimit="10"/>
<path d="M101.133 48.5039C114.219 55.052 127.793 59.3445 141.574 61.2925" stroke="#D1DDE8" stroke-width="2" stroke-miterlimit="10"/>
<path d="M81.9866 38.8486L74.7267 35.0369C61.8353 28.2913 48.7358 19.8654 35.5498 12.4678" stroke="#D1DDE8" stroke-width="2" stroke-miterlimit="10"/>
<path d="M107.301 56.4531C118.586 61.4973 130.198 64.8584 141.956 66.4839" stroke="#D1DDE8" stroke-width="2" stroke-miterlimit="10"/>
<path d="M30.6292 16.105C44.2829 23.1013 57.7285 31.4769 71.0184 38.6738" stroke="#D1DDE8" stroke-width="2" stroke-miterlimit="10"/>
<path d="M25.759 20.543C38.6678 26.436 51.3686 33.7083 63.8788 40.6045" stroke="#D1DDE8" stroke-width="2" stroke-miterlimit="10"/>
<path d="M110.144 62.522C120.592 66.7237 131.279 69.5605 142.078 70.998" stroke="#D1DDE8" stroke-width="2" stroke-miterlimit="10"/>
<path d="M111.841 67.813C121.764 71.4893 131.875 74.0053 142.077 75.3364" stroke="#D1DDE8" stroke-width="2" stroke-miterlimit="10"/>
<path d="M21.0468 25.96C33.5916 30.8248 45.9631 37.1693 58.1787 43.5137" stroke="#D1DDE8" stroke-width="2" stroke-miterlimit="10"/>
<path d="M112.759 72.5786C122.351 75.8109 132.091 78.0398 141.904 79.248" stroke="#D1DDE8" stroke-width="2" stroke-miterlimit="10"/>
<path d="M16.6983 32.4043C28.9139 36.3163 40.9562 41.6076 52.9465 47.1245" stroke="#D1DDE8" stroke-width="2" stroke-miterlimit="10"/>
<path d="M12.8521 39.9272C24.7731 42.8863 36.6075 47.1243 48.3033 51.7886" stroke="#D1DDE8" stroke-width="2" stroke-miterlimit="10"/>
<path d="M113.142 77.0156C122.498 79.9026 131.972 81.9214 141.506 83.0596" stroke="#D1DDE8" stroke-width="2" stroke-miterlimit="10"/>
<path d="M9.66364 48.4287C21.3421 50.51 32.9688 53.7196 44.4914 57.481" stroke="#D1DDE8" stroke-width="2" stroke-miterlimit="10"/>
<path d="M113.192 81.1543C122.357 83.6595 131.613 85.4094 140.916 86.3955" stroke="#D1DDE8" stroke-width="2" stroke-miterlimit="10"/>
<path d="M7.28998 57.7827C18.6393 59.1116 29.954 61.2931 41.2167 64.0513" stroke="#D1DDE8" stroke-width="2" stroke-miterlimit="10"/>
<path d="M140.328 89.7056C131.184 88.8663 122.076 87.3597 113.037 85.1914" stroke="#D1DDE8" stroke-width="2" stroke-miterlimit="10"/>
<path d="M112.639 89.1543C121.545 90.9342 130.486 92.288 139.478 92.9648" stroke="#D1DDE8" stroke-width="2" stroke-miterlimit="10"/>
<path d="M5.71246 67.7124C16.6979 68.3896 27.7006 69.5936 38.6341 71.3745" stroke="#D1DDE8" stroke-width="2" stroke-miterlimit="10"/>
<path d="M138.387 96.125C129.55 95.5984 120.748 94.4951 111.963 93.0156" stroke="#D1DDE8" stroke-width="2" stroke-miterlimit="10"/>
<path d="M4.88135 78.0444C15.5895 78.1948 26.3498 78.4706 37.058 79.2979" stroke="#D1DDE8" stroke-width="2" stroke-miterlimit="10"/>
<path d="M111.026 96.9028C119.69 98.0813 128.44 98.9588 137.208 99.4102" stroke="#D1DDE8" stroke-width="2" stroke-miterlimit="10"/>
<path d="M109.502 100.839C118.166 101.742 126.829 102.394 135.493 102.669" stroke="#D1DDE8" stroke-width="2" stroke-miterlimit="10"/>
<path d="M107.458 104.851C116.121 105.478 124.785 105.929 133.604 106.055" stroke="#D1DDE8" stroke-width="2" stroke-miterlimit="10"/>
<path d="M104.582 109.039C113.436 109.408 122.307 109.654 131.179 109.654" stroke="#D1DDE8" stroke-width="2" stroke-miterlimit="10"/>
<path d="M128.354 113.152C118.951 113.248 109.543 113.248 100.128 113.152" stroke="#D1DDE8" stroke-width="2" stroke-miterlimit="10"/>
<path d="M123.156 117.966C111.824 118.114 100.492 118.237 89.1603 118.335" stroke="#D1DDE8" stroke-width="2" stroke-miterlimit="10"/>
<path d="M61.9912 119.923H75.4371C80.0405 119.984 84.6384 119.456 89.1774 118.343" stroke="#D1DDE8" stroke-width="2" stroke-miterlimit="10"/>
<path d="M116.225 122.355C102.363 123.007 88.6229 123.609 74.7958 123.96C70.3378 124.123 65.8972 124.836 61.5229 126.092" stroke="#D1DDE8" stroke-width="2" stroke-miterlimit="10"/>
<path d="M112.135 127.322C99.677 128.149 87.2364 128.951 74.7782 129.528C70.3439 129.763 65.9347 130.602 61.6094 132.035" stroke="#D1DDE8" stroke-width="2" stroke-miterlimit="10"/>
<path d="M124.248 131.333C107.752 132.561 91.3265 134.166 74.7618 135.069C70.3614 135.345 65.9908 136.252 61.7144 137.777" stroke="#D1DDE8" stroke-width="2" stroke-miterlimit="10"/>
<path d="M130.641 135.997C112.015 137.301 93.3879 139.583 74.7612 140.586C70.3923 140.871 66.0552 141.804 61.8179 143.37" stroke="#D1DDE8" stroke-width="2" stroke-miterlimit="10"/>
<path d="M136.012 141.514C115.583 142.818 95.2066 145.301 74.7606 146.203C70.4325 146.397 66.1296 147.237 61.9209 148.711" stroke="#D1DDE8" stroke-width="2" stroke-miterlimit="10"/>
<path d="M88.8477 151.344C105.915 150.366 122.948 148.686 140.015 147.708" stroke="#D1DDE8" stroke-width="2" stroke-miterlimit="10"/>
<path d="M103.524 156.86C116.675 156.108 129.809 155.08 142.995 154.353" stroke="#D1DDE8" stroke-width="2" stroke-miterlimit="10"/>
<path d="M110.733 163.306C121.874 162.779 133.033 162.102 144.243 161.5H145.3" stroke="#D1DDE8" stroke-width="2" stroke-miterlimit="10"/>
<path d="M146.98 169.625C136.237 170.046 125.494 170.418 114.751 170.616" stroke="#D1DDE8" stroke-width="2" stroke-miterlimit="10"/>
<path d="M147.917 176.346C137.52 176.872 127.02 177.324 116.572 177.499" stroke="#D1DDE8" stroke-width="2" stroke-miterlimit="10"/>
<path d="M26.7999 190.615C19.813 193.855 12.6222 196.089 5.33179 197.284C3.87631 197.46 2.43815 197.56 1 197.61" stroke="#D1DDE8" stroke-width="2" stroke-miterlimit="10"/>
<path d="M32.8814 192.319C23.8028 196.588 14.4515 199.529 4.96755 201.097C3.71999 201.247 2.47216 201.322 1.22461 201.373" stroke="#D1DDE8" stroke-width="2" stroke-miterlimit="10"/>
<path d="M117.438 185.264C126.449 185.264 135.476 185.264 144.573 184.969C145.907 184.969 147.241 184.969 148.593 184.796" stroke="#D1DDE8" stroke-width="2" stroke-miterlimit="10"/>
<path d="M33.297 196.557C23.9342 200.535 14.3425 203.279 4.63823 204.758C3.61593 204.758 2.59359 204.758 1.57129 204.933" stroke="#D1DDE8" stroke-width="2" stroke-miterlimit="10"/>
<path d="M117.386 192.972C126.465 193.291 135.545 193.34 144.693 193.193C146.08 193.193 147.449 193.193 148.835 193.045" stroke="#D1DDE8" stroke-width="2" stroke-miterlimit="10"/>
<path d="M116.381 200.695C125.825 201.284 135.302 201.529 144.85 201.505C146.132 201.505 147.414 201.505 148.696 201.505" stroke="#D1DDE8" stroke-width="2" stroke-miterlimit="10"/>
<path d="M34.0252 200.695C24.218 203.981 14.3933 207.441 4.32622 208.369C3.54649 208.369 2.76703 208.369 1.9873 208.369" stroke="#D1DDE8" stroke-width="2" stroke-miterlimit="10"/>
<path d="M35.0814 204.833C24.789 207.792 14.4794 211.153 3.89248 211.956C3.40732 211.956 2.90508 211.956 2.41992 211.956" stroke="#D1DDE8" stroke-width="2" stroke-miterlimit="10"/>
<path d="M114.267 208.293C124.455 209.296 134.661 209.798 144.971 209.898C146.028 209.898 147.067 209.898 148.107 209.898" stroke="#D1DDE8" stroke-width="2" stroke-miterlimit="10"/>
<path d="M36.5208 208.971C25.6047 211.478 14.6886 214.838 3.59925 215.541H3.06201" stroke="#D1DDE8" stroke-width="2" stroke-miterlimit="10"/>
<path d="M110.803 215.592C122.169 217.171 133.57 218.099 145.11 218.274C145.734 218.274 146.34 218.274 146.964 218.274" stroke="#D1DDE8" stroke-width="2" stroke-miterlimit="10"/>
<path d="M106.02 222.312C119.007 224.715 132.072 226.146 145.161 226.601" stroke="#D1DDE8" stroke-width="2" stroke-miterlimit="10"/>
<path d="M3.80762 219.127C15.4688 218.501 27.0257 215.316 38.5829 213.159" stroke="#D1DDE8" stroke-width="2" stroke-miterlimit="10"/>
<path d="M4.63867 222.789C16.9063 222.136 29.1044 219.076 41.2681 217.521" stroke="#D1DDE8" stroke-width="2" stroke-miterlimit="10"/>
<path d="M99.4175 228.154C113.743 231.687 128.214 233.848 142.735 234.625" stroke="#D1DDE8" stroke-width="2" stroke-miterlimit="10"/>
<path d="M5.67822 226.575C18.7949 225.898 31.8945 222.889 44.9418 222.137" stroke="#D1DDE8" stroke-width="2" stroke-miterlimit="10"/>
<path d="M91.0835 232.719C107.042 237.885 123.27 241.114 139.6 242.374" stroke="#D1DDE8" stroke-width="2" stroke-miterlimit="10"/>
<path d="M50.6597 227.253C36.1742 226.651 21.5328 229.76 6.90869 230.537" stroke="#D1DDE8" stroke-width="2" stroke-miterlimit="10"/>
<path d="M80.5127 235.276C98.4893 242.877 116.97 247.71 135.648 249.696" stroke="#D1DDE8" stroke-width="2" stroke-miterlimit="10"/>
<path d="M130.831 256.442C111.727 253.765 92.9046 247.873 74.7434 238.888C53.1538 228.08 30.7498 233.521 8.44971 234.725" stroke="#D1DDE8" stroke-width="2" stroke-miterlimit="10"/>
<path d="M125.114 262.536C107.923 259.348 91.0299 253.41 74.7439 244.83C53.9514 233.745 32.0322 237.833 10.3213 239.037" stroke="#D1DDE8" stroke-width="2" stroke-miterlimit="10"/>
<path d="M118.426 267.826C103.501 264.285 88.8641 258.546 74.7445 250.699C54.7143 239.565 33.5923 242.373 12.6265 243.627" stroke="#D1DDE8" stroke-width="2" stroke-miterlimit="10"/>
<path d="M111.027 272.115C98.603 268.439 86.4269 263.186 74.6402 256.416C55.5803 245.457 35.3942 247.162 15.312 248.441" stroke="#D1DDE8" stroke-width="2" stroke-miterlimit="10"/>
<path d="M103.42 275.324C93.6576 271.861 84.0751 267.412 74.7433 262.009C56.8097 251.652 37.8539 252.379 18.9326 253.583" stroke="#D1DDE8" stroke-width="2" stroke-miterlimit="10"/>
<path d="M95.8655 277.431C88.7614 274.606 81.7209 271.262 74.7439 267.4C58.1964 258.246 40.8344 258.046 23.438 258.923" stroke="#D1DDE8" stroke-width="2" stroke-miterlimit="10"/>
<path d="M87.4451 278.811C83.1999 276.93 78.9551 274.949 74.7446 272.742C60.0858 265.018 44.8203 263.964 29.4512 264.341" stroke="#D1DDE8" stroke-width="2" stroke-miterlimit="10"/>
<path d="M77.759 279.312C76.7541 278.835 75.7491 278.384 74.7441 277.882C62.6151 271.888 50.2607 270.158 37.7158 269.907" stroke="#D1DDE8" stroke-width="2" stroke-miterlimit="10"/>
</svg>
