<svg width="60" height="35" viewBox="0 0 60 35" fill="none" xmlns="http://www.w3.org/2000/svg">
<path d="M60 14.8566C57.0347 13.4559 54.9412 12.0392 53.1205 9.93823C51.2998 7.83727 49.6511 4.96354 47.6287 0.351074L45.725 2.97527C47.8719 7.88557 49.7934 11.3228 52.0233 13.8987C52.3495 14.269 52.6875 14.5748 53.0256 14.9049H0V19.6381H53.0256C52.6875 19.9681 52.3495 20.274 52.0233 20.6443C49.7934 23.2202 47.8719 26.6574 45.725 31.5677L47.6287 34.1919C49.6511 29.5794 51.3057 26.6896 53.1205 24.6047C54.9353 22.5199 57.0228 21.087 60 19.6864L59.8814 17.2715L60 14.8566Z" fill="#0A1B16"/>
</svg>
