<svg width="60" height="35" viewBox="0 0 60 35" fill="none" xmlns="http://www.w3.org/2000/svg">
<path d="M0 14.8566C2.96531 13.4559 5.05882 12.0392 6.87951 9.93823C8.70021 7.83727 10.3489 4.96354 12.3713 0.351074L14.275 2.97527C12.1281 7.88557 10.2066 11.3228 7.97668 13.8987C7.65049 14.269 7.31245 14.5748 6.9744 14.9049H60V19.6381H6.9744C7.31245 19.9681 7.65049 20.274 7.97668 20.6443C10.2066 23.2202 12.1281 26.6574 14.275 31.5677L12.3713 34.1919C10.3489 29.5794 8.69428 26.6896 6.87951 24.6047C5.06475 22.5199 2.97717 21.087 0 19.6864L0.118618 17.2715L0 14.8566Z" fill="#0A1B16"/>
</svg>
