<svg width="97" height="14" viewBox="0 0 97 14" fill="none" xmlns="http://www.w3.org/2000/svg">
<path d="M0.105672 5.84551C0.592229 5.79103 1.04136 5.76661 1.53133 5.73996C2.02129 5.71332 2.46702 5.66107 2.95358 5.60658C4.00835 5.49318 5.01889 5.35416 6.07367 5.24075C8.06073 5.02061 10.0886 4.79825 12.0859 4.66162C13.9164 4.50603 15.7913 4.37606 17.6286 4.27615C18.1186 4.24951 18.6086 4.22287 19.0577 4.19845C20.8985 4.12637 22.7358 4.02646 24.5766 3.95439C28.874 3.80478 33.2123 3.65295 37.5165 3.55902C41.7391 3.46953 45.9617 3.38004 50.1468 3.32061C52.1986 3.29311 54.2912 3.2634 56.3429 3.2359C58.6022 3.22514 60.8173 3.18877 63.0766 3.17801C67.7211 3.17767 72.3214 3.15171 76.9659 3.15138C80.9946 3.1565 84.9926 3.24736 89.0009 3.42174C91.6039 3.53241 94.1729 3.70098 96.7452 3.89739C93.8633 4.19422 90.9303 4.40975 87.994 4.59744C86.0749 4.70179 84.1525 4.7783 82.2709 4.8526C81.0426 4.89136 79.8108 4.90229 78.5383 4.91544C77.7591 4.92979 77.0173 4.91408 76.2755 4.89836C74.2578 4.86796 72.2027 4.86762 70.1849 4.83722C67.8405 4.82458 65.5336 4.78188 63.1892 4.76924C60.804 4.75882 58.378 4.75062 55.9928 4.7402C53.8559 4.7443 51.6783 4.75062 49.5006 4.75694C47.4047 4.75882 45.2713 4.79075 43.1787 4.82047C41.0453 4.8524 38.9527 4.88212 36.8193 4.91406C34.6451 4.94822 32.5184 5.03583 30.3476 5.09782C26.4143 5.19961 22.4911 5.38491 18.5272 5.57243C16.3223 5.69233 14.1515 5.75432 11.9398 5.81854C9.76899 5.88053 7.59817 5.94252 5.46476 5.97446C4.60391 5.99325 3.70225 6.01425 2.83799 6.0052C2.42628 5.99957 1.97372 5.99615 1.5586 5.96268C1.18431 5.92698 0.806601 5.86345 0.435719 5.85559C0.313228 5.86225 0.187333 5.84107 0.105672 5.84551C0.0648412 5.84773 0.0648412 5.84773 0.105672 5.84551Z" fill="#161616"/>
<path d="M96.4164 4.2686C95.923 4.2701 95.4738 4.29698 94.9838 4.3263C94.4938 4.35563 94.0413 4.35469 93.548 4.35619C92.4796 4.36408 91.4487 4.3417 90.3803 4.34959C88.3661 4.35804 86.311 4.36894 84.3068 4.46085C82.4626 4.51517 80.5809 4.59976 78.7434 4.70972C78.2534 4.73904 77.7634 4.76836 77.3143 4.79524C75.4801 4.93302 73.6426 5.04298 71.8085 5.18076C67.531 5.5208 63.2128 5.86328 58.942 6.25896C54.753 6.64975 50.5639 7.04055 46.4191 7.45672C44.3875 7.66236 42.315 7.87044 40.2834 8.07608C38.051 8.32177 35.8561 8.53718 33.6236 8.78286C29.0397 9.30938 24.4932 9.80563 19.9092 10.3321C15.9343 10.7942 12.0104 11.3372 8.09654 11.9638C5.55423 12.3681 3.05945 12.8256 0.56803 13.311C3.48396 13.2766 6.43067 13.1563 9.37402 13.0082C11.2932 12.8933 13.209 12.7507 15.084 12.6104C16.3056 12.5093 17.5239 12.3804 18.783 12.249C19.5555 12.1747 20.2838 12.0751 21.0121 11.9755C22.9962 11.7166 25.0244 11.4832 27.0085 11.2243C29.3192 10.9459 31.5858 10.6422 33.8965 10.3638C36.248 10.0829 38.6404 9.79967 40.992 9.51884C43.1019 9.28049 45.2527 9.0397 47.4034 8.79891C49.4725 8.563 51.5857 8.35247 53.6582 8.14439C55.7715 7.93386 57.8439 7.72577 59.9572 7.51525C62.1113 7.30227 64.2313 7.14738 66.3887 6.96223C70.2953 6.61637 74.2119 6.35396 78.1694 6.08912C80.3744 5.95716 82.5319 5.77201 84.7302 5.58442C86.8876 5.39927 89.0451 5.21411 91.1583 5.00358C92.0125 4.92445 92.9075 4.84287 93.7582 4.73591C94.1632 4.68366 94.6091 4.62896 95.0107 4.54888C95.3715 4.47124 95.7289 4.36579 96.0931 4.31597C96.2156 4.30864 96.3347 4.27349 96.4164 4.2686C96.4572 4.26616 96.4572 4.26616 96.4164 4.2686Z" fill="#161616"/>
</svg>
