<?xml version="1.0" encoding="UTF-8"?>
<svg width="28px" height="20px" viewBox="0 0 28 20" version="1.1" xmlns="http://www.w3.org/2000/svg" xmlns:xlink="http://www.w3.org/1999/xlink">
    <!-- Generator: Sketch 59.1 (86144) - https://sketch.com -->
    <title>GB</title>
    <desc>Created with Sketch.</desc>
    <defs>
        <rect id="path-1" x="0" y="0" width="28" height="20" rx="4"></rect>
        <rect id="path-3" x="0" y="0" width="28" height="20" rx="4"></rect>
        <rect id="path-5" x="0" y="0" width="28" height="20" rx="4"></rect>
        <rect id="path-7" x="0" y="0" width="28" height="20" rx="4"></rect>
    </defs>
    <g id="Page-1" stroke="none" stroke-width="1" fill="none" fill-rule="evenodd">
        <g id="Artboard" transform="translate(-123.000000, -241.000000)">
            <g id="GB" transform="translate(123.000000, 241.000000)">
                <g id="Mask" fill="#FFFFFF" fill-rule="nonzero">
                    <rect id="path-1" x="0" y="0" width="28" height="20" rx="4"></rect>
                </g>
                <g id="Mask-Copy-Clipped">
                    <mask id="mask-2" fill="white">
                        <use xlink:href="#path-1"></use>
                    </mask>
                    <g id="path-1"></g>
                    <rect id="Mask-Copy" fill="#535BC2" fill-rule="nonzero" mask="url(#mask-2)" x="0" y="0" width="28" height="20"></rect>
                </g>
                <g id="Rectangle-2-Clipped">
                    <mask id="mask-4" fill="white">
                        <use xlink:href="#path-3"></use>
                    </mask>
                    <g id="path-1"></g>
                    <polygon id="Rectangle-2" fill="#FFFFFF" fill-rule="nonzero" mask="url(#mask-4)" points="29.2824692 -1.91644623 30.7736503 0.29432063 21.3253497 6.66655377 28 6.66666667 28 13.3333333 21.3253497 13.3325538 30.7736503 19.7056794 29.2824692 21.9164462 17.3323497 13.8555538 17.3333333 21.3333333 10.6666667 21.3333333 10.6663497 13.8555538 -1.2824692 21.9164462 -2.77365027 19.7056794 6.67434973 13.3325538 4.4408921e-16 13.3333333 4.4408921e-16 6.66666667 6.67434973 6.66655377 -2.77365027 0.29432063 -1.2824692 -1.91644623 10.6663497 6.14355377 10.6666667 -1.33333333 17.3333333 -1.33333333 17.3323497 6.14355377"></polygon>
                </g>
                <mask id="mask-6" fill="white">
                    <use xlink:href="#path-5"></use>
                </mask>
                <g id="path-1"></g>
                <line x1="18.6679688" y1="6.33219401" x2="26.7610677" y2="1.24479167" id="Line" stroke="#DB1F35" stroke-width="0.666666667" stroke-linecap="round" mask="url(#mask-6)"></line>
                <line x1="9.29003906" y1="17.9576817" x2="1.59895833" y2="13.6048985" id="Line-Copy-3" stroke="#DB1F35" stroke-width="0.666666667" stroke-linecap="round" mask="url(#mask-6)" transform="translate(5.444499, 15.781290) scale(-1, 1) rotate(-180.000000) translate(-5.444499, -15.781290) "></line>
                <line x1="20.0127767" y1="17.9576817" x2="25.6896973" y2="13.6975102" id="Line-Copy-2" stroke="#DB1F35" stroke-width="0.666666667" stroke-linecap="round" mask="url(#mask-6)" transform="translate(22.851237, 15.827596) scale(-1, 1) rotate(-180.000000) translate(-22.851237, -15.827596) "></line>
                <line x1="8.00553385" y1="6.31046549" x2="1.59895833" y2="1.24479167" id="Line-Copy" stroke="#DB1F35" stroke-width="0.666666667" stroke-linecap="round" mask="url(#mask-6)"></line>
                <polygon id="Rectangle-2-Copy-3" fill="#F24D4C" fill-rule="nonzero" mask="url(#mask-6)" points="0 12 12 12 12 20 16 20 16 12 28 12 28 8 16 8 16 0 12 0 12 8 0 8"></polygon>
                <mask id="mask-8" fill="white">
                    <use xlink:href="#path-7"></use>
                </mask>
                <rect stroke-opacity="0.5" stroke="#7B8FA4" x="0.5" y="0.5" width="27" height="19" rx="4"></rect>
                <g id="Rectangle-2-Copy-3-Clipped" mask="url(#mask-8)"></g>
            </g>
        </g>
    </g>
</svg>