<svg width="22" height="22" viewBox="0 0 22 22" fill="none" xmlns="http://www.w3.org/2000/svg">
<path d="M10.8669 21.7173C13.6934 21.7173 16.4041 20.5884 18.4027 18.5791C20.4014 16.5698 21.5242 13.8446 21.5242 11.003C21.5242 8.16138 20.4014 5.43616 18.4027 3.42684C16.4041 1.41752 13.6934 0.288696 10.8669 0.288696C8.0404 0.288696 5.32967 1.41752 3.33104 3.42684C1.33241 5.43616 0.209595 8.16138 0.209595 11.003C0.209595 13.8446 1.33241 16.5698 3.33104 18.5791C5.32967 20.5884 8.0404 21.7173 10.8669 21.7173ZM12.1058 9.11191L10.7736 15.4132C10.6804 15.8686 10.8123 16.1271 11.1786 16.1271C11.4371 16.1271 11.8274 16.0333 12.0925 15.7976L11.9752 16.3548C11.5929 16.8182 10.7497 17.1557 10.0236 17.1557C9.08712 17.1557 8.6888 16.5905 8.94724 15.3891L9.93038 10.7445C10.0156 10.3521 9.93837 10.2101 9.54805 10.115L8.94724 10.0066L9.05648 9.49629L12.1071 9.11191H12.1058ZM10.8669 7.65477C10.5136 7.65477 10.1747 7.51366 9.92491 7.2625C9.67508 7.01133 9.53473 6.67068 9.53473 6.31548C9.53473 5.96028 9.67508 5.61963 9.92491 5.36846C10.1747 5.1173 10.5136 4.9762 10.8669 4.9762C11.2202 4.9762 11.559 5.1173 11.8089 5.36846C12.0587 5.61963 12.1991 5.96028 12.1991 6.31548C12.1991 6.67068 12.0587 7.01133 11.8089 7.2625C11.559 7.51366 11.2202 7.65477 10.8669 7.65477Z" fill="#3767CD"/>
</svg>
