<svg width="17" height="17" viewBox="0 0 17 17" fill="none" xmlns="http://www.w3.org/2000/svg">
<path d="M7.70834 13.2502H9.29168V11.6668H7.70834V13.2502ZM8.50001 0.583496C4.13001 0.583496 0.583344 4.13016 0.583344 8.50016C0.583344 12.8702 4.13001 16.4168 8.50001 16.4168C12.87 16.4168 16.4167 12.8702 16.4167 8.50016C16.4167 4.13016 12.87 0.583496 8.50001 0.583496ZM8.50001 14.8335C5.00876 14.8335 2.16668 11.9914 2.16668 8.50016C2.16668 5.00891 5.00876 2.16683 8.50001 2.16683C11.9913 2.16683 14.8333 5.00891 14.8333 8.50016C14.8333 11.9914 11.9913 14.8335 8.50001 14.8335ZM8.50001 3.75016C6.75043 3.75016 5.33334 5.16725 5.33334 6.91683H6.91668C6.91668 6.046 7.62918 5.3335 8.50001 5.3335C9.37084 5.3335 10.0833 6.046 10.0833 6.91683C10.0833 8.50016 7.70834 8.30225 7.70834 10.8752H9.29168C9.29168 9.09391 11.6667 8.896 11.6667 6.91683C11.6667 5.16725 10.2496 3.75016 8.50001 3.75016Z" fill="black"/>
</svg>
