<svg width="13" height="15" viewBox="0 0 13 15" fill="none" xmlns="http://www.w3.org/2000/svg">
<path d="M6.50289 4.1311C4.65736 4.1311 3.16874 5.63403 3.16874 7.49731C3.16874 9.36059 4.65736 10.8635 6.50289 10.8635C8.34843 10.8635 9.83705 9.36059 9.83705 7.49731C9.83705 5.63403 8.34843 4.1311 6.50289 4.1311ZM6.50289 9.68579C5.31026 9.68579 4.33526 8.70434 4.33526 7.49731C4.33526 6.29028 5.30736 5.30884 6.50289 5.30884C7.69843 5.30884 8.67053 6.29028 8.67053 7.49731C8.67053 8.70434 7.69553 9.68579 6.50289 9.68579ZM10.7511 3.99341C10.7511 4.42993 10.4029 4.77856 9.97343 4.77856C9.54106 4.77856 9.19575 4.427 9.19575 3.99341C9.19575 3.55981 9.54397 3.20825 9.97343 3.20825C10.4029 3.20825 10.7511 3.55981 10.7511 3.99341ZM12.9594 4.79028C12.91 3.73853 12.6721 2.80688 11.9089 2.03931C11.1487 1.27173 10.2259 1.03149 9.18414 0.97876C8.11048 0.917236 4.8924 0.917236 3.81874 0.97876C2.7799 1.02856 1.85714 1.2688 1.09397 2.03638C0.330798 2.80395 0.0957532 3.7356 0.0435211 4.78735C-0.0174164 5.87134 -0.0174164 9.12036 0.0435211 10.2043C0.0928515 11.2561 0.330798 12.1877 1.09397 12.9553C1.85714 13.7229 2.777 13.9631 3.81874 14.0159C4.8924 14.0774 8.11048 14.0774 9.18414 14.0159C10.2259 13.9661 11.1487 13.7258 11.9089 12.9553C12.6692 12.1877 12.9071 11.2561 12.9594 10.2043C13.0203 9.12036 13.0203 5.87427 12.9594 4.79028ZM11.5723 11.3674C11.346 11.9416 10.9078 12.384 10.3362 12.6155C9.48013 12.9583 7.44888 12.8791 6.50289 12.8791C5.55691 12.8791 3.52276 12.9553 2.66964 12.6155C2.10089 12.387 1.66272 11.9446 1.43348 11.3674C1.09397 10.5032 1.17232 8.45239 1.17232 7.49731C1.17232 6.54224 1.09687 4.48852 1.43348 3.6272C1.65982 3.05298 2.09798 2.6106 2.66964 2.37915C3.52566 2.03638 5.55691 2.11548 6.50289 2.11548C7.44888 2.11548 9.48303 2.03931 10.3362 2.37915C10.9049 2.60767 11.3431 3.05005 11.5723 3.6272C11.9118 4.49145 11.8335 6.54224 11.8335 7.49731C11.8335 8.45239 11.9118 10.5061 11.5723 11.3674Z" fill="black"/>
</svg>
