<svg width="77" height="277" viewBox="0 0 77 277" fill="none" xmlns="http://www.w3.org/2000/svg">
<path d="M64.9244 1L76.1126 5.04053" stroke="#D1DDE8" stroke-width="2" stroke-miterlimit="10"/>
<path d="M50.1204 1C51.5345 1.58833 52.931 2.20223 54.3452 2.76498C61.5056 5.65546 68.8091 8.62267 76.1127 11.3853" stroke="#D1DDE8" stroke-width="2" stroke-miterlimit="10"/>
<path d="M76.1131 17.6772C68.8094 14.6845 61.5597 11.5128 54.3455 8.39213C50.6221 6.77214 46.8987 5.06689 43.1753 3.27637" stroke="#D1DDE8" stroke-width="2" stroke-miterlimit="10"/>
<path d="M76.1131 23.9458C68.8094 20.7737 61.5418 17.3713 54.3456 14.0713C50.5505 12.3317 46.7374 10.4642 42.9424 8.52002" stroke="#D1DDE8" stroke-width="2" stroke-miterlimit="10"/>
<path d="M76.1129 30.1099C68.7914 26.7589 61.5416 23.2033 54.3454 19.75C50.3535 17.8315 46.3616 15.7595 42.3518 13.6108" stroke="#D1DDE8" stroke-width="2" stroke-miterlimit="10"/>
<path d="M76.1127 36.1719C68.7912 32.6929 61.5414 29.0092 54.3452 25.4279C50.049 23.2791 45.7528 20.9512 41.4387 18.521" stroke="#D1DDE8" stroke-width="2" stroke-miterlimit="10"/>
<path d="M76.1122 42.1323C68.7907 38.5766 61.5409 34.7651 54.3626 31.0815C49.6188 28.5235 44.8571 25.9654 40.0417 23.2539" stroke="#D1DDE8" stroke-width="2" stroke-miterlimit="10"/>
<path d="M76.1127 47.8628C68.7912 44.2816 61.5414 40.4701 54.3631 36.7355C48.9928 33.9728 43.6224 30.9032 38.1447 27.7568" stroke="#D1DDE8" stroke-width="2" stroke-miterlimit="10"/>
<path d="M76.1128 53.2598C68.7913 49.8065 61.5236 46.0718 54.3453 42.3883C48.1515 39.2163 41.8147 35.7375 35.6388 32.1562" stroke="#D1DDE8" stroke-width="2" stroke-miterlimit="10"/>
<path d="M76.1134 58.5293C68.7919 55.2039 61.5242 51.6227 54.3459 48.0415C47.1676 44.4603 39.7744 40.3675 32.4171 36.5049" stroke="#D1DDE8" stroke-width="2" stroke-miterlimit="10"/>
<path d="M45.2518 49.2642L44.7147 49.0142" stroke="#D1DDE8" stroke-width="2" stroke-miterlimit="10"/>
<path d="M28.1558 40.6997L44.7142 49.0142" stroke="#D1DDE8" stroke-width="2" stroke-miterlimit="10"/>
<path d="M45.251 49.2686C48.2763 50.7779 51.3196 52.2616 54.3448 53.6941C61.5053 57.1221 68.7908 60.5244 76.1124 63.6709" stroke="#D1DDE8" stroke-width="2" stroke-miterlimit="10"/>
<path d="M21.8187 44.5879C29.2118 47.8108 36.5692 51.2384 43.855 54.6147" stroke="#D1DDE8" stroke-width="2" stroke-miterlimit="10"/>
<path d="M76.1127 68.6841C68.7912 65.7681 61.5414 62.5963 54.3452 59.3733C51.0693 57.9153 47.7755 56.4061 44.4817 54.897" stroke="#D1DDE8" stroke-width="2" stroke-miterlimit="10"/>
<path d="M44.4816 54.8901L43.8549 54.6147" stroke="#D1DDE8" stroke-width="2" stroke-miterlimit="10"/>
<path d="M43.8376 60.6699L43.0322 60.3452" stroke="#D1DDE8" stroke-width="2" stroke-miterlimit="10"/>
<path d="M10.8458 47.8374C21.5864 51.572 32.3269 55.9461 42.978 60.3457" stroke="#D1DDE8" stroke-width="2" stroke-miterlimit="10"/>
<path d="M76.1132 73.6211C68.8095 71.0631 61.5419 68.0191 54.3456 65.0519L43.8375 60.6777" stroke="#D1DDE8" stroke-width="2" stroke-miterlimit="10"/>
<path d="M1 53.3369C14.748 56.6879 28.4067 61.2156 41.8861 66.127" stroke="#D1DDE8" stroke-width="2" stroke-miterlimit="10"/>
<path d="M76.1123 78.4302C68.8266 76.0257 61.5589 73.3142 54.3448 70.7563L43.4608 66.7402" stroke="#D1DDE8" stroke-width="2" stroke-miterlimit="10"/>
<path d="M76.1129 83.2397C68.8212 81.1082 61.5715 78.8231 54.3633 76.3846C50.6757 75.1568 46.9702 73.9716 43.2468 72.8291" stroke="#D1DDE8" stroke-width="2" stroke-miterlimit="10"/>
<path d="M1 62.3662C14.032 64.7196 27.028 67.9684 39.8631 71.8311" stroke="#D1DDE8" stroke-width="2" stroke-miterlimit="10"/>
<path d="M76.1126 88.0234C68.8448 86.1817 61.595 84.2036 54.363 82.089C50.6575 81.0147 46.952 80.0426 43.2107 79.0962" stroke="#D1DDE8" stroke-width="2" stroke-miterlimit="10"/>
<path d="M1 71.6772C12.9758 73.0075 24.9158 74.9518 36.8021 77.6123" stroke="#D1DDE8" stroke-width="2" stroke-miterlimit="10"/>
<path d="M76.1126 92.73C68.8567 91.1951 61.607 89.5323 54.363 87.7416C50.6575 86.8463 46.952 86.0789 43.2107 85.3882" stroke="#D1DDE8" stroke-width="2" stroke-miterlimit="10"/>
<path d="M1 81.0908C11.2752 81.5002 21.5503 82.2422 31.7718 83.6494" stroke="#D1DDE8" stroke-width="2" stroke-miterlimit="10"/>
<path d="M76.1126 97.4629C68.8567 96.2349 61.613 94.8875 54.3809 93.4208C50.6575 92.7045 46.952 92.1416 43.2107 91.6812" stroke="#D1DDE8" stroke-width="2" stroke-miterlimit="10"/>
<path d="M18.6327 90.3252C12.7612 90.3252 6.87154 90.4512 1 90.6528" stroke="#D1DDE8" stroke-width="2" stroke-miterlimit="10"/>
<path d="M76.1126 102.194C68.8806 101.274 61.6368 100.242 54.3809 99.1001C50.6575 98.5375 46.9341 98.2051 43.2107 98.0005" stroke="#D1DDE8" stroke-width="2" stroke-miterlimit="10"/>
<path d="M76.1126 106.979C68.8806 106.313 61.6428 105.58 54.3988 104.778C50.6575 104.369 46.9341 104.241 43.2107 104.292" stroke="#D1DDE8" stroke-width="2" stroke-miterlimit="10"/>
<path d="M76.1126 111.788C68.8806 111.396 61.6428 110.952 54.3988 110.457C50.6718 110.188 46.9377 110.188 43.2107 110.457" stroke="#D1DDE8" stroke-width="2" stroke-miterlimit="10"/>
<path d="M76.1126 116.537C68.9522 116.537 61.6488 116.362 54.3988 116.136C50.6636 116.052 46.928 116.269 43.2107 116.787" stroke="#D1DDE8" stroke-width="2" stroke-miterlimit="10"/>
<path d="M76.1126 121.686H54.3988C50.6563 121.713 46.9189 122.089 43.2107 122.813" stroke="#D1DDE8" stroke-width="2" stroke-miterlimit="10"/>
<path d="M76.1126 126.727C68.8806 127.016 61.6428 127.264 54.3988 127.468C50.6479 127.6 46.9087 128.121 43.2107 129.028" stroke="#D1DDE8" stroke-width="2" stroke-miterlimit="10"/>
<path d="M76.1126 131.945C68.9522 132.38 61.6488 132.814 54.3988 133.121C50.6412 133.329 46.9006 133.953 43.2107 134.988" stroke="#D1DDE8" stroke-width="2" stroke-miterlimit="10"/>
<path d="M76.1126 137.291C68.9522 137.854 61.6309 138.391 54.3988 138.774C50.635 139.009 46.8921 139.702 43.2107 140.846" stroke="#D1DDE8" stroke-width="2" stroke-miterlimit="10"/>
<path d="M76.1126 142.815C68.9522 143.455 61.6309 144.043 54.3809 144.427C50.6199 144.662 46.8814 145.381 43.2107 146.576" stroke="#D1DDE8" stroke-width="2" stroke-miterlimit="10"/>
<path d="M76.1126 148.725C68.9522 149.313 61.6309 149.851 54.3809 150.158C50.6226 150.35 46.884 151.026 43.2107 152.179" stroke="#D1DDE8" stroke-width="2" stroke-miterlimit="10"/>
<path d="M76.1126 154.967C68.9522 155.453 61.6488 155.836 54.3988 156.041C50.6394 156.176 46.8956 156.784 43.2107 157.857" stroke="#D1DDE8" stroke-width="2" stroke-miterlimit="10"/>
<path d="M76.1126 161.439C68.9522 161.772 61.6488 162.027 54.3809 162.053C50.6332 162.096 46.8955 162.61 43.2107 163.588" stroke="#D1DDE8" stroke-width="2" stroke-miterlimit="10"/>
<path d="M76.1126 168.115C68.9522 168.294 61.6488 168.345 54.3809 168.115C50.6399 168.071 46.903 168.481 43.2107 169.343" stroke="#D1DDE8" stroke-width="2" stroke-miterlimit="10"/>
<path d="M76.1126 175.111C68.9522 175.111 61.6309 174.809 54.3809 174.432C50.6479 174.244 46.9104 174.513 43.2107 175.237" stroke="#D1DDE8" stroke-width="2" stroke-miterlimit="10"/>
<path d="M76.1126 181.954C68.9522 181.749 61.6309 181.365 54.3809 180.725C50.6561 180.412 46.9194 180.549 43.2107 181.135" stroke="#D1DDE8" stroke-width="2" stroke-miterlimit="10"/>
<path d="M76.1126 189.167C68.8806 188.707 61.6368 188.025 54.3809 187.121C50.6645 186.66 46.9271 186.66 43.2107 187.121" stroke="#D1DDE8" stroke-width="2" stroke-miterlimit="10"/>
<path d="M76.1126 196.356C68.9522 195.665 61.6488 194.744 54.3809 193.516C50.6734 192.913 46.9377 192.742 43.2107 193.005" stroke="#D1DDE8" stroke-width="2" stroke-miterlimit="10"/>
<path d="M76.1126 203.646C68.9522 202.699 61.6488 201.523 54.3988 199.988C50.6953 199.212 46.953 198.879 43.2107 198.99" stroke="#D1DDE8" stroke-width="2" stroke-miterlimit="10"/>
<path d="M76.1126 210.987C68.8627 209.785 61.6309 208.429 54.3809 206.46C50.6915 205.537 46.956 205.041 43.2107 204.976" stroke="#D1DDE8" stroke-width="2" stroke-miterlimit="10"/>
<path d="M76.1126 218.277C68.8627 216.819 61.6309 215.079 54.3809 212.905C50.7002 211.824 46.9649 211.165 43.2107 210.935" stroke="#D1DDE8" stroke-width="2" stroke-miterlimit="10"/>
<path d="M76.1126 225.543C68.8627 223.855 61.613 221.834 54.3809 219.352C50.7094 218.088 46.9748 217.233 43.2107 216.794" stroke="#D1DDE8" stroke-width="2" stroke-miterlimit="10"/>
<path d="M76.1126 232.833C68.8448 230.914 61.5951 228.612 54.3809 225.849C50.7137 224.474 46.98 223.491 43.2107 222.907" stroke="#D1DDE8" stroke-width="2" stroke-miterlimit="10"/>
<path d="M76.1126 239.893C68.8269 237.719 61.5772 235.186 54.3809 232.219C50.7236 230.686 46.9892 229.557 43.2107 228.842" stroke="#D1DDE8" stroke-width="2" stroke-miterlimit="10"/>
<path d="M76.1126 246.876C68.8269 244.497 61.5772 241.76 54.3809 238.435C50.7302 236.769 46.996 235.504 43.2107 234.649" stroke="#D1DDE8" stroke-width="2" stroke-miterlimit="10"/>
<path d="M76.1126 253.731C68.809 251.173 61.5592 248.18 54.3809 244.65C50.7362 242.86 47.0022 241.467 43.2107 240.48" stroke="#D1DDE8" stroke-width="2" stroke-miterlimit="10"/>
<path d="M76.1126 260.382C68.809 257.671 61.5413 254.499 54.3809 250.739C50.737 248.868 47.0041 247.372 43.2107 246.263" stroke="#D1DDE8" stroke-width="2" stroke-miterlimit="10"/>
<path d="M76.1126 266.854C68.7911 263.989 61.5413 260.664 54.3809 256.622C50.7438 254.649 47.0104 253.058 43.2107 251.864" stroke="#D1DDE8" stroke-width="2" stroke-miterlimit="10"/>
<path d="M76.1126 273.044C68.7487 270.088 61.4955 266.596 54.3809 262.582C50.7468 260.542 47.0135 258.884 43.2107 257.62" stroke="#D1DDE8" stroke-width="2" stroke-miterlimit="10"/>
<path d="M67.753 275.219C63.2419 273.122 58.8025 270.794 54.3809 268.287C50.7466 266.207 47.0138 264.498 43.2107 263.171" stroke="#D1DDE8" stroke-width="2" stroke-miterlimit="10"/>
<path d="M57.1198 275.219C56.2069 274.758 55.3297 274.323 54.3809 273.812C50.7387 271.853 47.0065 270.254 43.2107 269.028" stroke="#D1DDE8" stroke-width="2" stroke-miterlimit="10"/>
<path d="M43.2107 274.631L45.1258 275.207" stroke="#D1DDE8" stroke-width="2" stroke-miterlimit="10"/>
</svg>
