<svg width="150" height="281" viewBox="0 0 150 281" fill="none" xmlns="http://www.w3.org/2000/svg">
<path d="M76.2443 1C92.6543 7.13567 109.242 13.5281 126.042 17.3789" stroke="#D1DDE8" stroke-width="2" stroke-miterlimit="10"/>
<path d="M64.9561 1.77002C68.4117 3.36166 71.8849 4.87629 75.3405 6.28822C94.6391 14.1437 114.328 22.487 134.211 26.2607" stroke="#D1DDE8" stroke-width="2" stroke-miterlimit="10"/>
<path d="M139.139 36.3726C117.395 32.9069 96.1643 23.1516 75.3417 14.0382C69.2987 11.471 63.2557 8.41606 57.1772 5.33545" stroke="#D1DDE8" stroke-width="2" stroke-miterlimit="10"/>
<path d="M142.487 43.8442C119.449 40.7379 97.1909 29.8015 75.3404 19.6353C67.2063 15.8615 59.0725 11.4716 50.8853 7.03027" stroke="#D1DDE8" stroke-width="2" stroke-miterlimit="10"/>
<path d="M144.772 50.9551H144.311C120.618 48.1825 97.7037 36.2964 75.3393 25.2832C65.4508 20.4568 55.5448 14.7063 45.5322 9.10986" stroke="#D1DDE8" stroke-width="2" stroke-miterlimit="10"/>
<path d="M146.316 57.5786C145.643 57.5786 144.97 57.5273 144.296 57.4246C120.55 54.729 97.6533 42.3037 75.3421 31.0337C63.8941 25.2318 52.3046 18.1977 40.7148 11.5229" stroke="#D1DDE8" stroke-width="2" stroke-miterlimit="10"/>
<path d="M147.378 63.8174C146.35 63.8174 145.323 63.8174 144.277 63.612C120.477 61.0448 97.6164 48.2088 75.3406 36.7077C62.4571 30.033 49.4673 21.6639 36.3535 14.2446" stroke="#D1DDE8" stroke-width="2" stroke-miterlimit="10"/>
<path d="M81.2597 45.5132L75.3406 42.3811C61.0572 34.9104 46.5965 25.4116 31.8877 17.4531" stroke="#D1DDE8" stroke-width="2" stroke-miterlimit="10"/>
<path d="M105.574 57.6562C118.121 63.6996 131.109 67.6192 144.278 69.3366C145.554 69.3366 146.794 69.5163 148.052 69.542" stroke="#D1DDE8" stroke-width="2" stroke-miterlimit="10"/>
<path d="M109.793 64.7925C121.046 69.6998 132.611 72.951 144.314 74.4967C145.697 74.6507 147.061 74.7277 148.425 74.7534" stroke="#D1DDE8" stroke-width="2" stroke-miterlimit="10"/>
<path d="M27.3169 21.5352C42.0256 28.8261 56.4508 37.8884 70.7166 45.6157" stroke="#D1DDE8" stroke-width="2" stroke-miterlimit="10"/>
<path d="M111.83 70.647C122.457 74.9228 133.329 77.801 144.314 79.2467C145.731 79.4007 147.131 79.4777 148.531 79.5034" stroke="#D1DDE8" stroke-width="2" stroke-miterlimit="10"/>
<path d="M22.8501 26.4634C36.4956 32.4967 49.9284 40.1988 63.2195 47.3618" stroke="#D1DDE8" stroke-width="2" stroke-miterlimit="10"/>
<path d="M113.123 75.8828C123.407 79.6687 133.884 82.2444 144.454 83.5848C145.872 83.7388 147.272 83.8158 148.672 83.8672" stroke="#D1DDE8" stroke-width="2" stroke-miterlimit="10"/>
<path d="M18.6504 32.3945C31.6047 37.2978 44.3821 43.7928 57.0352 50.3647" stroke="#D1DDE8" stroke-width="2" stroke-miterlimit="10"/>
<path d="M113.798 80.7104C123.915 84.1277 134.191 86.4699 144.544 87.7184C145.909 87.8724 147.256 87.9494 148.603 87.9751" stroke="#D1DDE8" stroke-width="2" stroke-miterlimit="10"/>
<path d="M14.8574 39.3516C27.2624 43.2279 39.5611 48.5419 51.718 54.1382" stroke="#D1DDE8" stroke-width="2" stroke-miterlimit="10"/>
<path d="M11.561 47.2827C23.4875 50.2096 35.3254 54.3945 47.0038 59.0415" stroke="#D1DDE8" stroke-width="2" stroke-miterlimit="10"/>
<path d="M114.168 85.1504C124.226 88.2382 134.414 90.3482 144.666 91.4663C145.925 91.4663 147.183 91.6203 148.441 91.646" stroke="#D1DDE8" stroke-width="2" stroke-miterlimit="10"/>
<path d="M8.86816 56.1157C20.3516 58.1696 31.7821 61.2503 43.1238 64.9473" stroke="#D1DDE8" stroke-width="2" stroke-miterlimit="10"/>
<path d="M114.293 89.5142C124.371 92.2923 134.556 94.1787 144.792 95.1626C145.926 95.1626 147.06 95.1626 148.194 95.291" stroke="#D1DDE8" stroke-width="2" stroke-miterlimit="10"/>
<path d="M114.151 93.6743C124.335 96.1368 134.605 97.7819 144.915 98.6021C145.907 98.6021 146.9 98.6021 147.875 98.6021" stroke="#D1DDE8" stroke-width="2" stroke-miterlimit="10"/>
<path d="M6.75879 65.7427C17.941 67.0777 29.1057 69.1829 40.1993 71.9043" stroke="#D1DDE8" stroke-width="2" stroke-miterlimit="10"/>
<path d="M5.27148 75.8828C16.2351 76.5675 27.1866 77.7912 38.1266 79.5542" stroke="#D1DDE8" stroke-width="2" stroke-miterlimit="10"/>
<path d="M113.602 97.6787C124.048 99.8769 134.564 101.307 145.11 101.965C145.908 101.965 146.705 101.965 147.52 101.965" stroke="#D1DDE8" stroke-width="2" stroke-miterlimit="10"/>
<path d="M4.33252 86.4346C15.1957 86.4346 26.0765 86.871 36.9397 87.6924" stroke="#D1DDE8" stroke-width="2" stroke-miterlimit="10"/>
<path d="M146.934 105.252H145.162C134.192 104.816 123.294 103.481 112.431 101.632" stroke="#D1DDE8" stroke-width="2" stroke-miterlimit="10"/>
<path d="M146.297 108.487C145.978 108.487 145.659 108.487 145.358 108.487C133.768 108.23 122.32 107.126 110.783 105.508" stroke="#D1DDE8" stroke-width="2" stroke-miterlimit="10"/>
<path d="M145.499 111.773C133.094 111.773 120.689 110.823 108.373 109.462" stroke="#D1DDE8" stroke-width="2" stroke-miterlimit="10"/>
<path d="M144.543 115.137C131.358 115.137 118.262 114.623 105.166 113.57" stroke="#D1DDE8" stroke-width="2" stroke-miterlimit="10"/>
<path d="M143.285 118.662C129.107 118.964 115.107 118.662 101.037 117.934" stroke="#D1DDE8" stroke-width="2" stroke-miterlimit="10"/>
<path d="M141.956 122.196C126.645 122.423 111.316 122.6 96.0044 122.474" stroke="#D1DDE8" stroke-width="2" stroke-miterlimit="10"/>
<path d="M89.3057 127.678C106.07 127.678 122.817 127.325 139.563 127.124" stroke="#D1DDE8" stroke-width="2" stroke-miterlimit="10"/>
<path d="M81.4741 133.235C100.188 132.67 118.884 131.771 137.598 130.667" stroke="#D1DDE8" stroke-width="2" stroke-miterlimit="10"/>
<path d="M72.3633 139.422C73.3734 139.422 74.3657 139.166 75.3936 139.114C95.1529 138.216 114.877 136.726 134.619 135.52" stroke="#D1DDE8" stroke-width="2" stroke-miterlimit="10"/>
<path d="M60.0488 148.33C65.054 146.343 70.1941 145.155 75.3777 144.787C93.8611 143.786 112.327 141.938 130.792 140.628" stroke="#D1DDE8" stroke-width="2" stroke-miterlimit="10"/>
<path d="M125.793 146.25C108.994 147.611 92.1229 149.537 75.3762 150.461C63.6801 151.103 53.0121 156.956 42.4502 163.297" stroke="#D1DDE8" stroke-width="2" stroke-miterlimit="10"/>
<path d="M118.917 152.874C104.439 154.132 89.9602 155.57 75.4641 156.211C59.5149 156.905 45.5327 167.225 31.1606 175.594" stroke="#D1DDE8" stroke-width="2" stroke-miterlimit="10"/>
<path d="M109.953 160.088C98.4339 160.986 86.915 161.808 75.3961 162.116C57.2671 162.604 41.4773 175.491 24.8369 184.015" stroke="#D1DDE8" stroke-width="2" stroke-miterlimit="10"/>
<path d="M100.33 167.302C92.0187 167.738 83.7073 168.046 75.3782 168.098C55.7606 168.098 38.7304 182.731 20.4419 190.818" stroke="#D1DDE8" stroke-width="2" stroke-miterlimit="10"/>
<path d="M91.4138 174.336C86.0973 174.336 80.7808 174.336 75.3758 174.336C54.6595 173.849 36.6194 189.406 17.1436 196.851" stroke="#D1DDE8" stroke-width="2" stroke-miterlimit="10"/>
<path d="M83.4751 180.935C80.746 180.935 78.0344 180.729 75.3053 180.575C53.8093 179.343 34.9364 195.311 14.5391 202.011" stroke="#D1DDE8" stroke-width="2" stroke-miterlimit="10"/>
<path d="M77.2034 187.019L75.4313 186.89C53.3682 184.837 33.7507 200.779 12.6445 206.71" stroke="#D1DDE8" stroke-width="2" stroke-miterlimit="10"/>
<path d="M71.6017 192.974C50.6018 192.075 31.3564 206.17 10.8882 210.945" stroke="#D1DDE8" stroke-width="2" stroke-miterlimit="10"/>
<path d="M66.338 199.084C46.9508 199.598 28.6621 211.356 9.45215 215.232" stroke="#D1DDE8" stroke-width="2" stroke-miterlimit="10"/>
<path d="M8.16016 219.211C26.2891 216.207 43.7271 206.375 61.8383 205.271" stroke="#D1DDE8" stroke-width="2" stroke-miterlimit="10"/>
<path d="M7.02588 223.062C24.2511 220.752 40.9975 212.793 58.1163 211.355" stroke="#D1DDE8" stroke-width="2" stroke-miterlimit="10"/>
<path d="M6.0166 226.861C22.4798 225.115 38.6415 218.492 54.9983 217.234" stroke="#D1DDE8" stroke-width="2" stroke-miterlimit="10"/>
<path d="M5.09326 230.687C20.9539 229.403 36.6195 223.883 52.3561 222.985" stroke="#D1DDE8" stroke-width="2" stroke-miterlimit="10"/>
<path d="M149.753 238.491C148.991 238.491 148.229 238.491 147.467 238.491C136.994 238.106 126.609 237.182 116.295 235.616" stroke="#D1DDE8" stroke-width="2" stroke-miterlimit="10"/>
<path d="M149.755 246.886C149.046 246.886 148.337 246.886 147.61 246.886C126.603 246.066 105.7 242.291 85.1958 235.616" stroke="#D1DDE8" stroke-width="2" stroke-miterlimit="10"/>
<path d="M4.26074 234.563C19.4125 233.665 34.3872 229.249 49.5212 228.453" stroke="#D1DDE8" stroke-width="2" stroke-miterlimit="10"/>
<path d="M3.53516 238.542C17.7123 237.951 31.7477 234.588 45.7831 233.895" stroke="#D1DDE8" stroke-width="2" stroke-miterlimit="10"/>
<path d="M149.753 255.151C149.08 255.151 148.407 255.151 147.733 255.151C123.225 254.006 98.9115 248.426 75.3589 238.542C72.5303 237.335 69.6545 236.375 66.7466 235.667" stroke="#D1DDE8" stroke-width="2" stroke-miterlimit="10"/>
<path d="M2.87891 242.65C15.5851 242.291 31.6405 239.775 44.2935 239.108" stroke="#D1DDE8" stroke-width="2" stroke-miterlimit="10"/>
<path d="M149.753 263.136C149.115 263.136 148.477 263.136 147.839 263.136C123.223 261.793 98.8436 255.653 75.3586 244.883C65.293 240.503 54.7946 238.577 44.293 239.184" stroke="#D1DDE8" stroke-width="2" stroke-miterlimit="10"/>
<path d="M149.753 270.812H147.981C123.265 269.308 98.8271 262.677 75.4116 251.121C51.6472 239.209 26.9082 246.577 2.38184 247.039" stroke="#D1DDE8" stroke-width="2" stroke-miterlimit="10"/>
<path d="M149.754 278.103H147.982C123.17 276.536 98.668 269.489 75.3243 257.206C51.5422 244.601 26.5197 251.199 1.85156 251.558" stroke="#D1DDE8" stroke-width="2" stroke-miterlimit="10"/>
<path d="M115.516 279.489C101.813 275.857 88.3703 270.4 75.3595 263.187C51.5774 249.941 26.3246 255.948 1.51465 256.359" stroke="#D1DDE8" stroke-width="2" stroke-miterlimit="10"/>
<path d="M96.8013 279.489C89.5401 276.543 82.3887 273.056 75.376 269.04C51.5939 255.357 26.1463 260.954 1.22998 261.519" stroke="#D1DDE8" stroke-width="2" stroke-miterlimit="10"/>
<path d="M84.0597 279.489C81.1534 278 78.2468 276.434 75.376 274.766C51.5584 261.007 26.022 266.346 1.07031 267.065" stroke="#D1DDE8" stroke-width="2" stroke-miterlimit="10"/>
<path d="M73.7464 279.49C50.3364 267.372 25.3846 272.147 1 272.738" stroke="#D1DDE8" stroke-width="2" stroke-miterlimit="10"/>
<path d="M58.3998 279.489C39.5797 275.125 20.1037 277.974 1 278.334" stroke="#D1DDE8" stroke-width="2" stroke-miterlimit="10"/>
</svg>
