<svg width="188" height="214" viewBox="0 0 188 214" fill="none" xmlns="http://www.w3.org/2000/svg">
<g opacity="0.08">
<path d="M40.2857 93.625C35.5521 93.625 31.0746 94.5863 26.8571 96.091V93.625C26.8571 78.8707 38.9009 66.875 53.7143 66.875C61.1294 66.875 67.1429 60.8855 67.1429 53.5C67.1429 46.1145 61.142 40.125 53.7143 40.125C24.0959 40.125 0 64.1164 0 93.625V133.75C0 155.911 18.0363 173.875 40.2857 173.875C62.5352 173.875 80.5714 155.911 80.5714 133.75C80.5714 111.589 62.5268 93.625 40.2857 93.625ZM147.714 93.625C142.981 93.625 138.503 94.5884 134.286 96.0822V93.625C134.286 78.8707 146.329 66.875 161.143 66.875C168.558 66.875 174.571 60.8855 174.571 53.5C174.571 46.1145 168.558 40.125 161.143 40.125C131.524 40.125 107.429 64.1248 107.429 93.625V133.75C107.429 155.911 125.465 173.875 147.714 173.875C169.964 173.875 188 155.911 188 133.75C188 111.589 169.955 93.625 147.714 93.625Z" fill="#3767CD"/>
</g>
</svg>
