<svg width="1121" height="742" viewBox="0 0 1121 742" fill="none" xmlns="http://www.w3.org/2000/svg">
<g opacity="0.2">
<path d="M176.58 94.8069C197.278 94.8069 543.386 94.8069 564.293 94.8069C586.646 93.6981 610.846 98.4869 631.833 88.8933C638.293 85.3901 645.284 81.7423 650.603 76.6161C657.191 73.4504 662.896 67.8742 669.533 64.7888C683.529 59.6626 699.197 57.1558 714.014 59.3252C735.965 60.9321 756.438 70.5096 775.834 80.2478C798.669 90.902 815.767 97.9887 838.955 83.4296C848.388 75.6359 858.464 67.0064 870.564 63.8729C874.758 61.6874 879.997 60.3697 884.721 60.2411C889.366 59.052 894.926 58.5056 899.714 58.8752C916.925 58.1681 934.039 63.3104 949.98 69.3365C972.638 79.8622 995.393 93.8428 1021.04 94.357C1064.96 95.5622 1384.1 94.4373 1427.96 94.8069" fill="white"/>
<path d="M176.58 94.8069C197.278 94.8069 543.386 94.8069 564.293 94.8069C586.646 93.6981 610.846 98.4869 631.833 88.8933C638.293 85.3901 645.284 81.7423 650.603 76.6161C657.191 73.4504 662.896 67.8742 669.533 64.7888C683.529 59.6626 699.197 57.1558 714.014 59.3252C735.965 60.9321 756.438 70.5096 775.834 80.2478C798.669 90.902 815.767 97.9887 838.955 83.4296C848.388 75.6359 858.464 67.0064 870.564 63.8729C874.758 61.6874 879.997 60.3697 884.721 60.2411C889.366 59.052 894.926 58.5056 899.714 58.8752C916.925 58.1681 934.039 63.3104 949.98 69.3365C972.639 79.8622 995.393 93.8428 1021.04 94.357C1064.96 95.5622 1384.1 94.4373 1427.96 94.8069" stroke="#3C53C7" stroke-width="1.6" stroke-miterlimit="10"/>
<path d="M176.58 104.481C194.868 104.481 538.067 104.481 556.563 104.481C574.272 103.774 592.656 106.281 610.107 102.665C619.974 100.431 628.636 94.5016 635.449 87.206C659.489 63.2943 670.786 62.1855 703.954 62.6516C728.235 61.4785 751.311 67.5528 772.202 79.9425C788.77 89.6807 812.617 106.072 829.731 89.0379C834.182 86.4668 838.087 82.0798 841.253 78.1266C844.869 75.1216 849.561 71.8916 853.595 69.4812C869.632 61.7838 887.984 62.5069 905.323 62.6516C944.501 60.0483 970.453 83.4617 1003.59 98.5833C1018.97 104.561 1035.94 104.77 1052.2 104.497C1064.99 104.497 1078.52 104.497 1090.93 104.497C1111.27 104.497 1407.63 104.497 1427.97 104.497" fill="white"/>
<path d="M176.58 104.481C194.868 104.481 538.067 104.481 556.563 104.481C574.272 103.774 592.656 106.281 610.107 102.665C619.974 100.431 628.636 94.5016 635.449 87.206C659.489 63.2943 670.786 62.1855 703.954 62.6516C728.235 61.4785 751.311 67.5528 772.202 79.9425C788.77 89.6807 812.617 106.072 829.731 89.0379C834.182 86.4668 838.087 82.0798 841.253 78.1266C844.869 75.1216 849.561 71.8916 853.595 69.4812C869.632 61.7838 887.984 62.5069 905.323 62.6516C944.501 60.0483 970.453 83.4617 1003.59 98.5833C1018.97 104.561 1035.94 104.77 1052.2 104.497C1064.99 104.497 1078.52 104.497 1090.93 104.497C1111.27 104.497 1407.63 104.497 1427.97 104.497" stroke="#3C53C7" stroke-width="1.6" stroke-miterlimit="10"/>
<path d="M176.58 114.155C194.868 114.155 538.067 114.155 556.563 114.155C573.999 113.384 592.688 116.726 609.288 110.057C618.929 105.22 625.116 95.5301 632.155 87.7685C636.188 84.7635 640.141 80.3443 643.677 76.8572C657.561 69.4169 674.016 71.8595 688.977 73.6754C740.304 76.1662 738.054 60.5786 788.368 91.4163C802.413 98.7601 813.951 101.46 826.421 89.6004C844.419 72.7434 849.079 70.2847 874.34 72.3256C884.673 73.5147 895.568 74.3503 905.982 74.1414C913.245 73.3861 921.055 71.972 928.383 71.8595C964.025 68.8866 988.339 101.09 1020.06 110.973C1040.28 116.196 1062.74 113.544 1083.18 114.155C1106.15 114.155 1405.01 114.155 1427.97 114.155" fill="white"/>
<path d="M176.58 114.155C194.868 114.155 538.067 114.155 556.563 114.155C573.999 113.384 592.688 116.726 609.288 110.057C618.929 105.22 625.116 95.5301 632.155 87.7685C636.188 84.7635 640.141 80.3443 643.677 76.8572C657.561 69.4169 674.016 71.8595 688.977 73.6754C740.304 76.1662 738.054 60.5786 788.368 91.4163C802.413 98.7601 813.951 101.46 826.421 89.6004C844.419 72.7434 849.079 70.2847 874.34 72.3256C884.673 73.5147 895.568 74.3503 905.982 74.1414C913.245 73.3861 921.055 71.972 928.383 71.8595C964.025 68.8866 988.339 101.09 1020.06 110.973C1040.28 116.196 1062.74 113.544 1083.18 114.155C1106.15 114.155 1405.01 114.155 1427.97 114.155" stroke="#3C53C7" stroke-width="1.6" stroke-miterlimit="10"/>
<path d="M176.58 123.845C194.868 123.845 538.067 123.845 556.563 123.845C571.444 123.25 587.562 125.837 601.703 120.213C622.577 109.077 627.816 74.6715 657.497 81.9992C680.685 86.8362 705.834 97.7635 728.846 86.5469C738.054 83.558 748.194 79.8137 757.996 81.5493C777.328 84.8275 797.704 106.023 817.181 95.1924C825.73 90.709 833.025 81.8064 843.197 81.5493C862.979 80.2476 881.363 91.641 901.048 91.5607C921.151 91.9946 939.615 76.7605 959.863 82.9152C984.803 91.2553 1002.48 113.914 1027.98 121.129C1045.58 125.532 1065.47 123.314 1083.18 123.861C1106.15 123.861 1405.01 123.861 1427.97 123.861" fill="white"/>
<path d="M176.58 123.845C194.868 123.845 538.067 123.845 556.563 123.845C571.444 123.25 587.562 125.837 601.703 120.213C622.577 109.077 627.816 74.6715 657.497 81.9992C680.685 86.8362 705.834 97.7635 728.846 86.5469C738.054 83.558 748.194 79.8137 757.996 81.5493C777.328 84.8275 797.704 106.023 817.181 95.1924C825.73 90.709 833.025 81.8064 843.197 81.5493C862.979 80.2476 881.363 91.641 901.048 91.5607C921.151 91.9946 939.615 76.7605 959.863 82.9152C984.803 91.2553 1002.48 113.914 1027.98 121.129C1045.58 125.532 1065.47 123.314 1083.18 123.861C1106.15 123.861 1405.01 123.861 1427.97 123.861" stroke="#3C53C7" stroke-width="1.6" stroke-miterlimit="10"/>
<path d="M176.58 133.519C191.67 133.519 533.712 133.519 548.818 133.519C563.104 133.182 580.089 134.917 594.118 130.337C618.399 119.587 614.494 73.7239 659.65 97.5874C686.101 110.009 712.567 123.684 739.082 103.051C747.294 98.0694 755.361 90.2917 765.597 90.7738C773.937 91.0631 782.631 93.7146 790.65 95.7715C810.849 101.91 823.962 85.5351 843.696 92.5897C870.484 101.428 898.397 123.106 927.097 108.965C930.857 106.169 935.357 102.858 939.599 100.785C945.288 96.4143 951.764 91.4005 959.188 90.7738C982.136 91.1756 998.302 112.114 1017.25 122.608C1036.11 136.379 1061.42 133.262 1083.18 133.519C1106.15 133.519 1405.01 133.519 1427.97 133.519" fill="white"/>
<path d="M176.58 133.519C191.67 133.519 533.712 133.519 548.818 133.519C563.104 133.182 580.089 134.917 594.118 130.337C618.399 119.587 614.494 73.7239 659.65 97.5874C686.101 110.009 712.567 123.684 739.082 103.051C747.294 98.0694 755.361 90.2917 765.597 90.7738C773.937 91.0631 782.631 93.7146 790.65 95.7715C810.849 101.91 823.962 85.5351 843.696 92.5897C870.484 101.428 898.397 123.106 927.097 108.965C930.857 106.169 935.357 102.858 939.599 100.785C945.288 96.4143 951.764 91.4005 959.188 90.7738C982.136 91.1756 998.302 112.114 1017.25 122.608C1036.11 136.379 1061.42 133.262 1083.18 133.519C1106.15 133.519 1405.01 133.519 1427.97 133.519" stroke="#3C53C7" stroke-width="1.6" stroke-miterlimit="10"/>
<path d="M176.58 143.209C191.67 143.209 533.712 143.209 548.818 143.209C560.5 142.903 575.011 144.575 586.549 140.477C595.018 138.629 600.899 131.944 603.824 124.102C608.034 116.774 612.469 108.273 619.444 103.179C635.77 93.1516 658.075 114.235 672.538 121.37C683.481 126.801 695.421 132.699 707.827 133.197C744.61 137.504 747.985 106.473 773.182 99.9973C788.448 99.0171 804.18 100.945 819.479 99.5474C836.239 100.351 851.055 111.246 865.325 119.104C883.002 128.2 903.893 138.179 924.012 131.381C931.05 129.324 937.446 124.504 943.102 120.004C948.92 114.781 953.146 106.939 960.217 103.179C971.996 96.4298 984.514 104.497 994.172 111.375C1007.25 121.016 1020.35 132.346 1035.25 139.111C1047.31 144.253 1063 143.032 1075.45 143.209C1101.02 143.209 1402.42 143.209 1427.99 143.209" fill="white"/>
<path d="M176.58 143.209C191.67 143.209 533.712 143.209 548.818 143.209C560.5 142.903 575.011 144.575 586.549 140.477C595.018 138.629 600.899 131.944 603.824 124.102C608.034 116.774 612.469 108.273 619.444 103.179C635.77 93.1516 658.075 114.235 672.538 121.37C683.481 126.801 695.421 132.699 707.827 133.197C744.61 137.504 747.985 106.473 773.182 99.9973C788.448 99.0171 804.18 100.945 819.479 99.5474C836.239 100.351 851.056 111.246 865.325 119.104C883.002 128.2 903.893 138.179 924.012 131.381C931.05 129.324 937.446 124.504 943.102 120.004C948.92 114.781 953.146 106.939 960.217 103.179C971.996 96.4298 984.514 104.497 994.172 111.375C1007.25 121.016 1020.35 132.346 1035.25 139.111C1047.31 144.253 1063 143.032 1075.45 143.209C1101.02 143.209 1402.42 143.209 1427.99 143.209" stroke="#3C53C7" stroke-width="1.6" stroke-miterlimit="10"/>
<path d="M176.58 152.883C191.67 152.883 533.712 152.883 548.818 152.883C562.863 152.77 580.443 154.538 592.463 145.153C606.218 130.064 606.588 100.512 635.079 113.319C665.258 130.915 679.769 149.122 717.854 149.251C753.159 147.114 751.359 128.36 773.986 111.953C785.315 106.072 799.247 108.563 811.556 108.771C825.264 109.527 837.252 117.304 848.324 124.696C867.173 137.183 888.16 149.46 911.477 149.251C926.358 149.171 942.749 144.301 951.491 131.51C955.733 124.552 960.827 116.951 967.769 112.403C989.287 100.544 1019.55 145.298 1043.46 150.151C1055.93 153.975 1070.7 152.706 1083.17 152.883C1106.13 152.883 1404.99 152.883 1427.96 152.883" fill="white"/>
<path d="M176.58 152.883C191.67 152.883 533.712 152.883 548.818 152.883C562.863 152.77 580.443 154.538 592.463 145.153C606.218 130.064 606.588 100.512 635.079 113.319C665.258 130.915 679.769 149.122 717.854 149.251C753.159 147.114 751.359 128.36 773.986 111.953C785.315 106.072 799.247 108.563 811.556 108.771C825.264 109.527 837.252 117.304 848.324 124.696C867.173 137.183 888.16 149.46 911.477 149.251C926.358 149.171 942.749 144.301 951.491 131.51C955.733 124.552 960.827 116.951 967.769 112.403C989.287 100.544 1019.55 145.298 1043.46 150.151C1055.93 153.975 1070.7 152.706 1083.17 152.883C1106.13 152.883 1404.99 152.883 1427.96 152.883" stroke="#3C53C7" stroke-width="1.6" stroke-miterlimit="10"/>
<path d="M176.58 162.556C191.67 162.556 533.712 162.556 548.818 162.556C567.716 162.958 587.176 164.163 596.078 143.45C610.895 99.3063 632.926 127.557 658.027 143.45C675.929 158.443 696.032 162.444 718.867 161.641C730.967 161.849 744.401 160.483 754.606 153.461C767.301 143.546 773.005 125.661 788.657 119.345C834.713 111.085 850.14 165.176 912.474 161.641C926.985 161.785 944.501 161.608 954.464 149.363C962.627 138.934 966.757 120.727 982.425 119.795C993.674 121.515 1003.38 130.176 1011.94 137.086C1021.44 144.735 1031.89 153.22 1042.96 158.459C1058.13 163.858 1075.42 162.38 1090.91 162.556C1111.26 162.556 1407.61 162.556 1427.96 162.556" fill="white"/>
<path d="M176.58 162.556C191.67 162.556 533.712 162.556 548.818 162.556C567.716 162.958 587.176 164.163 596.078 143.45C610.895 99.3063 632.926 127.557 658.027 143.45C675.929 158.443 696.032 162.444 718.867 161.641C730.967 161.849 744.401 160.483 754.606 153.461C767.301 143.546 773.005 125.661 788.657 119.345C834.713 111.085 850.14 165.176 912.474 161.641C926.985 161.785 944.501 161.608 954.464 149.363C962.627 138.934 966.757 120.727 982.425 119.795C993.674 121.515 1003.38 130.176 1011.94 137.086C1021.44 144.735 1031.89 153.22 1042.96 158.459C1058.13 163.858 1075.42 162.38 1090.91 162.556C1111.26 162.556 1407.61 162.556 1427.96 162.556" stroke="#3C53C7" stroke-width="1.6" stroke-miterlimit="10"/>
<path d="M176.58 172.246C191.67 172.246 533.712 172.246 548.818 172.246C560.179 172.166 575.879 173.966 584.717 164.517C592.399 158.587 595.243 148.415 599.003 139.962C602.812 132.795 610.461 126.898 618.753 130.417C630.162 135.093 640.575 143.755 649.767 151.79C672.924 168.598 682.903 172.327 711.426 172.262C726.178 171.812 742.393 173.853 756.068 167.265C773.664 160.323 778.003 135.575 797.528 132.249C813.726 131.285 831.402 145.121 844.194 154.088C869.423 171.812 890.732 172.744 920.509 172.278C932.416 171.266 946.622 172.294 956.247 164.099C959.67 159.551 962.9 153.38 966.114 148.64C968.493 143.53 971.706 137.584 976.302 134.081C987.037 122.896 1001.34 136.427 1010.6 143.176C1020.49 151.147 1030.83 160.628 1042.27 166.365C1051.99 170.929 1065.14 173.114 1075.4 172.278C1085.08 172.278 1096.7 172.278 1106.39 172.278C1121.46 172.278 1412.87 172.278 1427.94 172.278" fill="white"/>
<path d="M176.58 172.246C191.67 172.246 533.712 172.246 548.818 172.246C560.179 172.166 575.879 173.966 584.717 164.517C592.399 158.587 595.243 148.415 599.003 139.962C602.812 132.795 610.461 126.898 618.753 130.417C630.162 135.093 640.575 143.755 649.767 151.79C672.924 168.598 682.903 172.327 711.426 172.262C726.178 171.812 742.393 173.853 756.068 167.265C773.664 160.323 778.003 135.575 797.528 132.249C813.726 131.285 831.402 145.121 844.194 154.088C869.423 171.812 890.732 172.744 920.509 172.278C932.416 171.266 946.622 172.294 956.248 164.099C959.67 159.551 962.9 153.38 966.114 148.64C968.493 143.53 971.706 137.584 976.302 134.081C987.037 122.896 1001.34 136.427 1010.6 143.176C1020.49 151.147 1030.83 160.628 1042.27 166.365C1051.99 170.929 1065.14 173.114 1075.4 172.278C1085.08 172.278 1096.7 172.278 1106.39 172.278C1121.46 172.278 1412.87 172.278 1427.94 172.278" stroke="#3C53C7" stroke-width="1.6" stroke-miterlimit="10"/>
<path d="M176.58 181.92C189.018 181.92 528.634 181.92 541.072 181.92C550.376 181.856 561.898 182.37 571.556 180.555C579.093 178.321 584.637 171.475 589.329 165.545C592.897 160.001 594.905 152.256 597.862 146.439C605.72 132.49 620.681 142.084 629.841 149.171C637.185 153.702 644.93 160.403 651.454 165.995C668.183 179.044 682.742 182.901 703.713 181.92C723.816 181.149 744.851 184.427 764.344 178.289C773.793 174.046 780.912 165.497 788.03 158.282C795.824 149.845 808.246 149.942 817.856 155.1C830.969 161.142 843.197 170.286 856.455 176.023C881.813 185.359 909.597 180.972 936.048 181.937C945.866 181.663 957.903 180.715 963.045 171.025C966.805 166.22 969.682 159.568 972.414 154.2C975.804 150.086 979.227 144.269 982.939 140.557C998.736 132.651 1026.66 167.377 1041.82 174.673C1049.76 178.257 1058.88 181.728 1067.71 181.953C1078.73 182.033 1088.11 181.904 1098.69 181.953C1116.4 181.953 1410.28 181.953 1427.99 181.953" fill="white"/>
<path d="M176.58 181.92C189.018 181.92 528.634 181.92 541.072 181.92C550.376 181.856 561.898 182.37 571.556 180.555C579.093 178.321 584.637 171.475 589.329 165.545C592.897 160.001 594.905 152.256 597.862 146.439C605.72 132.49 620.681 142.084 629.841 149.171C637.185 153.702 644.93 160.403 651.454 165.995C668.183 179.044 682.742 182.901 703.713 181.92C723.816 181.149 744.851 184.427 764.344 178.289C773.793 174.046 780.912 165.497 788.03 158.282C795.824 149.845 808.246 149.942 817.856 155.1C830.968 161.142 843.197 170.286 856.455 176.023C881.813 185.359 909.597 180.972 936.048 181.937C945.866 181.663 957.903 180.715 963.045 171.025C966.805 166.22 969.682 159.568 972.414 154.2C975.804 150.086 979.227 144.269 982.939 140.557C998.736 132.651 1026.66 167.377 1041.82 174.673C1049.76 178.257 1058.88 181.728 1067.71 181.953C1078.73 182.033 1088.11 181.904 1098.69 181.953C1116.4 181.953 1410.28 181.953 1427.99 181.953" stroke="#3C53C7" stroke-width="1.6" stroke-miterlimit="10"/>
<path d="M176.58 191.61C189.018 191.61 528.634 191.61 541.072 191.61C547.95 191.514 556.644 191.931 564.132 191.16C578.932 190.533 588.285 176.521 592.929 163.874C596.866 149.218 607.359 145.024 620.103 153.412C642.038 167.586 659.827 191.562 688.222 191.61C706.204 191.658 724.443 191.578 742.425 191.61C760.937 192.446 776.958 189.36 791.341 177.051C800.292 171.378 811.862 170.125 821.487 174.785C836.159 180.281 850.22 188.717 866 190.71C894.251 192.172 922.951 192.253 951.186 190.71C966.966 188.396 970.341 170.27 978.488 159.326C991.713 126.785 1029.01 182.418 1050.7 187.528C1057.47 191.449 1068.54 191.256 1075.42 191.626C1082.27 191.626 1091.79 191.626 1098.66 191.626C1116.37 191.626 1410.25 191.626 1427.96 191.626" fill="white"/>
<path d="M176.58 191.61C189.018 191.61 528.634 191.61 541.072 191.61C547.95 191.514 556.644 191.931 564.132 191.16C578.932 190.533 588.285 176.521 592.929 163.874C596.866 149.218 607.359 145.024 620.103 153.412C642.038 167.586 659.827 191.562 688.222 191.61C706.204 191.658 724.443 191.578 742.425 191.61C760.937 192.446 776.958 189.36 791.341 177.051C800.292 171.378 811.862 170.125 821.487 174.785C836.159 180.281 850.22 188.717 866 190.71C894.251 192.172 922.951 192.253 951.186 190.71C966.966 188.396 970.341 170.27 978.488 159.326C991.713 126.785 1029.01 182.418 1050.7 187.528C1057.47 191.449 1068.54 191.256 1075.42 191.626C1082.27 191.626 1091.79 191.626 1098.66 191.626C1116.37 191.626 1410.25 191.626 1427.96 191.626" stroke="#3C53C7" stroke-width="1.6" stroke-miterlimit="10"/>
<path d="M176.58 201.284C189.018 201.284 528.634 201.284 541.072 201.284C555.278 201.268 574.031 203.534 583.239 189.457C586.935 184.636 590.068 178.128 592.607 172.632C595.323 164.469 601.108 156.096 610.879 158.989C622.24 163.858 632.026 173.741 642.054 180.811C652.387 190.63 665.821 199.452 680.316 200.818C708.598 201.638 737.218 201.638 765.501 200.818C772.668 200.159 780.333 198.745 787.243 196.72C794.089 194.647 801.207 191.305 808.487 191.257C822.548 190.469 836.207 197.042 850.027 198.986C868.057 202.409 886.81 200.947 905.066 201.268C915.238 201.268 925.876 201.268 936.048 201.268C945.738 201.22 957.404 202.361 964.539 194.439C968.83 190.293 971.803 183.865 974.229 178.514C977.395 173.532 980.32 166.879 983.759 162.139C995.731 151.275 1009.74 168.1 1019.37 174.866C1050.54 202.361 1058.43 201.766 1098.67 201.252C1116.38 201.252 1410.26 201.252 1427.97 201.252" fill="white"/>
<path d="M176.58 201.284C189.018 201.284 528.634 201.284 541.072 201.284C555.278 201.268 574.031 203.534 583.239 189.457C586.935 184.636 590.068 178.128 592.607 172.632C595.323 164.469 601.108 156.096 610.879 158.989C622.24 163.858 632.026 173.741 642.054 180.811C652.387 190.63 665.821 199.452 680.316 200.818C708.598 201.638 737.218 201.638 765.501 200.818C772.668 200.159 780.333 198.745 787.243 196.72C794.089 194.647 801.207 191.305 808.487 191.257C822.548 190.469 836.207 197.042 850.027 198.986C868.057 202.409 886.81 200.947 905.066 201.268C915.238 201.268 925.876 201.268 936.048 201.268C945.738 201.22 957.404 202.361 964.539 194.439C968.83 190.293 971.803 183.865 974.229 178.514C977.395 173.532 980.32 166.879 983.759 162.139C995.731 151.275 1009.74 168.1 1019.37 174.866C1050.54 202.361 1058.43 201.766 1098.67 201.252C1116.38 201.252 1410.26 201.252 1427.97 201.252" stroke="#3C53C7" stroke-width="1.6" stroke-miterlimit="10"/>
<path d="M176.58 210.974C189.018 210.974 528.634 210.974 541.072 210.974C547.95 210.862 556.644 211.344 564.132 210.524C575.477 209.657 582.692 200.417 588.156 191.418C595.837 173.773 599.164 160.001 620.585 174.143C631.48 182.403 642.97 191.755 653.415 200.529C663.764 206.989 675.88 211.376 688.206 210.99C716.488 210.685 744.98 211.665 773.23 210.54C785.652 210.171 798.203 207.246 810.624 206.909C823.914 206.539 837.445 209.496 850.67 210.54C866.097 210.878 881.845 211.151 897.304 210.99C910.095 210.99 923.24 210.99 936.032 210.99C943.327 210.958 951.555 211.489 958.433 208.709C971.98 201.188 975.563 183.945 983.743 171.861C998.543 157.012 1026.87 194.519 1040.97 201.429C1050.96 208.162 1063.85 211.248 1075.42 210.974C1100.99 210.974 1402.39 210.974 1427.96 210.974" fill="white"/>
<path d="M176.58 210.974C189.018 210.974 528.634 210.974 541.072 210.974C547.95 210.862 556.644 211.344 564.132 210.524C575.477 209.657 582.692 200.417 588.156 191.418C595.837 173.773 599.164 160.001 620.585 174.143C631.48 182.403 642.97 191.755 653.415 200.529C663.764 206.989 675.88 211.376 688.206 210.99C716.488 210.685 744.98 211.665 773.23 210.54C785.652 210.171 798.203 207.246 810.624 206.909C823.914 206.539 837.445 209.496 850.67 210.54C866.097 210.878 881.845 211.151 897.304 210.99C910.095 210.99 923.24 210.99 936.032 210.99C943.327 210.958 951.555 211.489 958.433 208.709C971.98 201.188 975.563 183.945 983.743 171.861C998.543 157.012 1026.87 194.519 1040.97 201.429C1050.96 208.162 1063.85 211.248 1075.42 210.974C1100.99 210.974 1402.39 210.974 1427.96 210.974" stroke="#3C53C7" stroke-width="1.6" stroke-miterlimit="10"/>
<path d="M176.58 220.648C189.018 220.648 528.634 220.648 541.072 220.648C547.95 220.536 556.644 221.018 564.132 220.198C576.795 218.607 582.018 211.649 588.317 201.542C595.677 184.909 599.598 169.033 620.424 183.351C641.604 197.765 660.196 221.725 688.206 220.648C729.376 220.616 770.659 221.034 811.781 219.732C840.225 220.327 868.829 220.889 897.304 220.648C915.141 220.102 933.461 221.87 951.186 219.732C967.223 218.463 971.498 200.642 978.809 189.264C991.103 157.254 1025.11 203.711 1041.13 211.553C1046.53 214.574 1053.47 217.611 1059.43 219.282C1072.59 221.339 1085.75 220.472 1098.66 220.648C1116.37 220.648 1410.25 220.648 1427.96 220.648" fill="white"/>
<path d="M176.58 220.648C189.018 220.648 528.634 220.648 541.072 220.648C547.95 220.536 556.644 221.018 564.132 220.198C576.795 218.607 582.018 211.649 588.317 201.542C595.677 184.909 599.598 169.033 620.424 183.351C641.604 197.765 660.196 221.725 688.206 220.648C729.376 220.616 770.659 221.034 811.781 219.732C840.225 220.327 868.829 220.889 897.304 220.648C915.141 220.102 933.461 221.87 951.186 219.732C967.223 218.463 971.498 200.642 978.809 189.264C991.103 157.254 1025.11 203.711 1041.13 211.553C1046.53 214.574 1053.47 217.611 1059.43 219.282C1072.59 221.339 1085.75 220.472 1098.66 220.648C1116.37 220.648 1410.25 220.648 1427.96 220.648" stroke="#3C53C7" stroke-width="1.6" stroke-miterlimit="10"/>
<path d="M176.58 230.322C189.018 230.322 528.634 230.322 541.072 230.322C547.95 230.226 556.644 230.643 564.132 229.872C599.485 228.394 587.385 171.957 619.926 191.658C630.869 199.163 642.23 208.001 652.258 216.679C662.976 223.894 674.932 230.37 688.206 230.322C744.964 230.338 801.818 230.306 858.576 230.322C876.558 230.322 894.797 230.322 912.779 230.322C925.394 230.129 938.507 231.061 951.009 228.956C967.046 226.771 969.376 208.017 978.311 197.572C987.101 175.139 1009.05 196.688 1020.01 205.768C1029.48 213.079 1039.1 222.448 1050.69 226.24C1057.47 230.129 1068.51 229.985 1075.42 230.338C1082.27 230.338 1091.79 230.338 1098.66 230.338C1116.37 230.338 1410.25 230.338 1427.96 230.338" fill="white"/>
<path d="M176.58 230.322C189.018 230.322 528.634 230.322 541.072 230.322C547.95 230.226 556.644 230.643 564.132 229.872C599.485 228.394 587.385 171.957 619.926 191.658C630.869 199.163 642.23 208.001 652.258 216.679C662.976 223.894 674.932 230.37 688.206 230.322C744.964 230.338 801.818 230.306 858.576 230.322C876.558 230.322 894.797 230.322 912.779 230.322C925.394 230.129 938.507 231.061 951.009 228.956C967.046 226.771 969.376 208.017 978.311 197.572C987.101 175.139 1009.05 196.688 1020.01 205.768C1029.48 213.079 1039.1 222.448 1050.69 226.24C1057.47 230.129 1068.51 229.985 1075.42 230.338C1082.27 230.338 1091.79 230.338 1098.66 230.338C1116.37 230.338 1410.25 230.338 1427.96 230.338" stroke="#3C53C7" stroke-width="1.6" stroke-miterlimit="10"/>
<path d="M176.58 240.012C189.018 240.012 528.634 240.012 541.072 240.012C550.376 239.964 561.882 240.43 571.556 238.646C582.709 235.995 589.554 225.196 594.086 215.458C600.385 194.197 613.016 192.992 629.327 205.912C640.238 212.903 649.639 223.509 661.161 229.567C671.043 237.055 683.706 240.028 695.951 240.028C750.138 240.028 804.405 240.028 858.576 240.028C876.558 240.028 894.797 240.028 912.779 240.028C925.313 239.867 938.426 240.992 950.671 237.746C965.504 233.199 967.319 214.493 977.315 204.546C982.489 194.599 991.086 196.013 999.394 201.365C1014.36 210.444 1026.86 224.36 1041.96 233.198C1049.76 236.959 1059 239.642 1067.67 240.028C1096.34 240.06 1399.43 240.012 1427.96 240.028" fill="white"/>
<path d="M176.58 240.012C189.018 240.012 528.634 240.012 541.072 240.012C550.376 239.964 561.882 240.43 571.556 238.646C582.709 235.995 589.554 225.196 594.086 215.458C600.385 194.197 613.016 192.992 629.327 205.912C640.238 212.903 649.639 223.509 661.161 229.567C671.043 237.055 683.706 240.028 695.951 240.028C750.138 240.028 804.405 240.028 858.576 240.028C876.558 240.028 894.797 240.028 912.779 240.028C925.313 239.867 938.426 240.992 950.671 237.746C965.504 233.199 967.319 214.493 977.315 204.546C982.489 194.599 991.086 196.013 999.394 201.365C1014.36 210.444 1026.86 224.36 1041.96 233.198C1049.76 236.959 1059 239.642 1067.67 240.028C1096.34 240.06 1399.43 240.012 1427.96 240.028" stroke="#3C53C7" stroke-width="1.6" stroke-miterlimit="10"/>
<path d="M176.58 249.686C189.018 249.686 528.634 249.686 541.072 249.686C550.425 249.365 561.995 250.554 571.717 248.77C582.532 246.778 590.872 238.02 595.243 228.297C601.044 210.701 610.043 200.368 628.17 212.372C635.738 215.876 643.098 222.416 649.285 227.831C663.426 237.57 677.664 249.172 695.791 249.204C747.406 250.441 799.199 249.268 850.847 249.654C868.829 249.654 887.068 249.654 905.05 249.654C919.898 249.365 935.823 250.779 949.868 245.106C965.005 236.638 965.873 213.883 982.425 206.893C1001.47 205.993 1023.79 236.316 1042.46 244.19C1057.37 251.438 1075.18 249.429 1090.91 249.654C1111.26 249.654 1407.61 249.654 1427.96 249.654" fill="white"/>
<path d="M176.58 249.686C189.018 249.686 528.634 249.686 541.072 249.686C550.425 249.365 561.995 250.554 571.717 248.77C582.532 246.778 590.872 238.02 595.243 228.297C601.044 210.701 610.043 200.368 628.17 212.372C635.738 215.876 643.098 222.416 649.285 227.831C663.426 237.57 677.664 249.172 695.791 249.204C747.406 250.441 799.199 249.268 850.847 249.654C868.829 249.654 887.068 249.654 905.05 249.654C919.898 249.365 935.823 250.779 949.868 245.106C965.005 236.638 965.873 213.883 982.425 206.893C1001.47 205.993 1023.79 236.316 1042.46 244.19C1057.37 251.438 1075.18 249.429 1090.91 249.654C1111.26 249.654 1407.61 249.654 1427.96 249.654" stroke="#3C53C7" stroke-width="1.6" stroke-miterlimit="10"/>
<path d="M176.58 259.376C191.67 259.376 533.712 259.376 548.818 259.376C562.975 259.633 580.636 260.678 591.643 249.365C601.526 236.67 604.274 208.66 627.013 218.896C652.933 230.643 672.731 258.106 703.375 258.46C721.357 260.501 739.838 258.878 757.916 259.376C786.263 259.376 814.77 259.376 843.101 259.376C861.083 259.376 879.322 259.376 897.304 259.376C912.072 258.894 928.254 260.983 941.946 254.378C958.61 248.224 959.429 225.244 975.161 217.997C984.594 213.69 994.204 221.403 1001.55 226.642C1015.11 236.268 1027.68 249.059 1043.12 255.744C1055.51 260.163 1070.58 259.296 1083.17 259.376C1106.13 259.376 1404.99 259.376 1427.96 259.376" fill="white"/>
<path d="M176.58 259.376C191.67 259.376 533.712 259.376 548.818 259.376C562.975 259.633 580.636 260.678 591.643 249.365C601.526 236.669 604.274 208.66 627.013 218.896C652.933 230.643 672.731 258.106 703.375 258.46C721.357 260.501 739.838 258.878 757.916 259.376C786.263 259.376 814.77 259.376 843.101 259.376C861.083 259.376 879.322 259.376 897.304 259.376C912.072 258.894 928.254 260.983 941.946 254.378C958.61 248.224 959.429 225.244 975.162 217.997C984.594 213.69 994.204 221.403 1001.55 226.642C1015.11 236.268 1027.68 249.059 1043.12 255.744C1055.51 260.163 1070.58 259.296 1083.17 259.376C1106.13 259.376 1404.99 259.376 1427.96 259.376" stroke="#3C53C7" stroke-width="1.6" stroke-miterlimit="10"/>
<path d="M176.58 269.05C191.67 269.05 533.712 269.05 548.818 269.05C564.919 268.713 588.108 271.702 598.055 255.407C604.274 244.142 610.204 224.586 626.354 226.755C641.106 229.39 653.64 240.43 665.451 249.044C678.725 259.103 694.425 266.495 711.121 268.15C757.594 270.304 804.325 268.488 850.847 269.066C866.241 269.066 881.925 269.066 897.32 269.066C911.799 268.761 928.881 269.902 940.306 259.521C947.618 254.732 952.343 246.681 956.087 239.048C966.323 223.943 978.456 223.107 992.822 233.585C1036.88 265.949 1033.75 270.545 1090.93 269.066C1111.27 269.066 1407.63 269.066 1427.97 269.066" fill="white"/>
<path d="M176.58 269.05C191.67 269.05 533.712 269.05 548.818 269.05C564.919 268.713 588.108 271.702 598.055 255.407C604.274 244.142 610.204 224.586 626.354 226.755C641.106 229.39 653.64 240.43 665.451 249.044C678.725 259.103 694.425 266.495 711.121 268.15C757.594 270.304 804.325 268.488 850.847 269.066C866.241 269.066 881.925 269.066 897.32 269.066C911.799 268.761 928.881 269.902 940.306 259.521C947.618 254.732 952.343 246.681 956.087 239.048C966.323 223.943 978.456 223.107 992.822 233.585C1036.88 265.949 1033.75 270.545 1090.93 269.066C1111.27 269.066 1407.63 269.066 1427.97 269.066" stroke="#3C53C7" stroke-width="1.6" stroke-miterlimit="10"/>
<path d="M176.58 278.724C191.67 278.724 533.712 278.724 548.818 278.724C565.064 278.097 586.517 281.938 599.71 269.629C608.195 258.653 612.341 241.908 626.354 236.429C644.03 233.681 659.104 249.59 673.02 258.267C684.445 265.9 697.253 273.003 710.623 276.458C728.637 279.913 747.422 278.387 765.661 278.74C788.834 278.74 812.199 278.74 835.355 278.74C850.75 278.74 866.434 278.74 881.829 278.74C901 278.467 926.245 280.958 937.832 262.365C941.512 258.605 945.706 253.993 948.679 249.622C951.378 245.203 954.994 240.044 959.863 237.795C972.51 231.704 984.819 241.908 994.815 248.706C1007.8 257.833 1020.53 269.082 1035.39 275.092C1053 280.829 1072.98 278.113 1090.93 278.724C1111.27 278.724 1407.63 278.724 1427.97 278.724" fill="white"/>
<path d="M176.58 278.724C191.67 278.724 533.712 278.724 548.818 278.724C565.064 278.097 586.517 281.938 599.71 269.629C608.195 258.653 612.341 241.908 626.354 236.429C644.03 233.681 659.104 249.59 673.02 258.267C684.445 265.9 697.253 273.003 710.623 276.458C728.637 279.913 747.422 278.387 765.661 278.74C788.834 278.74 812.199 278.74 835.355 278.74C850.75 278.74 866.434 278.74 881.829 278.74C901 278.467 926.245 280.958 937.832 262.365C941.512 258.605 945.706 253.993 948.679 249.622C951.378 245.203 954.994 240.044 959.863 237.795C972.51 231.704 984.819 241.908 994.815 248.706C1007.8 257.833 1020.53 269.082 1035.39 275.092C1053 280.829 1072.98 278.113 1090.93 278.724C1111.27 278.724 1407.63 278.724 1427.97 278.724" stroke="#3C53C7" stroke-width="1.6" stroke-miterlimit="10"/>
<path d="M176.58 288.414C191.67 288.414 533.712 288.414 548.818 288.414C563.2 288.141 580.089 289.41 594.455 286.148C608.066 281.456 613.144 265.434 621.918 255.214C636.365 237.135 655.199 249.606 670.047 259.762C685.233 269.387 700.595 281.038 718.208 285.682C733.554 289.651 749.961 288.06 765.661 288.414C788.834 288.414 812.199 288.414 835.355 288.414C850.75 288.414 866.434 288.414 881.829 288.414C904.744 289.024 923.144 286.116 935.003 264.309C942.219 257.383 948.004 246.151 959.188 245.668C992.758 249.252 1010.69 289.715 1052.2 288.414C1064.99 288.446 1078.52 288.398 1090.93 288.414C1111.27 288.414 1407.63 288.414 1427.97 288.414" fill="white"/>
<path d="M176.58 288.414C191.67 288.414 533.712 288.414 548.818 288.414C563.2 288.141 580.089 289.41 594.455 286.148C608.066 281.456 613.144 265.434 621.918 255.214C636.365 237.135 655.199 249.606 670.047 259.762C685.233 269.387 700.595 281.038 718.208 285.682C733.554 289.651 749.961 288.06 765.661 288.414C788.834 288.414 812.199 288.414 835.355 288.414C850.75 288.414 866.434 288.414 881.829 288.414C904.744 289.024 923.144 286.116 935.003 264.309C942.219 257.383 948.004 246.151 959.188 245.668C992.758 249.252 1010.69 289.715 1052.2 288.414C1064.99 288.446 1078.52 288.398 1090.93 288.414C1111.27 288.414 1407.63 288.414 1427.97 288.414" stroke="#3C53C7" stroke-width="1.6" stroke-miterlimit="10"/>
<path d="M176.58 298.088C202.276 298.071 553.896 298.104 579.784 298.088C598.376 297.959 608.613 294.392 619.138 278.531C623.927 271.942 628.218 263.94 635.578 259.89C644.882 250.457 658.268 257.528 667.717 263.072C684.14 272.424 699.455 285.039 717.035 292.174C732.188 299.1 749.399 297.975 765.661 298.088C786.231 298.088 807.041 298.088 827.61 298.088C848.131 297.798 868.909 298.73 889.398 297.638C899.168 297.172 909.099 293.797 916.732 287.626C920.107 283.545 923.867 278.386 927.419 274.433C930.022 269.709 933.573 264.566 938.266 261.706C943.713 255.921 952.214 253.848 959.67 256.708C984.675 265.273 1002.17 288.43 1027.95 295.372C1045.55 299.775 1065.44 297.557 1083.15 298.104C1106.11 298.104 1404.98 298.104 1427.94 298.104" fill="white"/>
<path d="M176.58 298.088C202.276 298.071 553.896 298.104 579.784 298.088C598.376 297.959 608.613 294.392 619.138 278.531C623.927 271.942 628.218 263.94 635.578 259.89C644.882 250.457 658.268 257.528 667.717 263.072C684.14 272.424 699.455 285.039 717.035 292.174C732.188 299.1 749.399 297.975 765.661 298.088C786.231 298.088 807.041 298.088 827.61 298.088C848.131 297.798 868.909 298.73 889.398 297.638C899.168 297.172 909.099 293.797 916.732 287.626C920.107 283.545 923.867 278.386 927.419 274.433C930.022 269.709 933.573 264.566 938.266 261.706C943.713 255.921 952.214 253.848 959.67 256.708C984.675 265.273 1002.17 288.43 1027.95 295.372C1045.55 299.775 1065.44 297.557 1083.15 298.104C1106.11 298.104 1404.98 298.104 1427.94 298.104" stroke="#3C53C7" stroke-width="1.6" stroke-miterlimit="10"/>
<path d="M176.58 307.778C194.868 307.778 538.067 307.778 556.563 307.778C574.015 306.926 592.752 310.317 609.448 304.146C619.91 300.675 626.547 290.969 632.476 282.307C638.117 277.069 642.247 268.986 649.912 266.382C668.247 260.597 689.893 281.247 704.982 290.037C720.329 301.318 738.745 308.083 757.9 307.778C778.469 307.794 799.279 307.762 819.848 307.778C840.353 307.473 861.163 308.437 881.636 307.328C888.61 306.107 896.517 304.901 902.559 300.964C906.078 297.413 910.256 293.026 913.904 289.587C915.366 287.723 917.246 283.288 918.661 281.392C932.77 264.438 940.997 260.405 961.486 271.38C983.421 283.786 1002.59 303.535 1028.61 306.862C1046.35 308.34 1065.62 307.617 1083.15 307.778C1106.11 307.778 1404.98 307.778 1427.94 307.778" fill="white"/>
<path d="M176.58 307.778C194.868 307.778 538.067 307.778 556.563 307.778C574.015 306.926 592.752 310.317 609.448 304.146C619.91 300.675 626.547 290.969 632.476 282.307C638.117 277.069 642.247 268.986 649.912 266.382C668.247 260.597 689.893 281.247 704.982 290.037C720.329 301.318 738.745 308.083 757.9 307.778C778.469 307.794 799.279 307.762 819.848 307.778C840.353 307.473 861.163 308.437 881.636 307.328C888.61 306.107 896.517 304.901 902.559 300.964C906.078 297.413 910.256 293.026 913.904 289.587C915.366 287.723 917.246 283.288 918.661 281.392C932.77 264.438 940.997 260.405 961.486 271.38C983.421 283.786 1002.59 303.535 1028.61 306.862C1046.35 308.34 1065.62 307.617 1083.15 307.778C1106.11 307.778 1404.98 307.778 1427.94 307.778" stroke="#3C53C7" stroke-width="1.6" stroke-miterlimit="10"/>
<path d="M176.58 317.452C197.278 317.452 543.386 317.452 564.293 317.452C581.841 316.857 600.289 319.412 617.339 314.27C630.002 309.353 638.631 297.044 645.798 286.068C649.462 282.934 653.768 278.869 657.641 276.057C673.775 271.043 689.62 283.208 702.154 291.982C716.762 301.961 731.803 313.001 749.656 316.086C772.845 318.882 796.547 316.873 819.848 317.452C835.179 317.227 850.847 317.982 866.145 317.002C873.392 316.632 881.411 316.6 887.887 312.904C895.601 310.542 901 303.761 905.5 297.445C909.276 293.54 912.811 288.141 916.025 283.802C930.102 270.882 938.298 272.778 954.078 281.986C970.501 291.789 985.88 304.821 1003.73 312.004C1019.03 318.127 1036 317.468 1052.18 317.468C1064.97 317.468 1078.51 317.468 1090.91 317.468C1111.26 317.468 1407.61 317.468 1427.96 317.468" fill="white"/>
<path d="M176.58 317.452C197.278 317.452 543.386 317.452 564.293 317.452C581.841 316.857 600.289 319.412 617.339 314.27C630.002 309.353 638.631 297.044 645.798 286.068C649.462 282.934 653.769 278.869 657.641 276.057C673.775 271.043 689.62 283.208 702.154 291.982C716.762 301.961 731.803 313.001 749.656 316.086C772.845 318.882 796.547 316.873 819.848 317.452C835.179 317.227 850.847 317.982 866.145 317.002C873.392 316.632 881.411 316.6 887.887 312.904C895.601 310.542 901 303.761 905.5 297.445C909.276 293.54 912.811 288.141 916.025 283.802C930.102 270.882 938.298 272.778 954.078 281.986C970.501 291.789 985.88 304.821 1003.73 312.004C1019.03 318.127 1036 317.468 1052.18 317.468C1064.97 317.468 1078.51 317.468 1090.91 317.468C1111.26 317.468 1407.61 317.468 1427.96 317.468" stroke="#3C53C7" stroke-width="1.6" stroke-miterlimit="10"/>
<path d="M176.58 327.125C199.769 327.125 548.657 327.125 572.038 327.125C589.586 326.531 608.034 329.086 625.084 323.944C635.015 320.151 643.452 312.325 648.449 303.021C652.467 299.389 655.97 294.118 659.136 289.828C675.671 276.458 695.437 291.579 709.739 301.205C750.01 333.875 772.073 326.37 819.848 327.125C837.75 326.065 873.521 330.998 886.409 318.48C898.3 311.827 898.718 301.543 908.44 293.926C920.509 276.297 943.713 287.723 956.569 298.473C969.039 307.135 982.377 315.716 996.148 322.128C1011.56 327.463 1028.32 327.254 1044.44 327.125C1056.92 327.125 1071.05 327.125 1083.17 327.125C1106.13 327.125 1404.99 327.125 1427.96 327.125" fill="white"/>
<path d="M176.58 327.125C199.769 327.125 548.657 327.125 572.038 327.125C589.586 326.531 608.034 329.086 625.084 323.944C635.015 320.151 643.452 312.325 648.449 303.021C652.467 299.389 655.97 294.118 659.136 289.828C675.671 276.458 695.437 291.579 709.739 301.205C750.01 333.875 772.073 326.37 819.848 327.125C837.75 326.065 873.521 330.998 886.409 318.48C898.3 311.827 898.718 301.543 908.44 293.926C920.509 276.297 943.713 287.723 956.569 298.473C969.039 307.135 982.377 315.716 996.148 322.128C1011.56 327.463 1028.32 327.254 1044.44 327.125C1056.92 327.125 1071.05 327.125 1083.17 327.125C1106.13 327.125 1404.99 327.125 1427.96 327.125" stroke="#3C53C7" stroke-width="1.6" stroke-miterlimit="10"/>
<path d="M176.58 336.815C202.276 336.815 553.896 336.815 579.784 336.815C601.864 335.771 626.836 340.994 646.168 327.72C651.663 321.453 658.075 315.073 662.109 307.713C673.679 290.214 690.6 291.772 706.589 302.25C754.316 337.603 761.596 337.539 819.848 336.815C839.502 336.269 861.469 339.756 878.486 327.72C881.958 323.928 885.846 319.091 889.51 315.443C892.853 311.12 896.099 305.319 899.859 301.35C908.842 293.717 919.319 291.885 929.684 298.168C947.811 305.383 961.727 320.778 979.5 328.636C997.145 337.33 1017.49 336.896 1036.69 336.815C1051.78 336.815 1068.4 336.815 1083.17 336.815C1106.13 336.815 1404.99 336.815 1427.96 336.815" fill="white"/>
<path d="M176.58 336.815C202.276 336.815 553.896 336.815 579.784 336.815C601.864 335.771 626.836 340.994 646.168 327.72C651.663 321.453 658.075 315.073 662.109 307.713C673.679 290.214 690.6 291.772 706.589 302.25C754.316 337.603 761.596 337.539 819.848 336.815C839.502 336.269 861.469 339.756 878.486 327.72C881.957 323.928 885.846 319.091 889.51 315.443C892.853 311.12 896.099 305.319 899.859 301.35C908.842 293.717 919.319 291.885 929.684 298.168C947.811 305.383 961.727 320.778 979.5 328.636C997.145 337.33 1017.49 336.896 1036.69 336.815C1051.78 336.815 1068.4 336.815 1083.17 336.815C1106.13 336.815 1404.99 336.815 1427.96 336.815" stroke="#3C53C7" stroke-width="1.6" stroke-miterlimit="10"/>
<path d="M176.58 346.489C207.386 346.489 564.309 346.489 595.275 346.489C613.193 345.477 639.868 350.169 653.913 337.394C661.675 333.489 664.519 324.362 670.192 318.287C682.597 300.98 697.446 300.225 714.335 311.924C730.774 321.71 745.976 335 763.99 341.942C776.846 346.216 790.939 346.473 804.373 346.489C817.1 346.281 830.229 346.988 842.924 346.04C858.721 345.59 873.794 337.153 880.945 322.835C886.602 317.436 891.278 309.867 897.883 305.544C922.839 297.172 950.012 330.131 972.092 339.194C987.198 346.618 1004.73 346.747 1021.2 346.473C1033.98 346.473 1047.14 346.473 1059.93 346.473C1091.1 346.473 1396.93 346.473 1427.96 346.473" fill="white"/>
<path d="M176.58 346.489C207.386 346.489 564.309 346.489 595.275 346.489C613.193 345.477 639.868 350.169 653.913 337.394C661.675 333.489 664.519 324.362 670.192 318.287C682.597 300.98 697.446 300.225 714.335 311.924C730.774 321.71 745.976 335 763.99 341.942C776.846 346.216 790.939 346.473 804.373 346.489C817.1 346.281 830.229 346.988 842.924 346.04C858.721 345.59 873.794 337.153 880.945 322.835C886.602 317.436 891.278 309.867 897.883 305.544C922.839 297.172 950.012 330.131 972.092 339.194C987.198 346.618 1004.73 346.747 1021.2 346.473C1033.98 346.473 1047.14 346.473 1059.93 346.473C1091.1 346.473 1396.93 346.473 1427.96 346.473" stroke="#3C53C7" stroke-width="1.6" stroke-miterlimit="10"/>
<path d="M176.58 356.179C204.831 356.179 559.118 356.179 587.529 356.179C602.86 355.954 618.528 356.726 633.826 355.729C646.071 355.649 660.132 353.046 667.749 342.536C673.534 336.671 677.391 328.475 684.028 323.429C691.388 314.655 701.672 310.381 712.358 316.15C726.757 321.951 738.954 332.975 752.275 340.704C774.95 357.192 800.902 356.693 827.61 356.163C851.264 356.002 858.512 349.8 873.216 332.509C877.056 325.454 882.809 318.785 890.153 315.234C898.22 311.329 907.572 314.35 914.707 318.865C921.682 321.79 928.881 327.029 934.827 331.593C944.549 337.169 954.528 344.223 964.523 349.334C979.789 356.356 997 356.485 1013.47 356.147C1028.85 356.147 1044.55 356.147 1059.94 356.147C1091.12 356.147 1396.94 356.147 1427.97 356.147" fill="white"/>
<path d="M176.58 356.179C204.831 356.179 559.118 356.179 587.529 356.179C602.86 355.954 618.528 356.726 633.826 355.729C646.071 355.649 660.132 353.046 667.749 342.536C673.534 336.671 677.391 328.475 684.028 323.429C691.388 314.655 701.672 310.381 712.358 316.15C726.757 321.951 738.954 332.975 752.275 340.704C774.95 357.192 800.902 356.693 827.61 356.163C851.264 356.002 858.512 349.8 873.216 332.509C877.056 325.454 882.809 318.785 890.153 315.234C898.22 311.329 907.572 314.35 914.707 318.865C921.682 321.79 928.881 327.029 934.827 331.593C944.549 337.169 954.528 344.223 964.523 349.334C979.79 356.356 997 356.485 1013.47 356.147C1028.85 356.147 1044.55 356.147 1059.94 356.147C1091.12 356.147 1396.94 356.147 1427.97 356.147" stroke="#3C53C7" stroke-width="1.6" stroke-miterlimit="10"/>
<path d="M176.58 365.853C207.386 365.853 564.309 365.853 595.275 365.853C608.066 365.853 621.211 365.853 634.003 365.853C646.023 365.805 660.132 366.094 669.902 358.124C686.085 347.293 695.807 314.752 719.943 325.374C741.123 333.746 757.836 351.342 778.983 359.939C796.676 367.155 831.885 369.565 848.179 358.573C857.21 352.355 862.481 341.845 870.387 334.469C874.582 328.073 881.572 323.043 889.478 323.092C899.538 323.992 909.26 329.391 917.182 335.369C935.341 346.2 952.632 361.177 974.246 364.471C1002.59 367.444 1031.45 365.146 1059.93 365.837C1091.1 365.837 1396.93 365.837 1427.96 365.837" fill="white"/>
<path d="M176.58 365.853C207.386 365.853 564.309 365.853 595.275 365.853C608.066 365.853 621.211 365.853 634.003 365.853C646.023 365.805 660.132 366.094 669.902 358.124C686.085 347.293 695.807 314.752 719.943 325.374C741.123 333.746 757.836 351.342 778.983 359.939C796.676 367.155 831.884 369.565 848.179 358.573C857.21 352.355 862.481 341.845 870.387 334.469C874.582 328.073 881.572 323.043 889.478 323.092C899.538 323.992 909.26 329.391 917.182 335.369C935.341 346.2 952.632 361.177 974.246 364.471C1002.59 367.444 1031.45 365.146 1059.93 365.837C1091.1 365.837 1396.93 365.837 1427.96 365.837" stroke="#3C53C7" stroke-width="1.6" stroke-miterlimit="10"/>
<path d="M176.58 375.527C207.386 375.527 564.309 375.527 595.275 375.527C618.238 374.901 641.652 377.038 664.471 374.161C694.826 367.862 696.16 333.682 719.108 332.766C741.541 335.787 757.964 354.235 777.167 364.6C795.969 375.383 820.925 379.143 840.45 368.232C854.093 356.887 861.212 332.83 881.749 332.75C895.81 334.63 908.713 344.722 920.01 352.757C934.296 362.559 949.354 371.494 966.677 374.595C995.056 376.476 1023.76 375.11 1052.2 375.511C1085.9 375.511 1394.4 375.511 1427.97 375.511" fill="white"/>
<path d="M176.58 375.527C207.386 375.527 564.309 375.527 595.275 375.527C618.238 374.901 641.652 377.038 664.471 374.161C694.826 367.862 696.16 333.682 719.108 332.766C741.541 335.787 757.964 354.235 777.167 364.6C795.969 375.383 820.925 379.143 840.45 368.232C854.093 356.887 861.212 332.83 881.749 332.75C895.809 334.63 908.713 344.722 920.01 352.757C934.296 362.559 949.354 371.494 966.677 374.595C995.056 376.476 1023.76 375.11 1052.2 375.511C1085.9 375.511 1394.4 375.511 1427.97 375.511" stroke="#3C53C7" stroke-width="1.6" stroke-miterlimit="10"/>
<path d="M176.58 385.217C207.386 385.217 564.309 385.217 595.275 385.217C620.826 384.526 646.81 386.824 672.216 383.852C679.142 382.068 686.31 378.661 691.966 374.306C703.022 364.198 709.932 342.842 726.837 342.472C740.962 343.227 752.95 353.4 764.44 360.663C785.765 375.785 815.236 395.052 838.441 372.49C847.874 360.792 856.294 341.219 874.148 342.922C884.545 343.806 894.138 349.912 902.189 356.115C920.139 366.641 937.092 382.02 958.754 383.852C987.117 386.824 1015.96 384.543 1044.44 385.217C1080.67 385.217 1391.83 385.217 1427.96 385.217" fill="white"/>
<path d="M176.58 385.217C207.386 385.217 564.309 385.217 595.275 385.217C620.826 384.526 646.81 386.824 672.216 383.852C679.142 382.068 686.31 378.661 691.966 374.306C703.022 364.198 709.932 342.842 726.837 342.472C740.962 343.227 752.95 353.4 764.44 360.663C785.765 375.785 815.236 395.052 838.441 372.49C847.874 360.792 856.294 341.219 874.148 342.922C884.545 343.806 894.138 349.912 902.189 356.115C920.139 366.641 937.092 382.02 958.754 383.852C987.117 386.824 1015.96 384.543 1044.44 385.217C1080.67 385.217 1391.83 385.217 1427.96 385.217" stroke="#3C53C7" stroke-width="1.6" stroke-miterlimit="10"/>
<path d="M176.58 394.891C217.686 394.891 585.039 394.891 626.257 394.891C639.049 394.875 652.194 394.924 664.985 394.891C679.785 394.49 696.546 392.385 705.818 379.432C709.98 375.527 713.21 369.742 716.006 364.873C719.092 361.049 723.43 356.903 727.689 354.412C751.89 342.761 784.431 386.455 809.644 388.062C821.439 389.524 827.98 381.441 835.484 373.969C838.521 369.405 841.751 363.668 845.849 359.876C853.016 351.053 865.856 350.571 875.337 355.778C886.087 360.068 896.131 367.605 905.355 374.419C939.985 398.346 958.16 394.747 997.996 394.891C1049.61 394.891 1376.45 394.891 1427.97 394.891" fill="white"/>
<path d="M176.58 394.891C217.686 394.891 585.039 394.891 626.257 394.891C639.049 394.875 652.194 394.924 664.985 394.891C679.785 394.49 696.546 392.385 705.818 379.432C709.98 375.527 713.21 369.742 716.006 364.873C719.092 361.049 723.43 356.903 727.689 354.412C751.89 342.761 784.431 386.455 809.644 388.062C821.439 389.524 827.98 381.441 835.484 373.969C838.521 369.405 841.751 363.668 845.849 359.876C853.016 351.053 865.856 350.571 875.337 355.778C886.087 360.068 896.131 367.605 905.355 374.419C939.985 398.346 958.16 394.747 997.996 394.891C1049.61 394.891 1376.45 394.891 1427.97 394.891" stroke="#3C53C7" stroke-width="1.6" stroke-miterlimit="10"/>
<path d="M176.58 404.581C220.274 404.581 590.197 404.581 634.003 404.581C654.315 403.36 693.091 409.016 708.309 395.936C718.401 386.615 724.009 372.41 735.611 364.552C757.37 354.251 779.112 380.879 798.427 388.206C815.976 395.004 821.166 386.744 832.511 375.479C835.516 371.349 839.132 366.4 843.856 364.102C851.12 359.859 860.312 362.623 867.591 365.468C881.202 373.406 894.958 382.485 908.006 391.388C920.975 399.423 936.064 404.099 951.362 404.115C969.376 405.144 987.712 404.324 1005.74 404.565C1054.79 404.565 1379.04 404.565 1427.97 404.565" fill="white"/>
<path d="M176.58 404.581C220.274 404.581 590.197 404.581 634.003 404.581C654.315 403.36 693.091 409.016 708.309 395.936C718.401 386.615 724.009 372.41 735.611 364.552C757.37 354.251 779.112 380.879 798.427 388.206C815.976 395.004 821.166 386.744 832.511 375.479C835.516 371.349 839.132 366.4 843.856 364.102C851.12 359.859 860.312 362.623 867.591 365.468C881.202 373.406 894.958 382.485 908.006 391.388C920.975 399.423 936.064 404.099 951.362 404.115C969.376 405.144 987.712 404.324 1005.74 404.565C1054.79 404.565 1379.04 404.565 1427.97 404.565" stroke="#3C53C7" stroke-width="1.6" stroke-miterlimit="10"/>
<path d="M176.58 414.255C222.845 414.255 595.371 414.255 641.748 414.255C662.06 413.018 700.804 418.723 716.054 405.61C725.616 395.824 732.06 382.277 743.357 374.226C761.837 365.291 778.742 383.273 795.294 389.235C802.573 391.951 811.781 393.702 818.032 387.869C834.102 375.431 838.569 365.179 860.199 376.042C867.238 378.581 874.308 383.787 880.158 388.319C886.441 392.111 893.961 396.579 900.116 400.596C914.868 411.299 933.654 414.657 951.555 414.239C966.934 414.239 982.634 414.239 998.028 414.239C1049.64 414.239 1376.48 414.239 1428 414.239" fill="white"/>
<path d="M176.58 414.255C222.845 414.255 595.371 414.255 641.748 414.255C662.06 413.018 700.804 418.723 716.054 405.61C725.616 395.824 732.06 382.277 743.357 374.226C761.837 365.291 778.742 383.273 795.294 389.235C802.573 391.951 811.781 393.702 818.032 387.869C834.102 375.431 838.569 365.179 860.199 376.042C867.238 378.581 874.308 383.787 880.158 388.319C886.441 392.111 893.961 396.579 900.116 400.596C914.868 411.299 933.653 414.657 951.555 414.239C966.934 414.239 982.634 414.239 998.028 414.239C1049.64 414.239 1376.48 414.239 1428 414.239" stroke="#3C53C7" stroke-width="1.6" stroke-miterlimit="10"/>
<path d="M176.58 423.929C222.845 423.929 595.371 423.929 641.748 423.929C657.143 423.913 672.827 423.961 688.222 423.929C700.226 422.804 714.592 424.652 723.8 415.283C734.743 406.847 740.014 392.673 751.424 384.815C767.076 374.145 783.981 390.054 800.211 391.179C821.873 391.549 828.526 372.217 852.759 386.631C866.884 393.364 879.306 404.003 892.837 411.652C908.231 420.619 925.956 424.941 943.777 423.929C961.759 423.929 979.998 423.929 997.98 423.929C1049.6 423.929 1376.44 423.929 1427.96 423.929" fill="white"/>
<path d="M176.58 423.929C222.845 423.929 595.371 423.929 641.748 423.929C657.143 423.913 672.827 423.961 688.222 423.929C700.226 422.804 714.592 424.652 723.8 415.283C734.743 406.847 740.014 392.673 751.424 384.815C767.076 374.145 783.981 390.054 800.211 391.179C821.873 391.549 828.526 372.217 852.759 386.631C866.884 393.364 879.306 404.003 892.837 411.652C908.231 420.619 925.956 424.941 943.777 423.929C961.759 423.929 979.998 423.929 997.98 423.929C1049.6 423.929 1376.44 423.929 1427.96 423.929" stroke="#3C53C7" stroke-width="1.6" stroke-miterlimit="10"/>
<path d="M176.58 433.619C225.432 433.619 600.53 433.619 649.494 433.619C662.285 433.619 675.43 433.619 688.222 433.619C702.877 433.33 719.461 435.435 732.044 426.339C743.71 418.546 748.885 404.115 759.507 395.405C770.209 386.953 784.736 391.259 797.078 392.224C810.014 392.529 823.866 387.274 836.127 393.14C850.348 398.346 862.288 409.241 875.546 416.328C892.58 429.65 914.723 434.551 936.048 433.619C951.427 433.619 967.127 433.619 982.521 433.619C1039.28 433.619 1371.31 433.619 1427.99 433.619" fill="white"/>
<path d="M176.58 433.619C225.432 433.619 600.53 433.619 649.494 433.619C662.285 433.619 675.43 433.619 688.222 433.619C702.877 433.33 719.461 435.435 732.044 426.339C743.71 418.546 748.885 404.115 759.507 395.405C770.209 386.953 784.736 391.259 797.078 392.224C810.014 392.529 823.866 387.274 836.127 393.14C850.348 398.346 862.288 409.241 875.546 416.328C892.58 429.65 914.723 434.551 936.048 433.619C951.427 433.619 967.127 433.619 982.521 433.619C1039.28 433.619 1371.31 433.619 1427.99 433.619" stroke="#3C53C7" stroke-width="1.6" stroke-miterlimit="10"/>
<path d="M176.58 443.293C225.432 443.293 600.53 443.293 649.494 443.293C664.889 443.293 680.573 443.293 695.967 443.293C708.325 443.036 721.679 444.498 733.361 439.661C749.479 434.246 755.811 416.762 767.574 405.995C774.741 398.073 786.247 399.503 795.905 398.716C810.255 398.523 825.971 398.892 837.943 407.811C856.857 419.22 874.533 434.888 896.324 440.561C911.831 443.887 928.029 443.293 943.777 443.293C961.759 443.293 979.998 443.293 997.98 443.293C1049.6 443.293 1376.44 443.293 1427.96 443.293" fill="white"/>
<path d="M176.58 443.293C225.432 443.293 600.53 443.293 649.494 443.293C664.889 443.293 680.573 443.293 695.967 443.293C708.325 443.036 721.679 444.498 733.361 439.661C749.479 434.246 755.811 416.762 767.574 405.995C774.741 398.073 786.247 399.503 795.905 398.716C810.255 398.523 825.971 398.892 837.943 407.811C856.857 419.22 874.533 434.888 896.324 440.561C911.831 443.887 928.029 443.293 943.777 443.293C961.759 443.293 979.998 443.293 997.98 443.293C1049.6 443.293 1376.44 443.293 1427.96 443.293" stroke="#3C53C7" stroke-width="1.6" stroke-miterlimit="10"/>
<path d="M176.58 452.983C225.432 452.983 600.53 452.983 649.494 452.983C677.632 452.26 706.188 454.671 734.181 451.617C751.247 449.689 760.278 433.941 769.727 421.599C774.516 415.895 780.654 409.997 788.32 408.872C802.573 406.928 817.615 409.627 830.02 417.051C848.661 429.216 866.434 444.981 888.578 450.251C903.909 454.221 920.332 452.63 936.032 452.983C954.014 452.983 972.253 452.983 990.235 452.983C1044.42 452.983 1373.87 452.983 1427.96 452.983" fill="white"/>
<path d="M176.58 452.983C225.432 452.983 600.53 452.983 649.494 452.983C677.632 452.26 706.188 454.671 734.181 451.617C751.247 449.689 760.278 433.941 769.727 421.599C774.516 415.895 780.654 409.997 788.32 408.872C802.573 406.928 817.615 409.627 830.02 417.051C848.661 429.216 866.434 444.981 888.578 450.251C903.909 454.221 920.332 452.63 936.032 452.983C954.014 452.983 972.253 452.983 990.235 452.983C1044.42 452.983 1373.87 452.983 1427.96 452.983" stroke="#3C53C7" stroke-width="1.6" stroke-miterlimit="10"/>
<path d="M176.58 462.657C228.019 462.657 605.704 462.657 657.24 462.657C682.935 462.336 708.855 463.332 734.518 462.207C755.891 462.914 766.69 449.127 778.292 433.555C790.859 416.312 807.009 419.478 823.271 429.457C840.048 438.263 854.302 452.437 872.589 458.559C890.635 463.493 909.758 462.593 928.286 462.657C946.268 462.657 964.507 462.657 982.489 462.657C1039.25 462.657 1371.28 462.657 1427.96 462.657" fill="white"/>
<path d="M176.58 462.657C228.019 462.657 605.704 462.657 657.24 462.657C682.935 462.336 708.855 463.332 734.518 462.207C755.891 462.914 766.69 449.127 778.292 433.555C790.859 416.312 807.009 419.478 823.271 429.457C840.048 438.263 854.302 452.437 872.589 458.559C890.635 463.493 909.758 462.593 928.286 462.657C946.268 462.657 964.507 462.657 982.489 462.657C1039.25 462.657 1371.28 462.657 1427.96 462.657" stroke="#3C53C7" stroke-width="1.6" stroke-miterlimit="10"/>
<path d="M176.58 472.331C230.606 472.331 610.863 472.331 664.969 472.331C693.187 471.929 721.663 473.312 749.833 471.415C766.947 470.451 776.235 456.824 786.857 445.495C798.251 433.266 814.594 439.919 826.405 447.777C844.419 457.949 859.589 470.612 881.475 471.431C894.267 473.247 907.637 472.01 920.525 472.347C941.094 472.347 961.904 472.347 982.473 472.347C1039.23 472.347 1371.26 472.347 1427.94 472.347" fill="white"/>
<path d="M176.58 472.331C230.606 472.331 610.863 472.331 664.969 472.331C693.187 471.929 721.663 473.312 749.833 471.415C766.947 470.451 776.235 456.824 786.857 445.495C798.251 433.266 814.594 439.919 826.405 447.777C844.419 457.949 859.589 470.612 881.475 471.431C894.267 473.247 907.637 472.01 920.525 472.347C941.094 472.347 961.904 472.347 982.473 472.347C1039.23 472.347 1371.26 472.347 1427.94 472.347" stroke="#3C53C7" stroke-width="1.6" stroke-miterlimit="10"/>
<path d="M176.58 482.021C233.194 482.021 616.021 482.021 672.715 482.021C690.697 482.021 708.936 482.021 726.918 482.021C741.782 481.78 757.643 483.082 771.736 477.474C783.515 473.328 790.875 460.793 803.666 458.833C823.207 458.303 838.859 474.099 857.258 478.39C870.018 482.728 884.031 481.989 897.304 482.021C915.286 482.021 933.525 482.021 951.507 482.021C1018.57 482.021 1360.96 482.021 1427.96 482.021" fill="white"/>
<path d="M176.58 482.021C233.194 482.021 616.021 482.021 672.715 482.021C690.697 482.021 708.936 482.021 726.918 482.021C741.782 481.78 757.643 483.082 771.736 477.474C783.515 473.328 790.875 460.793 803.666 458.833C823.207 458.303 838.859 474.099 857.258 478.39C870.018 482.728 884.031 481.989 897.304 482.021C915.286 482.021 933.525 482.021 951.507 482.021C1018.57 482.021 1360.96 482.021 1427.96 482.021" stroke="#3C53C7" stroke-width="1.6" stroke-miterlimit="10"/>
<path d="M176.58 491.695C233.194 491.695 616.021 491.695 672.715 491.695C693.284 491.695 714.094 491.695 734.663 491.695C747.294 491.759 760.246 492.113 772.716 489.879C784.8 488.015 795.229 480.012 807.458 478.968C824.878 478.807 840.948 488.417 858.062 490.345C873.505 492.579 889.478 491.454 905.017 491.711C925.586 491.711 946.397 491.711 966.966 491.711C1028.88 491.711 1366.09 491.711 1427.92 491.711" fill="white"/>
<path d="M176.58 491.695C233.194 491.695 616.021 491.695 672.715 491.695C693.284 491.695 714.094 491.695 734.663 491.695C747.294 491.759 760.246 492.113 772.716 489.879C784.8 488.015 795.229 480.012 807.458 478.968C824.878 478.807 840.948 488.417 858.062 490.345C873.505 492.579 889.478 491.454 905.017 491.711C925.586 491.711 946.397 491.711 966.966 491.711C1028.88 491.711 1366.09 491.711 1427.92 491.711" stroke="#3C53C7" stroke-width="1.6" stroke-miterlimit="10"/>
<path d="M176.58 501.384C233.194 501.384 616.021 501.384 672.715 501.384C706.156 501.031 739.805 502.108 773.23 500.935C785.491 500.035 797.64 495.599 809.966 495.471C826.132 495.133 842.233 500.677 858.415 500.935C894.524 502.108 930.857 501.047 966.998 501.384C1028.91 501.384 1366.12 501.384 1427.96 501.384" fill="white"/>
<path d="M176.58 501.384C233.194 501.384 616.021 501.384 672.715 501.384C706.156 501.031 739.805 502.108 773.23 500.935C785.491 500.035 797.64 495.599 809.965 495.471C826.132 495.133 842.233 500.677 858.415 500.935C894.524 502.108 930.857 501.047 966.998 501.384C1028.91 501.384 1366.12 501.384 1427.96 501.384" stroke="#3C53C7" stroke-width="1.6" stroke-miterlimit="10"/>
<path d="M280.999 137.541C281 87.5413 429 90.542 429 90.542L293.999 66.5413L145.895 90.5418L145.895 425.886L217.477 741.76L528.999 475.542C528.999 475.542 264.999 283.542 364.999 236.542C464.999 189.542 280.999 187.541 280.999 137.541Z" fill="white"/>
</g>
</svg>
