<svg width="1728" height="1615" viewBox="0 0 1728 1615" fill="none" xmlns="http://www.w3.org/2000/svg">
<rect x="3" y="255" width="1723" height="1094" fill="white"/>
<g opacity="0.07">
<path d="M-216 70.9866C-26.5279 73.9786 163.334 63.0557 352.778 61.3342C525.198 59.7562 697.31 67.7896 869.618 71.0276C1034.15 74.1221 1198.69 79.0405 1363.31 77.6264C1560.41 75.9255 1757.96 68.8757 1955.01 70.9866" stroke="#3767CD" stroke-width="1.6" stroke-miterlimit="10"/>
<path d="M-216 50.4922C-25.4969 53.1358 165.73 47.5411 356.317 45.8811C527.455 44.3851 698.481 48.9142 869.591 50.5332C1231.45 53.9556 1593.29 47.0903 1955.01 50.5332" stroke="#3767CD" stroke-width="1.6" stroke-miterlimit="10"/>
<path d="M-216 29.9986C507.477 36.1467 1231.45 25.8999 1955.01 29.9986" stroke="#3767CD" stroke-width="1.6" stroke-miterlimit="10"/>
<path d="M-216 91.4793C-27.8932 94.2665 159.935 76.6217 348.181 75.2487C522.272 73.9986 695.778 86.1716 869.618 91.5204C1034.01 96.5823 1198.41 103.693 1363.11 102.505C1560.41 101.091 1757.77 89.4915 1955.01 91.4793" stroke="#3767CD" stroke-width="1.6" stroke-miterlimit="10"/>
<path d="M-216 111.973C-29.3142 114.022 155.588 88.5283 342.664 87.8725C518.845 87.2782 693.967 104.124 869.591 112.014C1033.85 119.392 1198.16 128.9 1362.78 128.224C1560.47 127.404 1757.38 110.456 1954.96 111.973" stroke="#3767CD" stroke-width="1.6" stroke-miterlimit="10"/>
<path d="M-216 132.466C-30.4288 133.512 150.405 99.0822 336.366 99.4306C514.999 99.7585 691.905 121.707 869.591 132.487C1033.6 142.467 1197.8 154.579 1362.55 154.64C1560.8 154.64 1756.99 131.708 1955.01 132.466" stroke="#3767CD" stroke-width="1.6" stroke-miterlimit="10"/>
<path d="M-216 152.959C-31.7105 152.651 144.554 108.57 329.485 110.107C510.821 111.644 689.648 138.941 869.535 152.979C1033.29 165.747 1197.38 180.625 1362.25 181.67C1561.14 182.859 1756.46 153.225 1955.01 152.979" stroke="#3767CD" stroke-width="1.6" stroke-miterlimit="10"/>
<path d="M-216 173.453C-32.9365 171.567 138.145 117.28 322.155 120.17C506.166 123.059 687.336 155.91 869.508 173.453C1032.87 189.192 1196.88 206.96 1361.91 208.989C1561.55 211.468 1755.87 174.805 1955.01 173.453" stroke="#3767CD" stroke-width="1.6" stroke-miterlimit="10"/>
<path d="M-216 193.947C-34.1625 190.32 131.319 125.519 314.522 129.823C501.988 134.229 684.968 172.675 869.452 193.927C1032.43 212.699 1196.35 233.438 1361.55 236.635C1562 240.529 1755.26 196.55 1955.04 193.947" stroke="#3767CD" stroke-width="1.6" stroke-miterlimit="10"/>
<path d="M-216 214.44C-35.2771 209.009 124.157 133.573 306.775 139.29C497.473 145.274 682.627 189.294 869.424 214.399C1031.9 236.224 1195.73 260.017 1361.19 264.403C1562.45 269.751 1754.7 218.354 1955.01 214.44" stroke="#3767CD" stroke-width="1.6" stroke-miterlimit="10"/>
<path d="M-216 234.934C-36.2801 227.7 116.802 141.689 299.058 148.861C493.016 156.424 680.397 205.936 869.368 234.934C1031.37 259.793 1195.07 286.619 1360.85 292.213C1562.89 299.017 1754.15 240.222 1955.01 234.996" stroke="#3767CD" stroke-width="1.6" stroke-miterlimit="10"/>
<path d="M-216 255.427C-37.1161 246.491 109.362 150.152 291.506 158.574C488.668 167.673 678.308 222.493 869.341 255.345C1030.78 283.113 1194.37 312.972 1360.49 319.714C1563.34 327.912 1753.65 261.903 1955.01 255.427" stroke="#3767CD" stroke-width="1.6" stroke-miterlimit="10"/>
<path d="M-216 275.922C-37.6733 265.429 101.951 159.232 284.318 168.823C484.573 179.356 676.414 239.197 869.285 275.819C1030.22 306.375 1193.64 339.185 1360.16 346.973C1563.81 356.481 1753.03 283.443 1955.01 275.922" stroke="#3767CD" stroke-width="1.6" stroke-miterlimit="10"/>
<path d="M-216 296.414C-37.9798 284.63 94.6776 169.19 277.63 179.785C480.783 191.569 674.769 256.123 869.256 296.311C1029.67 329.449 1192.92 365.087 1359.85 373.756C1564.31 384.372 1752.73 304.939 1955.01 296.414" stroke="#3767CD" stroke-width="1.6" stroke-miterlimit="10"/>
<path d="M-216 316.908C-37.8684 304.12 87.7126 180.277 271.612 191.692C477.412 204.46 673.432 273.318 869.285 316.702C1029.14 352.197 1192.22 390.479 1359.68 399.865C1565.04 411.342 1752.14 326.089 1955.13 316.826" stroke="#3767CD" stroke-width="1.6" stroke-miterlimit="10"/>
<path d="M-216 337.4C-37.339 324.038 81.2194 192.798 266.373 204.746C474.458 218.19 672.373 290.818 869.229 337.277C1028.61 374.842 1191.5 415.583 1359.32 425.399C1565.68 437.449 1751.33 347.032 1955.01 337.4" stroke="#3767CD" stroke-width="1.6" stroke-miterlimit="10"/>
<path d="M-216 357.894C-36.3359 344.471 75.3408 206.98 262.11 219.174C472.145 232.904 671.704 308.914 869.256 357.771C1028.08 397.077 1190.86 439.991 1359.13 449.991C1566.54 462.288 1750.5 367.608 1955.01 357.935" stroke="#3767CD" stroke-width="1.6" stroke-miterlimit="10"/>
<path d="M-216 378.388C-34.8869 365.478 70.27 223.13 259.018 235.221C470.446 248.767 671.398 327.442 869.229 378.286C1027.75 418.965 1190.3 463.723 1358.96 473.458C1567.52 485.487 1749.49 387.672 1954.99 378.388" stroke="#3767CD" stroke-width="1.6" stroke-miterlimit="10"/>
<path d="M-216 398.882C-33.0201 387.181 66.2851 241.574 257.178 253.091C469.526 265.92 671.342 346.665 869.312 398.8C1027.47 440.443 1189.88 486.677 1358.88 495.776C1568.66 507.088 1748.49 407.285 1955.01 398.882" stroke="#3767CD" stroke-width="1.6" stroke-miterlimit="10"/>
<path d="M-216 419.375C-33.2709 407.427 66.3685 261.944 257.011 273.564C469.415 286.495 671.537 366.645 869.312 419.273C1027.24 461.284 1189.94 507.394 1358.9 516.412C1568.8 527.601 1748.38 427.675 1955.01 419.375" stroke="#3767CD" stroke-width="1.6" stroke-miterlimit="10"/>
<path d="M-216 439.869C-36.7817 425.646 72.053 285.43 258.795 297.992C470.084 312.194 671.815 387.774 869.256 439.705C1027.3 481.265 1190.61 525.203 1359.13 534.999C1567.57 547.09 1749.66 449.337 1955.01 439.869" stroke="#3767CD" stroke-width="1.6" stroke-miterlimit="10"/>
<path d="M-216 460.363C-39.7631 445.116 78.9915 312.974 262.027 325.659C471.45 340.189 672.541 409.907 869.229 460.158C1027.61 500.632 1191.44 542.132 1359.63 552.112C1566.6 564.408 1751 470.384 1955.1 460.363" stroke="#3767CD" stroke-width="1.6" stroke-miterlimit="10"/>
<path d="M-216 480.856C-41.9643 465.629 86.6815 344.021 266.569 356.194C473.511 370.191 673.682 432.86 869.201 480.63C1028.02 519.466 1192.42 558.035 1360.1 567.933C1565.68 580.086 1752 490.898 1955.01 480.856" stroke="#3767CD" stroke-width="1.6" stroke-miterlimit="10"/>
<path d="M-216 501.349C-43.246 487.003 94.8171 378.08 272.224 389.208C476.185 401.996 675.188 456.529 869.229 501.143C1028.83 537.827 1193.34 573.281 1360.77 582.667C1565.12 594.102 1752.95 510.94 1955.01 501.349" stroke="#3767CD" stroke-width="1.6" stroke-miterlimit="10"/>
<path d="M-216 521.844C-43.8869 509.035 103.149 414.662 278.828 424.315C479.446 435.32 676.971 480.774 869.229 521.659C1029.7 555.781 1194.37 587.914 1361.58 596.46C1564.76 606.83 1753.76 530.697 1955.07 521.844" stroke="#3767CD" stroke-width="1.6" stroke-miterlimit="10"/>
<path d="M-216 542.336C-43.664 531.618 111.424 453.292 286.212 461.1C483.263 469.892 679.088 505.427 869.285 542.172C1030.67 573.343 1195.29 602.034 1362.47 609.494C1564.56 618.511 1754.51 550.062 1955.01 542.336" stroke="#3767CD" stroke-width="1.6" stroke-miterlimit="10"/>
<path d="M-216 562.83C-42.7724 554.632 119.477 493.521 294.153 499.197C487.554 505.468 681.094 530.368 869.312 562.727C1031.67 590.639 1196.46 615.785 1363.42 621.953C1564.45 629.392 1755.23 569.326 1955.01 562.85" stroke="#3767CD" stroke-width="1.6" stroke-miterlimit="10"/>
<path d="M-216 583.322C-41.3513 577.932 127.168 534.916 302.541 538.236C492.319 541.782 683.267 555.512 869.368 583.322C1032.73 607.689 1197.52 629.289 1364.42 634.044C1564.4 639.741 1755.99 588.405 1955.13 583.384" stroke="#3767CD" stroke-width="1.6" stroke-miterlimit="10"/>
<path d="M-216 603.818C-39.5402 601.42 134.467 577.053 311.177 577.75C497.473 578.488 685.357 580.66 869.424 603.818C1033.82 624.475 1198.52 642.509 1365.39 645.788C1564.31 649.662 1756.71 607.281 1954.96 603.818" stroke="#3767CD" stroke-width="1.6" stroke-miterlimit="10"/>
<path d="M-216 624.311C-37.4783 624.987 141.322 619.453 319.844 617.445C502.963 615.396 687.308 605.764 869.48 624.352C1034.63 641.218 1199.5 655.768 1366.48 657.51C1564.31 659.559 1757.6 626.216 1955.01 624.311" stroke="#3767CD" stroke-width="1.6" stroke-miterlimit="10"/>
<path d="M-216 644.803C-35.3328 648.472 147.73 661.669 328.425 656.874C509.12 652.078 689.063 630.704 869.535 644.906C1035.41 657.96 1200.44 669.088 1367.51 669.375C1564.26 669.703 1758.49 645.193 1955.01 644.783" stroke="#3767CD" stroke-width="1.6" stroke-miterlimit="10"/>
<path d="M-216 665.297C-33.1594 671.773 153.665 703.189 336.701 695.668C514.665 688.352 690.569 655.398 869.564 665.44C1036.05 674.785 1201.33 682.593 1368.49 681.507C1564.26 680.216 1759.36 664.292 1955.01 665.297" stroke="#3767CD" stroke-width="1.6" stroke-miterlimit="10"/>
<path d="M-216 685.791C-31.0418 694.746 159.015 743.521 344.531 733.438C520.656 723.867 691.626 679.766 869.618 685.975C1036.55 691.816 1202.2 696.406 1369.44 694.173C1564.34 691.488 1760.11 683.68 1955.01 685.975" stroke="#3767CD" stroke-width="1.6" stroke-miterlimit="10"/>
<path d="M-216 706.285C-28.8127 717.228 163.584 782.11 351.691 769.814C526.535 758.358 692.379 703.723 869.647 706.53C1231.43 712.248 1593.23 700.485 1955.01 706.305" stroke="#3767CD" stroke-width="1.6" stroke-miterlimit="10"/>
<path d="M-216 726.779C-109.561 733.706 -8.6671 754.404 94.2608 774.55C178.743 791.067 269.801 810.864 358.045 804.347C532.136 791.436 692.797 727.127 869.647 727.004C1231.68 726.799 1592.84 719.77 1955.01 726.779" stroke="#3767CD" stroke-width="1.6" stroke-miterlimit="10"/>
<path d="M-216 747.271C-107.332 754.628 -6.24313 778.913 97.5764 802.337C182.059 821.375 274.092 843.775 363.394 836.684C537.207 822.892 692.881 749.935 869.647 747.496C1037.22 745.201 1204.2 740.857 1371.72 736.389C1565.37 731.225 1761.36 743.275 1955.01 747.271" stroke="#3767CD" stroke-width="1.6" stroke-miterlimit="10"/>
<path d="M-216 767.764C-20.3143 780.552 169.881 882.384 367.601 866.46C541.553 852.443 692.686 772.047 869.647 767.969C1037.27 764.116 1204.59 757.046 1372.22 752.558C1566.01 747.373 1761.28 763.993 1955.01 767.764" stroke="#3767CD" stroke-width="1.6" stroke-miterlimit="10"/>
<path d="M-216 788.258C-16.5806 799.714 168.739 908.781 370.443 893.246C544.897 879.823 692.24 793.382 869.591 788.422C1037.33 783.75 1204.85 774.077 1372.58 769.978C1566.71 765.265 1761 785.123 1954.93 788.156" stroke="#3767CD" stroke-width="1.6" stroke-miterlimit="10"/>
<path d="M-216 808.751C-12.7912 817.502 166.037 930.728 371.753 916.69C546.987 904.742 691.571 813.813 869.535 808.854C1037.36 804.181 1204.93 792.233 1372.78 789.077C1567.29 785.45 1760.64 807.05 1955.13 808.751" stroke="#3767CD" stroke-width="1.6" stroke-miterlimit="10"/>
<path d="M-216 829.245C-13.6828 838.569 166.816 951.243 371.557 936.446C546.513 923.802 691.459 833.569 869.535 829.573C1037.55 825.802 1204.93 814.489 1372.89 810.637C1566.96 806.169 1761.06 826.273 1955.01 829.245" stroke="#3767CD" stroke-width="1.6" stroke-miterlimit="10"/>
<path d="M-216 849.738C-15.1317 859.739 167.736 970.199 370.861 954.767C545.37 941.508 691.515 853.283 869.619 850.845C1037.89 848.529 1205.12 838.548 1373.25 834.163C1566.65 829.019 1761.75 845.742 1955.1 849.738" stroke="#3767CD" stroke-width="1.6" stroke-miterlimit="10"/>
<path d="M-216 870.233C-16.4134 880.479 168.098 987.455 369.802 971.942C543.866 958.539 691.654 872.978 869.535 872.589C1038.08 872.241 1205.24 864.023 1373.62 859.35C1566.46 854.022 1762.17 865.847 1955.01 870.233" stroke="#3767CD" stroke-width="1.6" stroke-miterlimit="10"/>
<path d="M-216 890.726C-17.5001 900.788 167.932 1003.28 368.382 988.111C542.028 974.954 691.877 892.612 869.535 894.763C1038.39 896.813 1205.49 890.521 1374.2 885.992C1566.68 880.848 1762.51 886.484 1955.01 890.726" stroke="#3767CD" stroke-width="1.6" stroke-miterlimit="10"/>
<path d="M-216 911.219C-18.4475 920.789 167.346 1017.78 366.681 1003.44C539.965 990.877 692.156 912.244 869.535 917.367C1231.15 927.716 1593.12 904.497 1955.01 911.219" stroke="#3767CD" stroke-width="1.6" stroke-miterlimit="10"/>
<path d="M-216 931.712C-19.2555 940.524 166.399 1031.43 364.732 1018.01C537.764 1006.29 692.518 931.814 869.535 940.134C1231.98 957.144 1592.84 926.834 1955.01 931.712" stroke="#3767CD" stroke-width="1.6" stroke-miterlimit="10"/>
<path d="M-216 952.207C-20.0635 960.056 165.229 1044.22 362.586 1032.13C535.48 1021.47 692.964 951.469 869.535 963.273C1039 974.606 1206.49 975.139 1376.65 972.638C1569.63 969.831 1762.17 951.018 1955.04 952.289" stroke="#3767CD" stroke-width="1.6" stroke-miterlimit="10"/>
<path d="M-216 972.698C-20.9552 979.42 163.975 1056.39 360.302 1045.65C533.195 1036.21 693.438 970.977 869.535 986.429C1039.08 1001.33 1206.82 1004.36 1377.57 1002.93C1571.22 1001.29 1761.64 972.985 1955.01 972.698" stroke="#3767CD" stroke-width="1.6" stroke-miterlimit="10"/>
<path d="M-216 993.192C-21.7632 998.685 162.666 1068.2 357.989 1059C530.994 1050.8 694.023 990.548 869.591 1009.81C1039.09 1028.4 1207.21 1033.99 1378.6 1033.69C1573.17 1033.36 1761.11 995.242 1955.07 993.213" stroke="#3767CD" stroke-width="1.6" stroke-miterlimit="10"/>
<path d="M-216 1013.69C-22.7385 1017.91 161.411 1079.84 355.509 1072.2C528.764 1065.39 694.525 1010.14 869.508 1033.26C1038.89 1055.58 1207.46 1063.77 1379.55 1064.65C1575.15 1065.66 1760.39 1017.52 1955.01 1013.73" stroke="#3767CD" stroke-width="1.6" stroke-miterlimit="10"/>
<path d="M-216 1034.18C-23.7416 1037.13 160.157 1091.56 353.084 1085.41C526.73 1079.92 695.082 1029.71 869.508 1056.6C1038.67 1082.67 1207.74 1093.49 1380.55 1095.54C1577.32 1097.89 1759.66 1039.86 1955.01 1034.18" stroke="#3767CD" stroke-width="1.6" stroke-miterlimit="10"/>
<path d="M-216 1054.67C-24.9954 1056.43 159.182 1103.47 350.744 1098.82C524.891 1094.57 695.695 1049.34 869.508 1079.94C1038.33 1109.68 1207.97 1122.98 1381.53 1126.24C1579.61 1129.9 1758.91 1062.11 1955.01 1054.67" stroke="#3767CD" stroke-width="1.6" stroke-miterlimit="10"/>
<path d="M-216 1075.17C-26.1657 1075.86 158.207 1115.87 348.487 1112.51C523.219 1109.41 696.28 1068.96 869.535 1103.16C1038 1136.42 1208.19 1152.24 1382.53 1156.44C1581.98 1161.3 1758.16 1084.16 1955.07 1075.13" stroke="#3767CD" stroke-width="1.6" stroke-miterlimit="10"/>
<path d="M-216 1095.66C-27.2802 1095.48 157.372 1128.92 346.37 1126.65C521.771 1124.6 696.893 1088.59 869.48 1126.17C1037.5 1162.78 1208.24 1180.93 1383.34 1186.08C1584.23 1191.96 1757.24 1106.05 1955.01 1095.66" stroke="#3767CD" stroke-width="1.6" stroke-miterlimit="10"/>
<path d="M-216 1116.15C-28.3112 1115.31 156.563 1142.79 344.475 1141.38C520.517 1139.99 697.478 1108.22 869.48 1148.94C1037 1188.62 1208.3 1208.99 1384.15 1214.79C1586.58 1221.47 1756.26 1127.59 1955.01 1116.15" stroke="#3767CD" stroke-width="1.6" stroke-miterlimit="10"/>
<path d="M-216 1136.65C-29.3142 1135.46 155.839 1157.84 342.831 1156.85C519.514 1155.93 698.064 1127.84 869.453 1171.4C1036.44 1213.85 1208.24 1236.22 1384.79 1242.43C1588.83 1249.63 1755.18 1148.7 1954.99 1136.65" stroke="#3767CD" stroke-width="1.6" stroke-miterlimit="10"/>
<path d="M-216 1157.14C-29.8158 1155.91 155.17 1174.09 341.494 1173.23C518.734 1172.43 698.62 1147.47 869.48 1193.5C1035.96 1238.36 1208.16 1262.48 1385.37 1268.79C1591.09 1276.13 1754.01 1169.29 1955.01 1157.14" stroke="#3767CD" stroke-width="1.6" stroke-miterlimit="10"/>
<path d="M-216 1177.63C-30.2616 1176.77 154.584 1191.77 340.49 1190.63C518.148 1189.54 699.15 1167.06 869.48 1215.22C1035.46 1262.07 1208.02 1287.66 1385.79 1293.71C1593.12 1300.76 1752.7 1189.38 1955.01 1177.7" stroke="#3767CD" stroke-width="1.6" stroke-miterlimit="10"/>
<path d="M-216 1198.13C-30.5403 1198.13 154.389 1211.12 339.905 1209.21C517.814 1207.39 699.624 1186.67 869.508 1236.31C1034.23 1284.5 1208.9 1311.72 1386.04 1316.79C1594.85 1323.06 1751.44 1208.6 1955.01 1198.13" stroke="#3767CD" stroke-width="1.6" stroke-miterlimit="10"/>
<path d="M-216 1218.62C-30.7074 1219.42 154.446 1231.7 339.766 1229.18C517.619 1226.78 699.819 1207.14 869.508 1256.92C1034.1 1305.5 1208.85 1332.85 1386.07 1337.79C1595.32 1343.61 1751.08 1228.46 1955.01 1218.62" stroke="#3767CD" stroke-width="1.6" stroke-miterlimit="10"/>
<path d="M-216 1239.12C-30.596 1240.02 154.585 1251.68 340.045 1249.63C517.564 1247.58 699.485 1229.24 869.452 1276.97C1035.69 1323.65 1207.49 1350.74 1385.68 1356.52C1593.82 1363.22 1751.97 1250.2 1954.96 1239.12" stroke="#3767CD" stroke-width="1.6" stroke-miterlimit="10"/>
<path d="M-216 1259.61C-30.4288 1260.57 154.975 1271.6 340.601 1269.86C517.73 1268.22 699.262 1250.96 869.508 1296.5C1036.3 1341.05 1207.44 1367.61 1385.12 1373.76C1591.95 1380.89 1752.92 1271.29 1955.01 1259.63" stroke="#3767CD" stroke-width="1.6" stroke-miterlimit="10"/>
<path d="M-216 1280.1C-30.178 1281.09 155.477 1291.46 341.271 1290C518.037 1288.63 698.871 1272.46 869.424 1315.51C1036.61 1357.73 1207.21 1383.37 1384.18 1389.58C1589.67 1396.81 1753.92 1291.87 1954.93 1280.1" stroke="#3767CD" stroke-width="1.6" stroke-miterlimit="10"/>
<path d="M-216 1300.6C-29.8437 1301.54 156.144 1311.29 342.301 1310C518.677 1308.77 698.649 1293.61 869.508 1334.16C1036.91 1373.82 1207.07 1398.25 1383.17 1404.27C1587.36 1411.28 1754.84 1312.05 1955.01 1300.6" stroke="#3767CD" stroke-width="1.6" stroke-miterlimit="10"/>
<path d="M-216 1321.09C-29.4814 1321.97 156.897 1331.09 343.444 1329.88C519.374 1328.73 698.37 1314.69 869.508 1352.42C1037.05 1389.31 1206.66 1412.35 1381.89 1418C1584.85 1424.54 1755.6 1331.7 1955.01 1321.11" stroke="#3767CD" stroke-width="1.6" stroke-miterlimit="10"/>
<path d="M-216 1341.58C-29.0635 1342.38 157.762 1350.85 344.698 1349.66C520.238 1348.55 698.119 1335.54 869.508 1370.48C1037.05 1404.62 1206.41 1425.81 1380.47 1430.89C1582.29 1436.73 1756.21 1351.09 1955.01 1341.58" stroke="#3767CD" stroke-width="1.6" stroke-miterlimit="10"/>
<path d="M-216 1362.08C-28.6177 1362.77 158.68 1370.6 346.063 1369.39C521.101 1368.24 697.897 1356.28 869.508 1388.29C1036.97 1419.52 1205.96 1438.87 1378.91 1443.17C1579.67 1448.19 1756.74 1370.25 1955.01 1362.08" stroke="#3767CD" stroke-width="1.6" stroke-miterlimit="10"/>
<path d="M-216 1382.57C-28.144 1383.14 159.656 1390.34 347.512 1389.05C522.077 1387.88 697.757 1376.91 869.508 1405.93C1036.83 1434.19 1205.46 1451.53 1377.29 1455.12C1577.07 1459.22 1757.21 1389.37 1955.01 1382.67" stroke="#3767CD" stroke-width="1.6" stroke-miterlimit="10"/>
<path d="M-216 1403.06C-27.6703 1403.49 160.632 1410.05 348.989 1408.7C523.053 1407.45 697.674 1397.51 869.508 1423.5C1036.69 1448.76 1204.87 1463.97 1375.62 1466.53C1574.51 1469.61 1757.66 1408.13 1955.01 1403" stroke="#3767CD" stroke-width="1.6" stroke-miterlimit="10"/>
<path d="M-216 1423.56C-27.1688 1423.86 161.663 1429.7 350.494 1428.33C524.056 1427 697.674 1418.08 869.508 1441.04C1036.36 1463.31 1204.23 1476.37 1373.84 1478.11C1571.95 1480.16 1757.96 1427.1 1954.93 1423.56" stroke="#3767CD" stroke-width="1.6" stroke-miterlimit="10"/>
<path d="M-216 1444.05C-26.6951 1444.21 162.637 1449.5 351.97 1447.98C525.003 1446.59 697.757 1438.66 869.508 1458.6C1035.8 1478.18 1203.85 1488.58 1372.25 1489.71C1569.69 1490.75 1758.38 1446.06 1955.01 1444.05" stroke="#3767CD" stroke-width="1.6" stroke-miterlimit="10"/>
<path d="M-216 1464.54C-26.2214 1464.54 163.613 1469.24 353.392 1467.66C525.923 1466.22 697.897 1459.3 869.508 1476.27C1035.6 1492.86 1203.01 1501.33 1370.63 1501.62C1567.52 1501.74 1758.66 1465.14 1955.01 1464.54" stroke="#3767CD" stroke-width="1.6" stroke-miterlimit="10"/>
<path d="M-216 1485.04C-25.7756 1485.04 164.504 1488.99 354.756 1487.37C526.758 1485.94 698.119 1480.02 869.508 1494.09C1035.38 1507.82 1202.19 1514.45 1369.1 1513.97C1565.62 1513.3 1758.86 1484.4 1955.01 1485.04" stroke="#3767CD" stroke-width="1.6" stroke-miterlimit="10"/>
</g>
<rect width="1728" height="755" fill="url(#paint0_linear_596_1557)"/>
<path d="M2075 1615L347 1615L347 866L2075 866L2075 1615Z" fill="url(#paint1_linear_596_1557)"/>
<defs>
<linearGradient id="paint0_linear_596_1557" x1="864" y1="98.4783" x2="864" y2="755" gradientUnits="userSpaceOnUse">
<stop offset="0.302083" stop-color="white"/>
<stop offset="0.635417" stop-color="white" stop-opacity="0.78"/>
<stop offset="1" stop-color="white" stop-opacity="0"/>
</linearGradient>
<linearGradient id="paint1_linear_596_1557" x1="864" y1="1472.3" x2="864" y2="821" gradientUnits="userSpaceOnUse">
<stop offset="0.302083" stop-color="white"/>
<stop offset="0.635417" stop-color="white" stop-opacity="0.78"/>
<stop offset="1" stop-color="white" stop-opacity="0"/>
</linearGradient>
</defs>
</svg>
