<svg width="17" height="15" viewBox="0 0 17 15" fill="none" xmlns="http://www.w3.org/2000/svg">
<path d="M15.625 7.67417C15.625 3.32792 12.2525 0.375 8.50001 0.375C4.78709 0.375 1.37501 3.26458 1.37501 7.72167C0.90001 7.99083 0.583344 8.4975 0.583344 9.08333V10.6667C0.583344 11.5375 1.29584 12.25 2.16668 12.25H2.95834V7.42083C2.95834 4.35708 5.43626 1.87917 8.50001 1.87917C11.5638 1.87917 14.0417 4.35708 14.0417 7.42083V13.0417H7.70834V14.625H14.0417C14.9125 14.625 15.625 13.9125 15.625 13.0417V12.0758C16.0921 11.8304 16.4167 11.3475 16.4167 10.7775V8.95667C16.4167 8.4025 16.0921 7.91958 15.625 7.67417Z" fill="black"/>
<path d="M6.12501 9.08333C6.56224 9.08333 6.91668 8.72889 6.91668 8.29167C6.91668 7.85444 6.56224 7.5 6.12501 7.5C5.68778 7.5 5.33334 7.85444 5.33334 8.29167C5.33334 8.72889 5.68778 9.08333 6.12501 9.08333Z" fill="black"/>
<path d="M10.875 9.08333C11.3122 9.08333 11.6667 8.72889 11.6667 8.29167C11.6667 7.85444 11.3122 7.5 10.875 7.5C10.4378 7.5 10.0833 7.85444 10.0833 8.29167C10.0833 8.72889 10.4378 9.08333 10.875 9.08333Z" fill="black"/>
<path d="M13.25 6.73208C12.87 4.47583 10.9067 2.75 8.53958 2.75C6.14083 2.75 3.56 4.73708 3.76583 7.85625C5.72125 7.05667 7.19375 5.315 7.61333 3.19333C8.65041 5.27542 10.78 6.70833 13.25 6.73208Z" fill="black"/>
</svg>
