<svg width="17" height="13" viewBox="0 0 17 13" fill="none" xmlns="http://www.w3.org/2000/svg">
<path d="M16.2225 2.63524C16.0371 1.94237 15.4909 1.39669 14.7974 1.2115C13.5404 0.875 8.50001 0.875 8.50001 0.875C8.50001 0.875 3.45962 0.875 2.2026 1.2115C1.50911 1.39672 0.962924 1.94237 0.777548 2.63524C0.440735 3.89111 0.440735 6.51137 0.440735 6.51137C0.440735 6.51137 0.440735 9.13162 0.777548 10.3875C0.962924 11.0804 1.50911 11.6033 2.2026 11.7885C3.45962 12.125 8.50001 12.125 8.50001 12.125C8.50001 12.125 13.5404 12.125 14.7974 11.7885C15.4909 11.6033 16.0371 11.0804 16.2225 10.3875C16.5593 9.13162 16.5593 6.51137 16.5593 6.51137C16.5593 6.51137 16.5593 3.89111 16.2225 2.63524ZM6.85151 8.89036V4.13237L11.0643 6.51143L6.85151 8.89036Z" fill="black"/>
</svg>
