<?xml version="1.0" encoding="utf-8"?>
<!-- Generator: Adobe Illustrator 25.0.1, SVG Export Plug-In . SVG Version: 6.00 Build 0)  -->
<svg version="1.1" id="Layer_1" xmlns="http://www.w3.org/2000/svg" xmlns:xlink="http://www.w3.org/1999/xlink" x="0px" y="0px"
	 viewBox="0 0 626.5 150.1" style="enable-background:new 0 0 626.5 150.1;" xml:space="preserve">
<style type="text/css">
	.st0{fill:#2A4550;}
	.st1{fill:url(#SVGID_1_);}
	.st2{fill:url(#SVGID_2_);}
	.st3{fill:url(#SVGID_3_);}
	.st4{fill:url(#SVGID_4_);}
	.st5{fill:url(#SVGID_5_);}
	.st6{fill:url(#SVGID_6_);}
	.st7{fill:url(#SVGID_7_);}
	.st8{fill:url(#SVGID_8_);}
	.st9{fill:url(#SVGID_9_);}
	.st10{fill:url(#SVGID_10_);}
	.st11{fill:url(#SVGID_11_);}
	.st12{fill:url(#SVGID_12_);}
	.st13{fill:url(#SVGID_13_);}
	.st14{fill:url(#SVGID_14_);}
	.st15{fill:url(#SVGID_15_);}
	.st16{fill:url(#SVGID_16_);}
	.st17{fill:url(#SVGID_17_);}
	.st18{fill:url(#SVGID_18_);}
	.st19{fill:url(#SVGID_19_);}
	.st20{fill:url(#SVGID_20_);}
	.st21{fill:url(#SVGID_21_);}
	.st22{fill:url(#SVGID_22_);}
	.st23{fill:url(#SVGID_23_);}
	.st24{fill:url(#SVGID_24_);}
</style>
<path class="st0" d="M20.8,49.5h-3.7c-0.8-0.4-1.3-1.2-1.3-2.1c-0.1-0.6,0.4-1.2,1-1.3c0.1,0,0.2,0,0.3,0c0.8,0,1.4,0.5,1.5,1.5h2.1
	c-0.2-2.5-1.6-3.8-3.6-3.8c-1.7-0.1-3.3,1.2-3.4,2.9c0,0.2,0,0.3,0,0.5c0,0.9,0.3,1.7,0.9,2.3h-1.3v2.2h7.6V49.5z"/>
<path class="st0" d="M27.3,58.2c0,1.7-0.7,3.1-2.9,3.1H11c-2,0.1-3.7-1.5-3.9-3.5c0-0.1,0-0.3,0-0.4v-5.7H2.8v5.7
	c-0.1,4.4,3.3,8.1,7.7,8.2c0.2,0,0.3,0,0.5,0h15c3.1,0.1,5.6-2.4,5.7-5.4c0-0.1,0-0.2,0-0.3V39.2h-4.4V58.2z"/>
<path class="st0" d="M39,66.2c0.1,2-1.5,3.8-3.5,3.9c-0.1,0-0.2,0-0.3,0h-1.8v4.4h1.9c4.5,0.1,8.1-3.4,8.2-7.9c0-0.1,0-0.2,0-0.4
	V47.4H39V66.2z"/>
<path class="st0" d="M91.7,68.8c-1.5-0.1-2.7,1-2.8,2.5s1,2.7,2.5,2.8c0.1,0,0.2,0,0.3,0c1.5,0.1,2.7-1,2.8-2.5s-1-2.7-2.5-2.8
	C91.9,68.8,91.8,68.8,91.7,68.8z"/>
<path class="st0" d="M109.5,59.7c0.1,0.9-0.6,1.6-1.5,1.7c0,0-0.1,0-0.1,0h-5l0,0c-0.8-0.1-1.7-0.2-3.9-5.2
	c-3.8-8.2-9.8-11.4-16.7-8.9v4c5.7-2.2,9.1,0,11.9,5.4c0.7,1.6,1.5,3.1,2.4,4.6h-17c-1.3,0.1-2.4-1-2.4-2.3c0-0.1,0-0.2,0-0.2v-4.2
	c0.1-4.5-3.5-8.3-8-8.4c-0.1,0-0.2,0-0.4,0h-0.4c-4.5-0.1-8.3,3.5-8.4,8c0,0.1,0,0.2,0,0.4v4.3c0.1,1.3-0.9,2.4-2.2,2.5
	c-0.1,0-0.2,0-0.2,0h-3.1c-0.9,0-1.6-0.7-1.6-1.6c0,0,0-0.1,0-0.1V39.2h-4.4v22c0,2.5,2,4.5,4.5,4.6c0,0,0.1,0,0.1,0h4.5
	c2,0,3.8-0.9,5-2.4c1.8,1.5,4.1,2.3,6.4,2.3c2.1,0,4.1-0.9,5.5-2.5c1.1,1.7,3.1,2.7,5.1,2.6h29.7c2.5,0,4.5-2,4.5-4.4
	c0,0,0-0.1,0-0.1v-22h-4.4L109.5,59.7z M72.8,57.2c0.1,2.1-1.6,3.9-3.8,4c-1.8,0.1-3.5-0.7-4.6-2.1v-4.5c-0.1-2.1,1.5-3.9,3.6-4
	c0.1,0,0.3,0,0.4,0h0.4c2.1-0.1,3.9,1.5,4,3.6c0,0.1,0,0.3,0,0.4L72.8,57.2z"/>
<rect x="119.1" y="39.2" class="st0" width="4.4" height="26.6"/>
<path class="st0" d="M136.9,46.2h-0.4c-4.5-0.1-8.3,3.5-8.4,8c0,0.1,0,0.3,0,0.4v2.7c-0.1,4.5,3.5,8.3,8.1,8.4h4.6v0.7
	c0,3.1-2.3,4.8-9.9,3.4v4.1c9.3,2.2,14.3-1.1,14.3-6.5V54.6c0.1-4.5-3.4-8.2-7.9-8.4C137.2,46.2,137,46.2,136.9,46.2z M140.8,61.3
	h-4.6c-2.1-0.1-3.7-1.9-3.7-4v-2.7c-0.1-2.1,1.5-3.9,3.6-4c0.1,0,0.3,0,0.4,0h0.4c2.1-0.1,3.8,1.5,3.9,3.6c0,0.1,0,0.3,0,0.4
	L140.8,61.3z"/>
<path class="st0" d="M162.1,43.2c1.4,0,2.6-1.2,2.6-2.6c0-1.5-1.2-2.7-2.6-2.7s-2.7,1.2-2.7,2.6S160.6,43.1,162.1,43.2
	C162.1,43.2,162.1,43.2,162.1,43.2z"/>
<path class="st0" d="M169.6,43.2c1.5,0,2.6-1.2,2.6-2.6c0-1.5-1.2-2.6-2.6-2.6c-1.4,0-2.6,1.2-2.6,2.6C167,42,168.1,43.1,169.6,43.2
	z"/>
<path class="st0" d="M184.3,70.1c-1.5,0-2.7,1.2-2.6,2.7c0,1.5,1.2,2.7,2.7,2.6c1.5,0,2.7-1.2,2.6-2.7c0,0,0,0,0,0
	C187,71.2,185.8,70.1,184.3,70.1z"/>
<path class="st0" d="M201.7,69.4c-1.5,0.1-2.6,1.4-2.5,2.8c0.1,1.3,1.2,2.4,2.5,2.5c1.5-0.1,2.6-1.4,2.5-2.8
	C204.1,70.5,203,69.5,201.7,69.4z"/>
<path class="st0" d="M203.4,61.2V47.7H199v12c0.1,0.9-0.6,1.7-1.5,1.7c0,0-0.1,0-0.1,0h-7.9c-2.2,0-2.9-1.4-2.9-3.1v-0.7
	c0-0.4,0-0.7,0-1.1v-8.8h-4.4v10.6c0,1.6-0.7,3-2.9,3h-3.1c-1.3,0.1-2.4-0.9-2.5-2.2c0-0.1,0-0.2,0-0.2V46.2H165
	c-4.5-0.1-8.2,3.5-8.3,8c0,0.1,0,0.3,0,0.4v2.6c-0.1,4.6,3.6,8.3,8.1,8.4c2.2,0.1,4.4-0.8,5.9-2.4c1.3,1.7,3.3,2.6,5.5,2.6h3
	c2,0.1,3.8-0.7,5.1-2.1c1.2,1.3,2.8,2.1,4.5,2.1h9.9c2.5,0,4.5-2,4.6-4.5C203.4,61.3,203.4,61.2,203.4,61.2z M169.4,59.1
	c-1.1,1.4-2.8,2.2-4.5,2.1c-2.1-0.1-3.8-1.8-3.7-4c0,0,0,0,0,0v-2.6c-0.1-2.1,1.4-3.9,3.5-4c0.1,0,0.3,0,0.4,0h4.4V59.1z"/>
<path class="st0" d="M194.2,69.4c-1.5-0.1-2.7,1-2.8,2.5s1,2.7,2.5,2.8c0.1,0,0.2,0,0.3,0c1.5-0.1,2.6-1.4,2.5-2.8
	C196.6,70.5,195.6,69.5,194.2,69.4z"/>
<path class="st0" d="M239.8,44c1.5,0,2.6-1.2,2.6-2.7c0-1.5-1.2-2.6-2.7-2.6c-1.4,0-2.6,1.2-2.6,2.6C237.1,42.8,238.3,44,239.8,44z"
	/>
<path class="st0" d="M255.6,59.7c0.1,0.9-0.6,1.6-1.5,1.7c-0.1,0-0.1,0-0.2,0h-4.3V58c0-7.8-3.2-11.5-9.7-11.5
	c-4.2,0-7.9,2.9-10.9,6.3v-4.4h-4.4v12.9h-6.1v-14h-4.4v18.9c0.1,2-1.4,3.7-3.5,3.8c-0.1,0-0.2,0-0.4,0h-1.9v4.4h1.9
	c4.5,0.1,8.1-3.4,8.2-7.9c0-0.1,0-0.2,0-0.4v-0.5h36.8c2.5,0,4.5-2,4.5-4.5c0,0,0-0.1,0-0.1v-22h-4.4L255.6,59.7z M245.5,61.4h-16.4
	V57c3.4-4,6.9-6.1,10.3-6.1s6,2.1,6,7.1L245.5,61.4z"/>
<rect x="265.3" y="39.2" class="st0" width="4.4" height="26.6"/>
<path class="st0" d="M283.1,46.2h-0.4c-4.5-0.1-8.3,3.5-8.4,8c0,0.1,0,0.3,0,0.4v2.7c-0.1,4.5,3.6,8.3,8.1,8.4h4.6v0.7
	c0,3.1-2.3,4.8-9.9,3.4v4.1c9.3,2.2,14.3-1.1,14.3-6.5V54.6c0.1-4.5-3.4-8.2-7.9-8.4C283.3,46.2,283.2,46.2,283.1,46.2z M287,61.3
	h-4.6c-2.1-0.1-3.7-1.9-3.7-4v-2.7c-0.1-2.1,1.5-3.9,3.6-4c0.1,0,0.3,0,0.4,0h0.4c2.1-0.1,3.8,1.5,3.9,3.6c0,0.1,0,0.3,0,0.4
	L287,61.3z"/>
<path class="st0" d="M315.7,43.7c1.5-0.1,2.6-1.4,2.5-2.8c-0.1-1.3-1.2-2.4-2.5-2.5c-1.5,0.1-2.6,1.4-2.5,2.8
	C313.3,42.5,314.3,43.6,315.7,43.7z"/>
<path class="st0" d="M308.2,43.7c1.5,0,2.7-1.2,2.6-2.7c0-1.5-1.2-2.7-2.7-2.6c-1.4,0-2.6,1.2-2.6,2.6
	C305.5,42.5,306.7,43.7,308.2,43.7C308.2,43.7,308.2,43.7,308.2,43.7z"/>
<path class="st0" d="M311.5,46.2h-0.6c-4.5,0-8.2,3.6-8.2,8.1c0,0,0,0,0,0v3.2c0,4.5,3.6,8.1,8,8.1c0,0,0.1,0,0.1,0h1
	c4.3,0,7.8-3.5,7.8-7.8c0,0,0,0,0,0v-3.5C319.6,49.9,316,46.2,311.5,46.2C311.5,46.2,311.5,46.2,311.5,46.2z M315.2,58.1
	c0,1.8-1.4,3.2-3.2,3.3h-1.1c-2.1,0-3.7-1.7-3.7-3.8v-3.2c-0.1-2,1.5-3.7,3.5-3.7c0.1,0,0.1,0,0.2,0h0.6c2-0.1,3.7,1.5,3.7,3.5
	c0,0.1,0,0.1,0,0.2L315.2,58.1z"/>
<path class="st0" d="M366.2,43.9c1.5,0,2.7-1.2,2.7-2.6c0-1.5-1.2-2.7-2.6-2.7c-1.5,0-2.7,1.2-2.7,2.6c0,0,0,0,0,0
	C363.6,42.7,364.7,43.9,366.2,43.9z"/>
<path class="st0" d="M375.2,59.7c0.1,0.9-0.6,1.6-1.5,1.7c0,0-0.1,0-0.1,0h-5.1v-14h-4.4v18.8c0.1,2-1.4,3.7-3.5,3.8
	c-0.1,0-0.2,0-0.4,0h-1.9v4.4h1.9c4.5,0.1,8.1-3.4,8.2-7.9c0-0.1,0-0.2,0-0.3v-0.5h6.6c2.5,0,4.5-2,4.6-4.4c0,0,0-0.1,0-0.1v-22
	h-4.4L375.2,59.7z"/>
<rect x="384.8" y="39.2" class="st0" width="4.4" height="26.6"/>
<path class="st0" d="M406.8,43.2c1.4,0,2.6-1.2,2.6-2.6c0-1.5-1.2-2.7-2.6-2.7c-1.5,0-2.7,1.2-2.7,2.6
	C404.1,42,405.3,43.1,406.8,43.2C406.8,43.2,406.8,43.2,406.8,43.2z"/>
<path class="st0" d="M414.3,43.2c1.5,0,2.6-1.2,2.6-2.6c0-1.5-1.2-2.6-2.6-2.6c-1.4,0-2.6,1.2-2.6,2.6
	C411.7,42,412.9,43.1,414.3,43.2z"/>
<path class="st0" d="M432.1,41.8h-4c-0.8-0.4-1.3-1.3-1.4-2.2c-0.1-0.7,0.4-1.3,1-1.4c0.1,0,0.2,0,0.3,0c0.9,0,1.6,0.7,1.6,1.6h2.2
	c-0.2-2.7-1.7-4-3.9-4c-1.8-0.2-3.5,1.2-3.6,3c0,0.2,0,0.4,0,0.6c0,0.9,0.3,1.8,0.9,2.5h-1.4v2.5h8.2L432.1,41.8z"/>
<path class="st0" d="M438.8,69.3c-1.5,0-2.7,1.2-2.7,2.6c0,1.5,1.2,2.7,2.6,2.7c1.5,0,2.7-1.2,2.7-2.6c0,0,0,0,0,0
	C441.4,70.5,440.2,69.3,438.8,69.3z"/>
<path class="st0" d="M446.3,69.3c-1.5,0-2.7,1.2-2.7,2.6c0,1.5,1.2,2.7,2.6,2.7c1.5,0,2.7-1.2,2.7-2.6c0,0,0,0,0,0
	C448.9,70.5,447.7,69.3,446.3,69.3z"/>
<path class="st0" d="M460.7,46.9v2.2c-3.1,0.7-5.3,3.5-5.3,6.7v2c0,1.3,0.5,2.6,1.3,3.5h-8.4c-2.2,0-2.9-1.4-2.9-3.1v-0.7
	c0-0.4,0-0.7,0-1.1v-8.8H441v10.6c0,1.6-0.7,3-2.9,3h-4.7c-2.2,0-2.9-1.4-2.9-3.1V47.7h-4.4v10.5c0,1.7-0.6,3.1-2.9,3.1H421
	c-1.3,0.1-2.4-0.9-2.5-2.2c0-0.1,0-0.2,0-0.2V46.2h-8.7c-4.5-0.1-8.2,3.5-8.3,8c0,0.1,0,0.3,0,0.4v2.6c-0.1,4.6,3.6,8.3,8.1,8.4
	c2.2,0.1,4.4-0.8,6-2.4c1.3,1.7,3.3,2.6,5.5,2.6h2.2c2,0.1,3.8-0.7,5.1-2.1c1.1,1.3,2.8,2.1,4.5,2.1h5.2c2,0.1,3.8-0.7,5.1-2.1
	c1.2,1.3,2.8,2.1,4.5,2.1h24.5c4.5,0,8.2-3.7,8.2-8.2c0,0,0,0,0,0v-2.6C480.3,48.7,472.5,44,460.7,46.9z M414.1,59.1
	c-1.1,1.4-2.8,2.2-4.5,2.1c-2.1-0.1-3.8-1.8-3.7-4c0,0,0,0,0,0v-2.6c-0.1-2.1,1.4-3.9,3.5-4c0.1,0,0.3,0,0.4,0h4.4V59.1z
	 M466.5,61.4h-3.8c-2-0.1-3.5-1.7-3.6-3.7V56c0-2.2,1.3-3.6,3.7-3.6c1.8-0.2,3.5,1.2,3.7,3c0,0.2,0,0.4,0,0.6L466.5,61.4z
	 M472.1,61.4h-1.9v-5.3c0.2-2.8-1.7-5.3-4.5-5.9c5.8-0.6,10.1,1.7,10.2,4.7v2.5C476,59.6,474.3,61.3,472.1,61.4L472.1,61.4z"/>
<path class="st0" d="M356,58.5c0,4-3.2,7.3-7.3,7.3h-19.8c-2.5,0-4.5-1.9-4.6-4.4c0,0,0-0.1,0-0.1v-22h4.4v20.5
	c-0.1,0.9,0.6,1.6,1.5,1.7c0,0,0.1,0,0.1,0h18.1c1.8,0,3.2-1.5,3.2-3.3c0-0.1,0-0.1,0-0.2c0-2.4-1.8-3.6-4.2-3.6H336l-0.8-3.3
	l6.7-11.8l4.1,1.6l-5.2,9.2h6.7c4.7,0,8.5,3.8,8.5,8.5C356,58.4,356,58.4,356,58.5z"/>
<path class="st0" d="M18.9,104.4v3.5H2.8v-2.8l10.4-15.4H3.4v-3.4h15v2.8L8.1,104.4H18.9z"/>
<path class="st0" d="M23.5,95.1l-0.7-2.6C28,90.4,35,90.2,35,97v10.9h-3.9v-2c-1.3,1.4-3.1,2.2-5,2.2c-2.3,0.1-4.2-1.6-4.3-3.9
	c0-0.2,0-0.3,0-0.5c0-3.6,3.5-6.1,9.3-5.8v-0.8C31.2,93.2,27.1,93.7,23.5,95.1z M25.4,103.3c0,1.3,1,1.9,2.3,1.9
	c1.3,0,2.5-0.5,3.4-1.5v-3.6C27.2,99.7,25.4,101.8,25.4,103.3z"/>
<path class="st0" d="M56.5,95.1l-0.7-2.6C61,90.4,68,90.2,68,97v10.9h-3.8v-2c-1.3,1.4-3.1,2.2-5,2.2c-2.3,0.1-4.2-1.6-4.3-3.9
	c0-0.2,0-0.3,0-0.5c0-3.6,3.5-6.1,9.3-5.8v-0.8C64.2,93.2,60.2,93.7,56.5,95.1z M58.4,103.3c0,1.3,1,1.9,2.3,1.9
	c1.3,0,2.5-0.5,3.4-1.5v-3.6C60.3,99.7,58.4,101.8,58.4,103.3z"/>
<path class="st0" d="M76.6,103.8c-0.1,0.8,0.5,1.5,1.3,1.6c0.1,0,0.2,0,0.3,0c0.5,0,1-0.1,1.4-0.2v2.8c-1,0.2-2,0.2-3,0.2
	c-2.9,0-3.9-1.5-3.9-4.1v-8.9h-2l0.5-2.9h1.5v-3.9l3.8-0.9v4.8h3.2l-0.5,2.9h-2.7V103.8z"/>
<path class="st0" d="M85.5,113.2h-2.3c0.6-2.2,1-4.5,1.3-6.8l0.1-1.1h2.8l-0.1,1.1C86.9,108.6,86.3,110.9,85.5,113.2z"/>
<path class="st0" d="M102.6,89.7v18.2h-4.2V89.7h-5.9v-3.4h16v3.4H102.6z"/>
<path class="st0" d="M113.3,95.1l-0.7-2.6c5.1-2.2,12.1-2.3,12.1,4.5v10.9h-3.8v-2c-1.3,1.4-3.1,2.2-5,2.2c-2.3,0.1-4.2-1.6-4.3-3.9
	c0-0.2,0-0.3,0-0.5c0-3.6,3.5-6.1,9.3-5.8V97C121,93.2,117,93.7,113.3,95.1z M115.2,103.3c0,1.3,1,1.9,2.3,1.9
	c1.3,0,2.5-0.5,3.4-1.5v-3.6C117,99.7,115.2,101.8,115.2,103.3z"/>
<path class="st0" d="M132.5,92l2.2,3.4l1.3,2.4l0,0l1.4-2.4l2.2-3.3h4l-5.2,7.8l5.3,8.2h-4.6l-2.2-3.4l-1.3-2.4l0,0l-1.3,2.5
	l-2.1,3.3H128l5.4-8.2L128,92H132.5z"/>
<path class="st0" d="M155.2,95.1l-0.7-2.6c5.1-2.2,12.1-2.3,12.1,4.5v10.9h-3.8v-2c-1.3,1.4-3.1,2.2-5,2.2c-2.3,0.1-4.2-1.6-4.3-3.9
	c0-0.2,0-0.3,0-0.5c0-3.6,3.5-6.1,9.3-5.8V97C162.9,93.2,158.9,93.7,155.2,95.1z M157.1,103.3c0,1.3,1,1.9,2.3,1.9
	c1.3,0,2.5-0.5,3.4-1.5v-3.6C159,99.7,157.1,101.8,157.1,103.3z"/>
<path class="st0" d="M170.8,107.9V92h3.8v1.5c1.5-1.2,3.3-1.8,5.2-1.8c3.2,0,4.8,1.8,4.8,5.2v11h-3.8v-9.8c0-1.7-0.8-2.7-2.6-2.7
	c-1.3,0.1-2.5,0.6-3.6,1.4v11L170.8,107.9z"/>
<path class="st0" d="M194.4,108.1c-4.2,0-6.1-3.6-6.1-8.3s2.1-8.3,6.4-8.3c1.6,0,3.1,0.7,4.1,1.8v-7.2h3.8v21.7h-3.8v-1.6
	C197.6,107.4,196.1,108.1,194.4,108.1z M195.8,94.6c-2.2,0-3.5,1.9-3.5,5.2s1.3,5.2,3.5,5.2c1.1,0,2.1-0.4,2.9-1.1v-8.2
	C197.9,95.1,196.9,94.7,195.8,94.6z"/>
<path class="st0" d="M223.3,108.2c-6.9,0-9.8-4.5-9.8-11.1s2.9-11.1,9.8-11.1c2.5,0,5,0.6,7.3,1.7v3.2c-2.2-0.8-4.5-1.3-6.9-1.4
	c-4,0-6.1,2.6-6.1,7.7s2.1,7.7,6.1,7.7c2.3-0.1,4.7-0.6,6.9-1.4v3.2C228.3,107.7,225.8,108.2,223.3,108.2z"/>
<path class="st0" d="M248.4,92v16h-3.8v-1.6c-1.5,1.2-3.3,1.9-5.2,1.9c-3.2,0-4.8-1.9-4.8-5.2V92h3.8v9.8c0,1.7,0.8,2.7,2.6,2.7
	c1.3-0.1,2.5-0.6,3.5-1.4V92H248.4z"/>
<path class="st0" d="M252.1,107v-2.8c1.7,0.8,3.6,1.3,5.5,1.3c2.4,0,3-1.1,3-1.9c0-1.3-1.5-1.7-3.3-2.4c-2.2-0.8-4.9-1.8-4.9-4.9
	s2.4-5.2,6.9-5.2c1.9,0,3.7,0.4,5.4,1.3v2.8c-1.3-0.8-2.8-1.2-4.4-1.3c-2.5,0-3.5,1.1-3.5,2.1c0,1.3,1.7,1.8,3.6,2.5
	c2.2,0.8,4.7,1.8,4.7,4.7c0,3.3-2.8,5.2-6.7,5.2C256.2,108.4,254.1,107.9,252.1,107z"/>
<path class="st0" d="M272.9,103.8c-0.1,0.8,0.5,1.5,1.3,1.6c0.1,0,0.2,0,0.3,0c0.5,0,1-0.1,1.4-0.2v2.8c-1,0.2-2,0.2-3,0.2
	c-3,0-3.9-1.5-3.9-4.1v-8.9h-2l0.5-2.9h1.5v-3.9l3.8-0.9v4.8h3.2l-0.5,2.9h-2.7V103.8z"/>
<path class="st0" d="M278.7,99.8c0-4.7,2.3-8.3,7.4-8.3s7.4,3.6,7.4,8.3s-2.3,8.3-7.4,8.3S278.7,104.5,278.7,99.8z M282.2,99.8
	c0,3.1,1.2,5.5,3.9,5.5s3.8-2.4,3.8-5.5s-1.2-5.5-3.8-5.5S282.2,96.7,282.2,99.8z"/>
<path class="st0" d="M320.8,96.8v11H317v-9.7c0-1.7-0.8-2.7-2.6-2.7c-1.3,0.1-2.5,0.6-3.5,1.5c0.1,0.4,0.1,0.8,0.1,1.2v9.8h-3.8
	v-9.8c0-1.7-0.8-2.7-2.6-2.7c-1.3,0.1-2.5,0.6-3.4,1.4v11h-3.8V92h3.8v2.1c1.3-1.5,3.1-2.4,5.1-2.4c2.1,0,3.6,0.8,4.2,2.6
	c1.9-1.8,3.6-2.6,5.6-2.6C319.3,91.7,320.8,93.5,320.8,96.8z"/>
<path class="st0" d="M324.5,107v-2.8c1.7,0.8,3.6,1.3,5.5,1.3c2.4,0,3-1.1,3-1.9c0-1.3-1.5-1.7-3.3-2.4c-2.2-0.8-4.9-1.8-4.9-4.9
	s2.4-5.2,6.9-5.2c1.9,0,3.7,0.4,5.4,1.3v2.8c-1.3-0.8-2.8-1.2-4.4-1.3c-2.5,0-3.5,1.1-3.5,2.1c0,1.3,1.7,1.8,3.6,2.5
	c2.2,0.8,4.7,1.8,4.7,4.7c0,3.3-2.8,5.2-6.7,5.2C328.6,108.4,326.5,107.9,324.5,107z"/>
<path class="st0" d="M352.8,102.7l-1.7,5.2H347l8.1-21.8h3.4l7.8,21.8h-4.2l-1.7-5.2L352.8,102.7z M353.6,99.6h6.1l-3-9.1
	L353.6,99.6z"/>
<path class="st0" d="M383.2,92v16h-3.8v-1.6c-1.5,1.2-3.3,1.9-5.2,1.9c-3.2,0-4.8-1.9-4.8-5.2V92h3.8v9.8c0,1.7,0.8,2.7,2.6,2.7
	c1.3-0.1,2.5-0.6,3.5-1.4V92H383.2z"/>
<path class="st0" d="M391.8,103.8c-0.1,0.8,0.5,1.5,1.3,1.6c0.1,0,0.2,0,0.4,0c0.5,0,1-0.1,1.4-0.2v2.8c-1,0.2-2,0.2-3,0.2
	c-2.9,0-3.9-1.5-3.9-4.1v-8.9h-2l0.5-2.9h1.6v-3.9l3.8-0.9v4.8h3.2l-0.5,2.9h-2.7V103.8z"/>
<path class="st0" d="M411.7,96.8v11h-3.8v-9.7c0-1.8-0.8-2.7-2.3-2.7c-1.4,0.1-2.7,0.6-3.8,1.4v11h-3.8V86.3h3.8v7
	c1.4-1.1,3.1-1.7,4.8-1.8C409.5,91.5,411.7,93.3,411.7,96.8z"/>
<path class="st0" d="M415.4,99.8c0-4.7,2.3-8.3,7.4-8.3s7.4,3.6,7.4,8.3s-2.3,8.3-7.4,8.3S415.4,104.5,415.4,99.8z M418.9,99.8
	c0,3.1,1.2,5.5,3.9,5.5s3.8-2.4,3.8-5.5s-1.2-5.5-3.8-5.5S418.9,96.7,418.9,99.8z"/>
<path class="st0" d="M434,107.9V92h3.8v3c1.1-1.9,3.2-3.1,5.4-3v3c-2.1-0.3-4.9,1.4-5.4,2.9v10L434,107.9z"/>
<path class="st0" d="M445.9,88.6c0-1.1,0.9-2,2-2s2,0.9,2,2s-0.9,2-2,2S445.9,89.7,445.9,88.6z M449.8,107.9H446V92.4h3.8
	L449.8,107.9z"/>
<path class="st0" d="M459.5,103.8c-0.1,0.8,0.5,1.5,1.3,1.6c0.1,0,0.2,0,0.4,0c0.5,0,1-0.1,1.4-0.2v2.8c-1,0.2-2,0.2-3,0.2
	c-2.9,0-3.9-1.5-3.9-4.1v-8.9h-2l0.5-2.9h1.5v-3.9l3.8-0.9v4.8h3.2l-0.5,2.9h-2.7L459.5,103.8z"/>
<path class="st0" d="M480.6,92l-7.7,21.6h-3.6l1.6-4.6l-6.3-17h4.3l3.8,12.3l0,0l3.9-12.4H480.6z"/>
<polygon class="st0" points="52.4,107.8 47.9,107.8 42.8,100.5 42.8,107.8 39,107.8 39,86.3 42.8,86.3 42.8,98.6 47.6,91.6 
	51.9,91.6 46.2,99.3 "/>
<linearGradient id="SVGID_1_" gradientUnits="userSpaceOnUse" x1="587.9492" y1="168.151" x2="477.2391" y2="70.341" gradientTransform="matrix(1 0 0 -1 3.471851e-03 151.9961)">
	<stop  offset="0" style="stop-color:#62B34F"/>
	<stop  offset="0.46" style="stop-color:#51BAB4"/>
	<stop  offset="1" style="stop-color:#0094D3"/>
</linearGradient>
<polygon class="st1" points="509.6,46.7 564.6,9.2 565.3,10.3 510.3,47.7 "/>
<linearGradient id="SVGID_2_" gradientUnits="userSpaceOnUse" x1="584.0623" y1="172.5447" x2="473.3523" y2="74.7347" gradientTransform="matrix(1 0 0 -1 2.592146e-02 151.9917)">
	<stop  offset="0" style="stop-color:#62B34F"/>
	<stop  offset="0.46" style="stop-color:#51BAB4"/>
	<stop  offset="1" style="stop-color:#0094D3"/>
</linearGradient>
<polygon class="st2" points="509.7,39.9 553.7,9.9 554.4,10.9 510.4,41 "/>
<linearGradient id="SVGID_3_" gradientUnits="userSpaceOnUse" x1="579.985" y1="177.1543" x2="469.285" y2="79.3443" gradientTransform="matrix(1 0 0 -1 7.795353e-03 151.992)">
	<stop  offset="0" style="stop-color:#62B34F"/>
	<stop  offset="0.46" style="stop-color:#51BAB4"/>
	<stop  offset="1" style="stop-color:#0094D3"/>
</linearGradient>
<polygon class="st3" points="509.7,33.1 540.3,12.1 541,13.1 510.4,34.1 "/>
<linearGradient id="SVGID_4_" gradientUnits="userSpaceOnUse" x1="575.717" y1="181.9921" x2="465.017" y2="84.1821" gradientTransform="matrix(1 0 0 -1 8.826607e-03 151.9938)">
	<stop  offset="0" style="stop-color:#62B34F"/>
	<stop  offset="0.46" style="stop-color:#51BAB4"/>
	<stop  offset="1" style="stop-color:#0094D3"/>
</linearGradient>
<polygon class="st4" points="509.7,26.3 522.4,17.5 523.2,18.5 510.4,27.3 "/>
<linearGradient id="SVGID_5_" gradientUnits="userSpaceOnUse" x1="625.8093" y1="125.2908" x2="515.1093" y2="27.4808" gradientTransform="matrix(1 0 0 -1 0 152)">
	<stop  offset="0" style="stop-color:#62B34F"/>
	<stop  offset="0.46" style="stop-color:#51BAB4"/>
	<stop  offset="1" style="stop-color:#0094D3"/>
</linearGradient>
<polygon class="st5" points="592.8,57.6 592.8,57.6 583.9,63.7 583.9,63.7 538.1,95 539,96.3 532.8,100.7 533.3,101.4 520,110.7 
	520.8,111.7 535.4,101.5 535.4,101.5 540.2,98.1 540.2,98.1 586.8,66.3 585.8,64.9 594,59.3 593.6,58.7 623.5,38.3 622.8,37.2 "/>
<linearGradient id="SVGID_6_" gradientUnits="userSpaceOnUse" x1="629.3276" y1="121.3228" x2="518.6176" y2="23.5028" gradientTransform="matrix(1 0 0 -1 0 152)">
	<stop  offset="0" style="stop-color:#62B34F"/>
	<stop  offset="0.46" style="stop-color:#51BAB4"/>
	<stop  offset="1" style="stop-color:#0094D3"/>
</linearGradient>
<polygon class="st6" points="595.4,62.7 595.4,62.7 585.8,69.2 585.8,69.2 541.5,99.4 542.4,100.8 535.8,105.5 536.2,106.1 
	523.2,115.2 524,116.3 537,107.2 537,107.2 543.6,102.5 543.6,102.6 588.1,72.2 587.2,70.8 596.6,64.4 596.1,63.7 623.4,45.1 
	622.7,44 "/>
<linearGradient id="SVGID_7_" gradientUnits="userSpaceOnUse" x1="632.8707" y1="117.3092" x2="522.1607" y2="19.4992" gradientTransform="matrix(1 0 0 -1 0 152)">
	<stop  offset="0" style="stop-color:#62B34F"/>
	<stop  offset="0.46" style="stop-color:#51BAB4"/>
	<stop  offset="1" style="stop-color:#0094D3"/>
</linearGradient>
<polygon class="st7" points="597.8,67.8 597.8,67.8 589.9,73.2 589.9,73.2 544.6,104.1 545.6,105.4 539.5,109.7 539.9,110.4 
	526.8,119.6 527.5,120.6 540.7,111.4 540.7,111.4 546.8,107.2 546.8,107.2 592.1,76.3 591.1,74.9 599,69.5 598.5,68.8 623.4,51.9 
	622.7,50.8 "/>
<linearGradient id="SVGID_8_" gradientUnits="userSpaceOnUse" x1="636.4009" y1="113.2989" x2="525.7009" y2="15.4889" gradientTransform="matrix(1 0 0 -1 0 152)">
	<stop  offset="0" style="stop-color:#62B34F"/>
	<stop  offset="0.46" style="stop-color:#51BAB4"/>
	<stop  offset="1" style="stop-color:#0094D3"/>
</linearGradient>
<polygon class="st8" points="601.5,72 601.5,72 593.7,77.4 593.7,77.4 547.9,108.5 548.9,109.9 541.1,115.3 541.6,116 530.7,123.6 
	531.5,124.6 543.8,116 543.8,116 552.2,110.2 596.2,80.2 595.3,78.8 602.7,73.8 602.2,73.1 623.3,58.7 622.6,57.7 "/>
<linearGradient id="SVGID_9_" gradientUnits="userSpaceOnUse" x1="640.02" y1="109.21" x2="529.3199" y2="11.4" gradientTransform="matrix(1 0 0 -1 0 152)">
	<stop  offset="0" style="stop-color:#62B34F"/>
	<stop  offset="0.46" style="stop-color:#51BAB4"/>
	<stop  offset="1" style="stop-color:#0094D3"/>
</linearGradient>
<polygon class="st9" points="606.1,75.7 606.1,75.7 597.6,81.5 597.6,81.5 557.8,108.6 558.8,110 549.4,116.5 549.9,117.2 
	535.2,127.5 535.9,128.5 551.9,117.3 551.9,117.3 560,111.7 560,111.7 599.9,84.5 599,83.1 607.3,77.4 606.8,76.7 623.3,65.5 
	622.6,64.4 "/>
<linearGradient id="SVGID_10_" gradientUnits="userSpaceOnUse" x1="643.7624" y1="104.9773" x2="533.0624" y2="7.1673" gradientTransform="matrix(1 0 0 -1 0 152)">
	<stop  offset="0" style="stop-color:#62B34F"/>
	<stop  offset="0.46" style="stop-color:#51BAB4"/>
	<stop  offset="1" style="stop-color:#0094D3"/>
</linearGradient>
<polygon class="st10" points="616.3,76 616.1,75.7 606,82.5 606,82.5 567.6,108.7 568.5,110.1 558.2,117.4 558.7,118.1 540.5,130.8 
	541.2,131.8 560.7,118.2 560.7,118.2 570.7,111.2 608.2,85.6 607.2,84.2 617.3,77.4 616.7,76.5 617,77 623.3,72.6 622.5,71.6 "/>
<linearGradient id="SVGID_11_" gradientUnits="userSpaceOnUse" x1="647.5927" y1="100.6371" x2="536.8926" y2="2.8271" gradientTransform="matrix(1 0 0 -1 0 152)">
	<stop  offset="0" style="stop-color:#62B34F"/>
	<stop  offset="0.46" style="stop-color:#51BAB4"/>
	<stop  offset="1" style="stop-color:#0094D3"/>
</linearGradient>
<polygon class="st11" points="616.5,82.2 616.5,82.2 610.8,86 610.8,86 588.2,101.4 589.2,102.8 579.6,109.5 580.1,110.2 
	545.6,134.3 546.3,135.4 582.2,110.3 582.2,110.3 590.5,104.4 590.5,104.4 613,89.1 612,87.8 617.7,83.9 617.2,83.2 623.1,79.2 
	622.4,78.1 "/>
<linearGradient id="SVGID_12_" gradientUnits="userSpaceOnUse" x1="651.2902" y1="96.4598" x2="540.5902" y2="-1.3602" gradientTransform="matrix(1 0 0 -1 0 152)">
	<stop  offset="0" style="stop-color:#62B34F"/>
	<stop  offset="0.46" style="stop-color:#51BAB4"/>
	<stop  offset="1" style="stop-color:#0094D3"/>
</linearGradient>
<polygon class="st12" points="617.6,88.4 617.5,88.2 612.2,91.9 612.2,91.9 594.2,104.1 595.2,105.5 586.8,111.3 587.3,112.1 
	550.9,137.4 551.7,138.5 589.9,111.8 589.9,111.8 597.2,106.7 614.3,95 613.3,93.6 618.7,90 618.1,89.1 622.2,86.3 621.7,85.7 "/>
<linearGradient id="SVGID_13_" gradientUnits="userSpaceOnUse" x1="592.1189" y1="163.4213" x2="481.4189" y2="65.6113" gradientTransform="matrix(1 0 0 -1 0 152)">
	<stop  offset="0" style="stop-color:#62B34F"/>
	<stop  offset="0.46" style="stop-color:#51BAB4"/>
	<stop  offset="1" style="stop-color:#0094D3"/>
</linearGradient>
<polygon class="st13" points="514.7,54.7 514.7,54.7 519.8,51.1 519.8,51.1 539.1,37.9 538.1,36.5 546.6,30.8 546.2,30.1 
	574.8,10.6 574.1,9.5 545.5,29 545.5,29 537,34.8 537,34.8 516.5,48.7 517.5,50.1 512.6,53.5 513.1,54.2 509.5,56.7 510.3,57.7 "/>
<linearGradient id="SVGID_14_" gradientUnits="userSpaceOnUse" x1="596.001" y1="159.0288" x2="485.3011" y2="61.2188" gradientTransform="matrix(1 0 0 -1 0 152)">
	<stop  offset="0" style="stop-color:#62B34F"/>
	<stop  offset="0.46" style="stop-color:#51BAB4"/>
	<stop  offset="1" style="stop-color:#0094D3"/>
</linearGradient>
<polygon class="st14" points="517.9,59.2 517.9,59.2 522.9,55.7 546.8,39.4 545.8,38 552.4,33.5 552,32.9 583.1,11.5 582.4,10.5 
	551.3,31.9 551.3,31.8 544.7,36.3 544.7,36.3 519.3,53.6 520.2,55 515.8,58.1 516.3,58.8 509.5,63.6 510.2,64.6 "/>
<linearGradient id="SVGID_15_" gradientUnits="userSpaceOnUse" x1="599.8663" y1="154.6542" x2="489.1664" y2="56.8441" gradientTransform="matrix(1 0 0 -1 0 152)">
	<stop  offset="0" style="stop-color:#62B34F"/>
	<stop  offset="0.46" style="stop-color:#51BAB4"/>
	<stop  offset="1" style="stop-color:#0094D3"/>
</linearGradient>
<polygon class="st15" points="519,65.3 519,65.3 525.7,60.6 551.7,42.9 550.7,41.4 557.7,36.7 557.3,36 590.8,12.9 590.1,11.9 
	556.6,35 556.5,34.9 549.2,39.9 549.3,39.9 522,58.5 523,59.9 517.1,64.1 517.6,64.7 509.5,70.4 510.2,71.4 "/>
<linearGradient id="SVGID_16_" gradientUnits="userSpaceOnUse" x1="603.8481" y1="150.1422" x2="493.1481" y2="52.3322" gradientTransform="matrix(1 0 0 -1 0 152)">
	<stop  offset="0" style="stop-color:#62B34F"/>
	<stop  offset="0.46" style="stop-color:#51BAB4"/>
	<stop  offset="1" style="stop-color:#0094D3"/>
</linearGradient>
<polygon class="st16" points="521.7,70.2 521.7,70.2 529,65.1 556.6,46.3 555.7,44.9 563,39.9 562.5,39.1 598.5,14.9 597.8,13.9 
	561.3,38.4 561.4,38.5 554.5,43.2 554.5,43.2 524.8,63.4 525.7,64.8 519,69.6 519.4,70.3 509.5,77.2 510.2,78.2 "/>
<linearGradient id="SVGID_17_" gradientUnits="userSpaceOnUse" x1="607.5595" y1="145.9505" x2="496.8595" y2="48.1405" gradientTransform="matrix(1 0 0 -1 0 152)">
	<stop  offset="0" style="stop-color:#62B34F"/>
	<stop  offset="0.46" style="stop-color:#51BAB4"/>
	<stop  offset="1" style="stop-color:#0094D3"/>
</linearGradient>
<polygon class="st17" points="525,74.7 529.7,71.4 529.7,71.4 561.5,49.7 560.6,48.3 568.8,42.7 568.3,42 604.5,17.4 603.8,16.3 
	567.6,41 567.6,41 559.3,46.6 559.3,46.6 527.5,68.3 528.5,69.7 522.4,73.9 522.9,74.7 510.1,83.6 510.8,84.6 525,74.7 "/>
<linearGradient id="SVGID_18_" gradientUnits="userSpaceOnUse" x1="611.3266" y1="141.6839" x2="500.6266" y2="43.8739" gradientTransform="matrix(1 0 0 -1 0 152)">
	<stop  offset="0" style="stop-color:#62B34F"/>
	<stop  offset="0.46" style="stop-color:#51BAB4"/>
	<stop  offset="1" style="stop-color:#0094D3"/>
</linearGradient>
<polygon class="st18" points="528.1,79.3 533.5,75.6 566.4,53.1 565.5,51.8 574.6,45.5 574.1,44.8 611.3,19.5 610.5,18.5 
	573.4,43.8 573.4,43.8 563.7,50.4 563.7,50.4 530.3,73.2 531.2,74.6 525.5,78.6 526,79.3 511.2,89.6 511.9,90.7 528.1,79.3 "/>
<linearGradient id="SVGID_19_" gradientUnits="userSpaceOnUse" x1="615.1101" y1="137.3999" x2="504.4101" y2="39.5899" gradientTransform="matrix(1 0 0 -1 0 152)">
	<stop  offset="0" style="stop-color:#62B34F"/>
	<stop  offset="0.46" style="stop-color:#51BAB4"/>
	<stop  offset="1" style="stop-color:#0094D3"/>
</linearGradient>
<polygon class="st19" points="529,85.5 536.7,80.2 575.6,53.8 574.7,52.4 583.2,46.5 582.8,45.9 617.3,22.3 616.6,21.3 582.1,44.8 
	582.1,44.8 573.2,50.8 573.2,50.9 532.8,78.2 533.8,79.7 526.6,84.7 527.1,85.4 512.8,95.3 513.5,96.4 529,85.6 "/>
<linearGradient id="SVGID_20_" gradientUnits="userSpaceOnUse" x1="618.8102" y1="133.2197" x2="508.1103" y2="35.4097" gradientTransform="matrix(1 0 0 -1 0 152)">
	<stop  offset="0" style="stop-color:#62B34F"/>
	<stop  offset="0.46" style="stop-color:#51BAB4"/>
	<stop  offset="1" style="stop-color:#0094D3"/>
</linearGradient>
<polygon class="st20" points="530,91.6 536.8,86.9 579,58.1 578.1,56.7 586.7,50.8 586.2,50.2 622.7,25.3 622,24.2 585.5,49.1 
	585.5,49.1 576.9,55 576.9,55 533.7,84.4 534.7,85.8 527.4,90.9 527.9,91.6 514.8,100.7 515.5,101.7 530,91.6 "/>
<linearGradient id="SVGID_21_" gradientUnits="userSpaceOnUse" x1="622.3113" y1="129.2585" x2="511.6013" y2="31.4485" gradientTransform="matrix(1 0 0 -1 0 152)">
	<stop  offset="0" style="stop-color:#62B34F"/>
	<stop  offset="0.46" style="stop-color:#51BAB4"/>
	<stop  offset="1" style="stop-color:#0094D3"/>
</linearGradient>
<polygon class="st21" points="531.3,97.5 537.1,93.4 537.1,93.4 582.2,62.7 581.2,61.3 589.5,55.7 589,55 623.5,31.5 622.8,30.5 
	588.3,54 588.3,54 580,59.6 580,59.6 535,90.3 535.9,91.7 529.1,96.5 529.6,97.2 517.2,105.8 517.9,106.8 531.4,97.5 "/>
<linearGradient id="SVGID_22_" gradientUnits="userSpaceOnUse" x1="656.0913" y1="90.0333" x2="545.3912" y2="-7.7767" gradientTransform="matrix(0.9986 -1.150172e-03 -1.150172e-03 -0.9986 -0.1792 150.4229)">
	<stop  offset="0" style="stop-color:#62B34F"/>
	<stop  offset="0.46" style="stop-color:#51BAB4"/>
	<stop  offset="1" style="stop-color:#0094D3"/>
</linearGradient>
<polygon class="st22" points="556.2,140.5 618.5,97.1 619.2,98.1 556.9,141.5 "/>
<linearGradient id="SVGID_23_" gradientUnits="userSpaceOnUse" x1="660.3563" y1="88.9291" x2="549.6564" y2="-8.8809" gradientTransform="matrix(0.9986 2.021610e-03 2.021610e-03 -0.9986 -1.3352 152.8935)">
	<stop  offset="0" style="stop-color:#62B34F"/>
	<stop  offset="0.46" style="stop-color:#51BAB4"/>
	<stop  offset="1" style="stop-color:#0094D3"/>
</linearGradient>
<polygon class="st23" points="561.1,145.2 613.6,108.8 614.3,109.8 561.9,146.3 "/>
<linearGradient id="SVGID_24_" gradientUnits="userSpaceOnUse" x1="664.1315" y1="84.6533" x2="553.4315" y2="-13.1567" gradientTransform="matrix(0.9986 2.021610e-03 2.021610e-03 -0.9986 -1.3393 152.8968)">
	<stop  offset="0" style="stop-color:#62B34F"/>
	<stop  offset="0.46" style="stop-color:#51BAB4"/>
	<stop  offset="1" style="stop-color:#0094D3"/>
</linearGradient>
<polygon class="st24" points="579.7,139.2 602.8,123.2 603.5,124.2 580.4,140.2 "/>
</svg>
